<svg xmlns="http://www.w3.org/2000/svg" xmlns:xlink="http://www.w3.org/1999/xlink" width="496" height="246.985" viewBox="0 0 496 246.985">
  <defs>
    <linearGradient id="linear-gradient" x1="0.451" y1="1.056" x2="0.5" y2="0.051" gradientUnits="objectBoundingBox">
      <stop offset="0" stop-color="#184c74"/>
      <stop offset="0.448" stop-color="#338da6"/>
      <stop offset="1" stop-color="#eb404d"/>
    </linearGradient>
  </defs>
  <g id="Group_15126" data-name="Group 15126" transform="translate(-731 -2376.904)">
    <rect id="Rectangle_32467" data-name="Rectangle 32467" width="496" height="224" rx="105" transform="translate(731 2391.906)" fill="#f7f7f7"/>
    <g id="Group_12083" data-name="Group 12083" transform="translate(856 2377.402)">
      <path id="Union_5" data-name="Union 5" d="M14112.788-5142.9a42.642,42.642,0,0,1-33.173-50.171,466.45,466.45,0,0,0-32.252-39.631l-65.406,65.5a3.214,3.214,0,0,1-1.173.75l-53.851,19.622a3.209,3.209,0,0,1-2.2,0,3.179,3.179,0,0,1-1.812-1.66,3.2,3.2,0,0,1-.106-2.46l19.622-53.85a3.234,3.234,0,0,1,.75-1.173l65.346-65.257c-16.9-15.321-31.406-26.948-38.625-32.575-.253.057-.509.11-.765.164a42.379,42.379,0,0,1-16.7.078,42.638,42.638,0,0,1-33.649-49.961,3.205,3.205,0,0,1,.854-1.631,3.2,3.2,0,0,1,2.265-.967,3.139,3.139,0,0,1,2.282.914l26.03,25.469,19.324-6.722,6.718-19.306-25.807-25.953a3.2,3.2,0,0,1-.871-1.625,3.206,3.206,0,0,1,.469-2.417,3.184,3.184,0,0,1,2.037-1.375,42.382,42.382,0,0,1,8.464-.868h.16a42.43,42.43,0,0,1,9.267,1.049,42.647,42.647,0,0,1,32.228,50.8c10.27,13.16,21.235,26.177,32.6,38.689l78.068-77.961a27.069,27.069,0,0,1,19.267-7.98,27.071,27.071,0,0,1,19.271,7.98,27.073,27.073,0,0,1,7.98,19.27,27.071,27.071,0,0,1-7.98,19.266l-78.1,78.207c12.52,11.3,23.87,20.134,39.691,32.27a42.391,42.391,0,0,1,16.512-.046,42.328,42.328,0,0,1,27.193,18,42.353,42.353,0,0,1,7.295,23.674v.121a43,43,0,0,1-.8,8.165,3.185,3.185,0,0,1-.86,1.632,3.216,3.216,0,0,1-4.546.05l-26.031-25.47-19.319,6.726-6.723,19.306,25.808,25.953a3.221,3.221,0,0,1,.871,1.625,3.2,3.2,0,0,1-.47,2.414,3.2,3.2,0,0,1-2.04,1.379,42.568,42.568,0,0,1-8.542.871A42.388,42.388,0,0,1,14112.788-5142.9Zm7.045-77.866a35.927,35.927,0,0,0-25.093,11.688,35.92,35.92,0,0,0-9.479,26.006,35.918,35.918,0,0,0,11.684,25.1,35.92,35.92,0,0,0,24.414,9.516c.316,0,.636,0,.952-.014l-22.555-22.683a3.239,3.239,0,0,1-.757-3.324l7.888-22.672a3.21,3.21,0,0,1,1.98-1.98l22.675-7.888a3.193,3.193,0,0,1,3.307.736l22.711,22.228c.011-.711,0-1.426-.028-2.133a36.217,36.217,0,0,0-36.12-34.612C14120.889-5220.8,14120.363-5220.785,14119.833-5220.764Zm-188.615,65.531,15.836-5.77-10.067-10.067Zm8.2-22.5,14.3,14.3,20.131-7.337-27.095-27.09Zm27.819-8.734,12.445,12.441,63.334-63.416c-3.84-4.127-7.739-8.176-11.6-12.036l-.586-.583Zm-17.229-17.233,12.683,12.687,63.562-63.565c-4.127-4.031-8.488-8.168-12.971-12.31Zm27.285-102.482a706.3,706.3,0,0,1,58.667,52.158,496,496,0,0,1,46,53.253,42.846,42.846,0,0,1,23.454-23.376c-19.765-15.2-33.344-26-53.914-46.41q-1.925-1.93-3.832-3.889a3.192,3.192,0,0,1-.533-3.764,3.177,3.177,0,0,1,1.9-1.55,3.172,3.172,0,0,1,2.25.153l56.086-56.086-12.583-12.583-55.877,55.8a3.215,3.215,0,0,1-.909,3.256,3.174,3.174,0,0,1-2.169.85c-.046,0-.092,0-.139,0a3.164,3.164,0,0,1-2.229-1.031c-11.646-12.637-22.953-25.882-33.624-39.372A42.976,42.976,0,0,1,13977.293-5306.18Zm78.666,30.994.082.085c4.457,4.426,8.563,8.375,12.533,12.065l55.685-55.763-12.342-12.346Zm-130.792-62.993a36.229,36.229,0,0,0,42.688,28.235,36.012,36.012,0,0,0,28.91-37.022,35.942,35.942,0,0,0-11.7-25.1,35.921,35.921,0,0,0-25.377-9.495l22.559,22.686a3.243,3.243,0,0,1,.757,3.324l-7.892,22.672a3.2,3.2,0,0,1-1.983,1.98l-22.672,7.891a3.231,3.231,0,0,1-1.062.178,3.2,3.2,0,0,1-2.243-.917l-22.711-22.224A36.316,36.316,0,0,0,13925.167-5338.179Zm192.256-32.7-18.086,18.062,29.469,29.469,18.062-18.086a20.848,20.848,0,0,0,0-29.444,20.759,20.759,0,0,0-14.724-6.089A20.752,20.752,0,0,0,14117.423-5370.879Zm-81.769,99.287-31.8-31.8a2.931,2.931,0,0,1,0-4.113,2.932,2.932,0,0,1,2.09-.878,2.929,2.929,0,0,1,2.059.843l31.8,31.8a2.935,2.935,0,0,1,0,4.148,2.932,2.932,0,0,1-2.076.86A2.923,2.923,0,0,1,14035.654-5271.592Zm-38.721-38.718-.69-.69c-.011-.01-.021-.025-.031-.035a2.932,2.932,0,0,1,.031-4.148,2.929,2.929,0,0,1,2.055-.843,2.917,2.917,0,0,1,2.094.878l.689.689a2.928,2.928,0,0,1,0,4.148,2.923,2.923,0,0,1-2.072.86A2.935,2.935,0,0,1,13996.934-5310.31Z" transform="translate(-13918.003 5388.007)" stroke="rgba(0,0,0,0)" stroke-width="1" fill="url(#linear-gradient)"/>
    </g>
  </g>
</svg>
