<svg xmlns="http://www.w3.org/2000/svg" xmlns:xlink="http://www.w3.org/1999/xlink" width="487.27" height="366.546" viewBox="0 0 487.27 366.546">
  <defs>
    <clipPath id="clip-path">
      <rect id="Rectangle_2720" data-name="Rectangle 2720" width="487.27" height="366.546" fill="none"/>
    </clipPath>
    <clipPath id="clip-path-2">
      <rect id="Rectangle_2563" data-name="Rectangle 2563" width="483.842" height="416.689" fill="none"/>
    </clipPath>
    <clipPath id="clip-path-3">
      <rect id="Rectangle_2560" data-name="Rectangle 2560" width="415.28" height="300.991" fill="none"/>
    </clipPath>
    <clipPath id="clip-path-4">
      <rect id="Rectangle_2561" data-name="Rectangle 2561" width="418.709" height="304.419" fill="none"/>
    </clipPath>
    <filter id="Path_2277" x="-26.592" y="-23.065" width="540.371" height="426.388" filterUnits="userSpaceOnUse">
      <feOffset dy="13" input="SourceAlpha"/>
      <feGaussianBlur stdDeviation="24.5" result="blur"/>
      <feFlood flood-opacity="0.231"/>
      <feComposite operator="in" in2="blur"/>
      <feComposite in="SourceGraphic"/>
    </filter>
    <clipPath id="clip-path-5">
      <rect id="Rectangle_2562" data-name="Rectangle 2562" width="396.799" height="282.815" fill="none"/>
    </clipPath>
  </defs>
  <g id="Group_5269" data-name="Group 5269" transform="translate(40 29)">
    <g id="Group_5251" data-name="Group 5251" transform="translate(-40 -29)" clip-path="url(#clip-path)">
      <g id="Group_5133" data-name="Group 5133" transform="translate(1.714 0.857)">
        <g id="Group_5132" data-name="Group 5132" clip-path="url(#clip-path-2)">
          <g id="Group_5125" data-name="Group 5125" transform="translate(34.281 25.711)" opacity="0.193">
            <g id="Group_5124" data-name="Group 5124" transform="translate(0 0)">
              <g id="Group_5123" data-name="Group 5123" clip-path="url(#clip-path-3)">
                <path id="Path_2275" data-name="Path 2275" d="M388.833,302.991H30.448A28.447,28.447,0,0,1,2,274.543V30.448A28.448,28.448,0,0,1,30.448,2H388.833A28.448,28.448,0,0,1,417.28,30.448v244.1a28.447,28.447,0,0,1-28.448,28.448" transform="translate(-2 -2)" fill="#fff"/>
              </g>
            </g>
          </g>
          <g id="Group_5128" data-name="Group 5128" transform="translate(32.567 23.996)" opacity="0.29">
            <g id="Group_5127" data-name="Group 5127">
              <g id="Group_5126" data-name="Group 5126" clip-path="url(#clip-path-4)">
                <path id="Path_2276" data-name="Path 2276" d="M388.547,1.714a28.447,28.447,0,0,1,28.448,28.448v244.1a28.448,28.448,0,0,1-28.448,28.448H30.162A28.448,28.448,0,0,1,1.714,274.257V30.162A28.447,28.447,0,0,1,30.162,1.714Zm0-1.714H30.162A30.2,30.2,0,0,0,0,30.162v244.1a30.2,30.2,0,0,0,30.162,30.162H388.547a30.2,30.2,0,0,0,30.162-30.162V30.162A30.2,30.2,0,0,0,388.547,0" fill="#fff"/>
              </g>
            </g>
          </g>
          <g transform="matrix(1, 0, 0, 1, -1.71, -0.86)" filter="url(#Path_2277)">
            <path id="Path_2277-2" data-name="Path 2277" d="M33.588,14.681H389.25A18.855,18.855,0,0,1,408.1,33.535V275.214a18.855,18.855,0,0,1-18.854,18.854H33.588a18.855,18.855,0,0,1-18.854-18.854V33.535A18.855,18.855,0,0,1,33.588,14.681" transform="translate(32.17 22.75)" fill="#fff"/>
          </g>
          <g id="Group_5131" data-name="Group 5131" transform="translate(43.48 34.791)" opacity="0.549">
            <g id="Group_5130" data-name="Group 5130" transform="translate(0)">
              <g id="Group_5129" data-name="Group 5129" clip-path="url(#clip-path-5)">
                <path id="Path_2278" data-name="Path 2278" d="M388.964,14.31a18.855,18.855,0,0,1,18.854,18.854V274.843A18.855,18.855,0,0,1,388.964,293.7H33.3a18.855,18.855,0,0,1-18.854-18.854V33.164A18.855,18.855,0,0,1,33.3,14.31Zm0-1.714H33.3A20.591,20.591,0,0,0,12.734,33.164V274.843A20.591,20.591,0,0,0,33.3,295.412H388.964a20.591,20.591,0,0,0,20.568-20.568V33.164A20.591,20.591,0,0,0,388.964,12.6" transform="translate(-12.734 -12.596)" fill="#fff"/>
              </g>
            </g>
          </g>
          <path id="Path_2279" data-name="Path 2279" d="M42.142,28.4A5.142,5.142,0,1,1,37,33.546,5.142,5.142,0,0,1,42.142,28.4" transform="translate(27.276 19.935)" fill="#fff"/>
          <path id="Path_2280" data-name="Path 2280" d="M62.142,28.4A5.142,5.142,0,1,1,57,33.546,5.142,5.142,0,0,1,62.142,28.4" transform="translate(24.417 19.935)" fill="#fff"/>
          <path id="Path_2281" data-name="Path 2281" d="M401.777,14.681H102.341V294.069H401.777a18.855,18.855,0,0,0,18.854-18.854V33.535a18.855,18.855,0,0,0-18.854-18.854" transform="translate(17.934 21.897)" fill="#fff"/>
          <path id="Path_2282" data-name="Path 2282" d="M33.588,14.681A18.855,18.855,0,0,0,14.734,33.535V275.214a18.855,18.855,0,0,0,18.854,18.854H89.815V14.681Z" transform="translate(30.46 21.897)" fill="#e5e5e4"/>
          <path id="Path_2283" data-name="Path 2283" d="M14.734,42.895v-9.36A18.855,18.855,0,0,1,33.588,14.68H389.25A18.855,18.855,0,0,1,408.1,33.534v9.36Z" transform="translate(30.46 21.897)" fill="#287c96"/>
          <path id="Path_2284" data-name="Path 2284" d="M36,80.4H71.137a6,6,0,1,1,0,12H36a6,6,0,1,1,0-12" transform="translate(28.277 12.5)" fill="#b5b4b3"/>
          <path id="Path_2285" data-name="Path 2285" d="M36,132.4H71.137a6,6,0,1,1,0,12H36a6,6,0,1,1,0-12" transform="translate(28.277 5.065)" fill="#b5b4b3"/>
          <path id="Path_2286" data-name="Path 2286" d="M36,184.4H71.137a6,6,0,1,1,0,12H36a6,6,0,0,1,0-12" transform="translate(28.277 -2.37)" fill="#b5b4b3"/>
          <path id="Path_2287" data-name="Path 2287" d="M36,106.4H71.137a6,6,0,1,1,0,12H36a6,6,0,0,1,0-12" transform="translate(28.277 8.783)" fill="#b5b4b3"/>
          <path id="Path_2288" data-name="Path 2288" d="M35.571,158.4H62.138a5.571,5.571,0,1,1,0,11.141H35.571a5.571,5.571,0,1,1,0-11.141" transform="translate(28.277 1.347)" fill="#b5b4b3"/>
          <path id="Path_2289" data-name="Path 2289" d="M36,210.4H54a6,6,0,1,1,0,12H36a6,6,0,0,1,0-12" transform="translate(28.277 -6.088)" fill="#b5b4b3"/>
          <path id="Path_2517" data-name="Path 2517" d="M183.738,185.848V155.385l-8.362,15.232Z" transform="translate(30.272 13.785)" fill="#818080"/>
          <path id="Path_2518" data-name="Path 2518" d="M383.093,155.384v30.463l8.362-15.232Z" transform="translate(25.431 13.785)" fill="#818080"/>
          <path id="Path_2519" data-name="Path 2519" d="M158.648,143.582v53.929l16.338-26.965Z" transform="translate(30.661 14.06)" fill="#818080"/>
          <path id="Path_2520" data-name="Path 2520" d="M364.655,154.736a11.629,11.629,0,0,1-3.8-4.613c-2.282-6.026-5.079-15.322-15.733-17.411v25.081c8.095,2.626,7.366,13.574,11.906,17.476a9.9,9.9,0,0,0,5.528,2.63h.28a14.619,14.619,0,0,0-6.3,5.222c-5.173,7.274-5.035,19.407-15.082,19.407-12.351,0-10.678-13.084-15.852-20.337-2.946-4.129-5.507-4.291-5.53-4.292h-.278a15.953,15.953,0,0,0,6.3-3.2c4.445-3.833,4.974-13.981,11.412-16.761V132.475c-11.232,1.466-15.178,11.189-17.875,17.494a15.015,15.015,0,0,1-3.515,4.767H295.32a7.558,7.558,0,0,1-2.271-3.14c-1.419-4.4-3.2-11.519-11.193-11.519-7.439,0-9.845,7.009-11.451,11.421a9.883,9.883,0,0,1-2.078,3.239H248.365s-3.577-2.6-4.735-6.2c-2.583-8.019-5.819-20.972-20.377-20.972-13.542,0-17.924,12.761-20.847,20.792a18.336,18.336,0,0,1-4.265,6.379h-14.2v30.875h14.2s4.859,2.106,6.417,5.146c3.567,6.963,1.976,18.815,13.459,21.477V190.192c-9.139-2.662-8.3-14.2-13.391-20.956-3.3-4.391-6.177-4.543-6.177-4.543h-.309a16.257,16.257,0,0,0,7.037-5.527c5.775-7.7,5.621-20.537,16.839-20.537,13.791,0,11.924,13.846,17.7,21.522,3.305,4.391,6.178,4.543,6.178,4.543h.309a16.249,16.249,0,0,0-7.038,5.526c-5.139,6.852-5.59,17.766-13.533,20.087v22.357c14.237-1.36,13.477-15.049,17.468-22.648a9.18,9.18,0,0,1,5.264-4.4h19.811v.082h.057a7.961,7.961,0,0,1,2.6,3.4c1.418,4.4,3.2,11.519,11.193,11.519,7.438,0,9.845-7.009,11.45-11.42a10.007,10.007,0,0,1,2.23-3.394v-.192h20.581a12.03,12.03,0,0,1,4.12,4.851c2.583,6.822,5.819,17.841,20.378,17.841,13.542,0,17.923-10.855,20.847-17.688a15.322,15.322,0,0,1,3.772-5h13.049V154.736ZM291.41,162.31c-.721,1.587-2.522,10.23-9.057,10.23-8.284,0-8.9-8.643-9.983-10.23a6.323,6.323,0,0,0-3.139-2.171h-.565s3.138-.721,3.859-2.676,2.522-12.607,9.057-12.607c8.284,0,8.9,10.652,9.983,12.607a6.358,6.358,0,0,0,3.139,2.676h.567s-3.139.584-3.86,2.171" transform="translate(30.072 14.433)" fill="#e0e1e3"/>
          <path id="Path_2521" data-name="Path 2521" d="M223.139,192.252a15.338,15.338,0,0,1-4.31-.565v22.041a23.129,23.129,0,0,0,5.236.548c.842,0,1.626-.047,2.38-.119V191.8a11.679,11.679,0,0,1-3.306.45" transform="translate(29.259 12.939)" fill="#818080"/>
          <path id="Path_2522" data-name="Path 2522" d="M344.837,157.332a12.724,12.724,0,0,1,3.946.573V132.825a24.081,24.081,0,0,0-4.643-.431h0a22.969,22.969,0,0,0-2.971.194v25.463a9.125,9.125,0,0,1,3.669-.719" transform="translate(26.408 14.32)" fill="#818080"/>
          <path id="Path_2523" data-name="Path 2523" d="M288.873,117.937h-8.735a2.442,2.442,0,0,1,0-4.883h8.735a2.442,2.442,0,0,1,0,4.883" transform="translate(27.887 14.771)" fill="#174c75"/>
          <path id="Path_2524" data-name="Path 2524" d="M193.3,212.993h-8.735a2.442,2.442,0,1,1,0-4.883H193.3a2.442,2.442,0,1,1,0,4.883" transform="translate(30.115 12.556)" fill="#eb404d"/>
          <path id="Path_2525" data-name="Path 2525" d="M193.3,141.434h-8.735a2.442,2.442,0,1,1,0-4.883H193.3a2.442,2.442,0,1,1,0,4.883" transform="translate(30.115 14.223)" fill="#eb404d"/>
          <path id="Path_2526" data-name="Path 2526" d="M393.738,141.434H378.563a2.442,2.442,0,1,1,0-4.883h15.175a2.442,2.442,0,0,1,0,4.883" transform="translate(25.593 14.223)" fill="#174c75"/>
          <path id="Path_2527" data-name="Path 2527" d="M387.3,147.652h-8.735a2.442,2.442,0,1,1,0-4.883H387.3a2.442,2.442,0,0,1,0,4.883" transform="translate(25.593 14.079)" fill="#174c75"/>
          <path id="Path_2528" data-name="Path 2528" d="M288.192,217.076H250.9a2.442,2.442,0,1,1,0-4.883h37.3a2.442,2.442,0,1,1,0,4.883" transform="translate(28.569 12.461)" fill="#eb404d"/>
          <path id="Path_2529" data-name="Path 2529" d="M312.647,223.942H250.9a2.442,2.442,0,1,1,0-4.883h61.751a2.442,2.442,0,1,1,0,4.883" transform="translate(28.569 12.301)" fill="#174c75"/>
          <path id="Path_2530" data-name="Path 2530" d="M233.393,117.937H214.912a2.442,2.442,0,0,1,0-4.883h18.481a2.442,2.442,0,1,1,0,4.883" transform="translate(29.407 14.771)" fill="#eb404d"/>
          <path id="Path_2531" data-name="Path 2531" d="M354.029,117.937H335.548a2.442,2.442,0,0,1,0-4.883h18.481a2.442,2.442,0,0,1,0,4.883" transform="translate(26.596 14.771)" fill="#174c75"/>
          <path id="Path_2532" data-name="Path 2532" d="M215.274,139.528H199.731a.488.488,0,0,1,0-.977h15.542a.488.488,0,0,1,0,.977" transform="translate(29.715 14.177)" fill="#002848"/>
          <path id="Path_2533" data-name="Path 2533" d="M215.274,211.087H199.731a.488.488,0,0,1,0-.977h15.542a.488.488,0,0,1,0,.977" transform="translate(29.715 12.509)" fill="#002848"/>
          <path id="Path_2534" data-name="Path 2534" d="M284.689,202.168a.489.489,0,0,1-.488-.488V173.6a.488.488,0,0,1,.977,0V201.68a.488.488,0,0,1-.488.488" transform="translate(27.735 13.372)" fill="#002848"/>
          <path id="Path_2535" data-name="Path 2535" d="M268.33,208.371a.489.489,0,0,1-.488-.488v-16.7h16.08a.488.488,0,1,1,0,.977h-15.1v15.719a.489.489,0,0,1-.488.488" transform="translate(28.117 12.95)" fill="#002848"/>
          <path id="Path_2536" data-name="Path 2536" d="M373.242,139.528H345.055a.488.488,0,1,1,0-.977h28.186a.488.488,0,1,1,0,.977" transform="translate(26.329 14.177)" fill="#002848"/>
          <path id="Path_2537" data-name="Path 2537" d="M149.127,192.035v-5.583h-1.595v-5.046a1.192,1.192,0,0,1,1.2-1.2h3.19a1.192,1.192,0,0,1,1.2,1.2v5.046H151.52v5.583Zm1.2-13.041a1.464,1.464,0,1,1,1.027-.429,1.4,1.4,0,0,1-1.027.429" transform="translate(30.92 13.302)" fill="#a0a0a0"/>
          <path id="Path_2538" data-name="Path 2538" d="M149.127,212.605v-5.583h-1.595v-5.046a1.192,1.192,0,0,1,1.2-1.2h3.19a1.192,1.192,0,0,1,1.2,1.2v5.046H151.52v5.583Zm1.2-13.041a1.464,1.464,0,1,1,1.027-.429,1.4,1.4,0,0,1-1.027.429" transform="translate(30.92 12.823)" fill="#a0a0a0"/>
          <path id="Path_2539" data-name="Path 2539" d="M149.127,150.193v-5.583h-1.595v-5.046a1.192,1.192,0,0,1,1.2-1.2h3.19a1.192,1.192,0,0,1,1.2,1.2v5.046H151.52v5.583Zm1.2-13.041a1.464,1.464,0,1,1,1.027-.429,1.4,1.4,0,0,1-1.027.429" transform="translate(30.92 14.277)" fill="#a0a0a0"/>
          <path id="Path_2540" data-name="Path 2540" d="M149.127,170.763v-5.583h-1.595v-5.046a1.192,1.192,0,0,1,1.2-1.2h3.19a1.192,1.192,0,0,1,1.2,1.2v5.046H151.52v5.583Zm1.2-13.041a1.464,1.464,0,1,1,1.027-.429,1.4,1.4,0,0,1-1.027.429" transform="translate(30.92 13.798)" fill="#a0a0a0"/>
          <path id="Path_2541" data-name="Path 2541" d="M138.734,192.035v-5.583h-1.595v-5.046a1.192,1.192,0,0,1,1.2-1.2h3.19a1.192,1.192,0,0,1,1.2,1.2v5.046h-1.595v5.583Zm1.2-13.041a1.464,1.464,0,1,1,1.027-.429,1.4,1.4,0,0,1-1.027.429" transform="translate(31.163 13.302)" fill="#a0a0a0"/>
          <path id="Path_2542" data-name="Path 2542" d="M138.734,212.605v-5.583h-1.595v-5.046a1.192,1.192,0,0,1,1.2-1.2h3.19a1.192,1.192,0,0,1,1.2,1.2v5.046h-1.595v5.583Zm1.2-13.041a1.464,1.464,0,1,1,1.027-.429,1.4,1.4,0,0,1-1.027.429" transform="translate(31.163 12.823)" fill="#a0a0a0"/>
          <path id="Path_2543" data-name="Path 2543" d="M138.734,150.193v-5.583h-1.595v-5.046a1.192,1.192,0,0,1,1.2-1.2h3.19a1.192,1.192,0,0,1,1.2,1.2v5.046h-1.595v5.583Zm1.2-13.041a1.464,1.464,0,1,1,1.027-.429,1.4,1.4,0,0,1-1.027.429" transform="translate(31.163 14.277)" fill="#a0a0a0"/>
          <path id="Path_2544" data-name="Path 2544" d="M138.734,170.763v-5.583h-1.595v-5.046a1.192,1.192,0,0,1,1.2-1.2h3.19a1.192,1.192,0,0,1,1.2,1.2v5.046h-1.595v5.583Zm1.2-13.041a1.464,1.464,0,1,1,1.027-.429,1.4,1.4,0,0,1-1.027.429" transform="translate(31.163 13.798)" fill="#a0a0a0"/>
          <path id="Path_2545" data-name="Path 2545" d="M127.973,192.035v-5.583h-1.595v-5.046a1.192,1.192,0,0,1,1.2-1.2h3.19a1.192,1.192,0,0,1,1.2,1.2v5.046h-1.595v5.583Zm1.2-13.041a1.464,1.464,0,1,1,1.027-.429,1.4,1.4,0,0,1-1.027.429" transform="translate(31.414 13.302)" fill="#a0a0a0"/>
          <path id="Path_2546" data-name="Path 2546" d="M127.973,212.605v-5.583h-1.595v-5.046a1.192,1.192,0,0,1,1.2-1.2h3.19a1.192,1.192,0,0,1,1.2,1.2v5.046h-1.595v5.583Zm1.2-13.041a1.464,1.464,0,1,1,1.027-.429,1.4,1.4,0,0,1-1.027.429" transform="translate(31.414 12.823)" fill="#a0a0a0"/>
          <path id="Path_2547" data-name="Path 2547" d="M127.973,150.193v-5.583h-1.595v-5.046a1.192,1.192,0,0,1,1.2-1.2h3.19a1.192,1.192,0,0,1,1.2,1.2v5.046h-1.595v5.583Zm1.2-13.041a1.464,1.464,0,1,1,1.027-.429,1.4,1.4,0,0,1-1.027.429" transform="translate(31.414 14.277)" fill="#a0a0a0"/>
          <path id="Path_2548" data-name="Path 2548" d="M127.973,170.763v-5.583h-1.595v-5.046a1.192,1.192,0,0,1,1.2-1.2h3.19a1.192,1.192,0,0,1,1.2,1.2v5.046h-1.595v5.583Zm1.2-13.041a1.464,1.464,0,1,1,1.027-.429,1.4,1.4,0,0,1-1.027.429" transform="translate(31.414 13.798)" fill="#a0a0a0"/>
          <path id="Path_2549" data-name="Path 2549" d="M117.581,192.035v-5.583h-1.595v-5.046a1.192,1.192,0,0,1,1.2-1.2h3.19a1.192,1.192,0,0,1,1.2,1.2v5.046h-1.595v5.583Zm1.2-13.041a1.464,1.464,0,1,1,1.026-.429,1.4,1.4,0,0,1-1.026.429" transform="translate(31.656 13.302)" fill="#a0a0a0"/>
          <path id="Path_2550" data-name="Path 2550" d="M117.581,212.605v-5.583h-1.595v-5.046a1.192,1.192,0,0,1,1.2-1.2h3.19a1.192,1.192,0,0,1,1.2,1.2v5.046h-1.595v5.583Zm1.2-13.041a1.464,1.464,0,1,1,1.026-.429,1.4,1.4,0,0,1-1.026.429" transform="translate(31.656 12.823)" fill="#a0a0a0"/>
          <path id="Path_2551" data-name="Path 2551" d="M117.581,150.193v-5.583h-1.595v-5.046a1.192,1.192,0,0,1,1.2-1.2h3.19a1.192,1.192,0,0,1,1.2,1.2v5.046h-1.595v5.583Zm1.2-13.041a1.464,1.464,0,1,1,1.026-.429,1.4,1.4,0,0,1-1.026.429" transform="translate(31.656 14.277)" fill="#a0a0a0"/>
          <path id="Path_2552" data-name="Path 2552" d="M117.581,170.763v-5.583h-1.595v-5.046a1.192,1.192,0,0,1,1.2-1.2h3.19a1.192,1.192,0,0,1,1.2,1.2v5.046h-1.595v5.583Zm1.2-13.041a1.464,1.464,0,1,1,1.026-.429,1.4,1.4,0,0,1-1.026.429" transform="translate(31.656 13.798)" fill="#a0a0a0"/>
          <path id="Path_2553" data-name="Path 2553" d="M106.753,192.035v-5.583h-1.595v-5.046a1.192,1.192,0,0,1,1.2-1.2h3.19a1.192,1.192,0,0,1,1.2,1.2v5.046h-1.595v5.583Zm1.2-13.041a1.464,1.464,0,1,1,1.027-.429,1.4,1.4,0,0,1-1.027.429" transform="translate(31.908 13.302)" fill="#a0a0a0"/>
          <path id="Path_2554" data-name="Path 2554" d="M106.753,212.605v-5.583h-1.595v-5.046a1.192,1.192,0,0,1,1.2-1.2h3.19a1.192,1.192,0,0,1,1.2,1.2v5.046h-1.595v5.583Zm1.2-13.041a1.464,1.464,0,1,1,1.027-.429,1.4,1.4,0,0,1-1.027.429" transform="translate(31.908 12.823)" fill="#a0a0a0"/>
          <path id="Path_2555" data-name="Path 2555" d="M106.753,150.193v-5.583h-1.595v-5.046a1.192,1.192,0,0,1,1.2-1.2h3.19a1.192,1.192,0,0,1,1.2,1.2v5.046h-1.595v5.583Zm1.2-13.041a1.464,1.464,0,1,1,1.027-.429,1.4,1.4,0,0,1-1.027.429" transform="translate(31.908 14.277)" fill="#a0a0a0"/>
          <path id="Path_2556" data-name="Path 2556" d="M106.753,170.763v-5.583h-1.595v-5.046a1.192,1.192,0,0,1,1.2-1.2h3.19a1.192,1.192,0,0,1,1.2,1.2v5.046h-1.595v5.583Zm1.2-13.041a1.464,1.464,0,1,1,1.027-.429,1.4,1.4,0,0,1-1.027.429" transform="translate(31.908 13.798)" fill="#a0a0a0"/>
        </g>
      </g>
      <g id="Group_5250" data-name="Group 5250" transform="translate(34.281 24.853)">
        <g id="Group_5249" data-name="Group 5249" clip-path="url(#clip-path-4)">
          <path id="Path_2324" data-name="Path 2324" d="M50.348,31.426a4.067,4.067,0,1,1-4.067-4.067,4.068,4.068,0,0,1,4.067,4.067" transform="translate(-6.036 -3.912)" fill="#fff"/>
          <path id="Path_2325" data-name="Path 2325" d="M66.337,31.426a4.067,4.067,0,1,1-4.067-4.067,4.068,4.068,0,0,1,4.067,4.067" transform="translate(-8.322 -3.912)" fill="#fff"/>
          <path id="Path_2326" data-name="Path 2326" d="M82.327,31.426a4.067,4.067,0,1,1-4.067-4.067,4.068,4.068,0,0,1,4.067,4.067" transform="translate(-10.608 -3.912)" fill="#fff"/>
        </g>
      </g>
    </g>
  </g>
</svg>
