<svg id="Group_11761" data-name="Group 11761" xmlns="http://www.w3.org/2000/svg" xmlns:xlink="http://www.w3.org/1999/xlink" width="107.997" height="107.997" viewBox="0 0 107.997 107.997">
  <defs>
    <linearGradient id="linear-gradient" x1="0.321" y1="1" x2="0.5" y2="0.067" gradientUnits="objectBoundingBox">
      <stop offset="0" stop-color="#184c74"/>
      <stop offset="0.448" stop-color="#338da6"/>
      <stop offset="1" stop-color="#eb404d"/>
    </linearGradient>
    <clipPath id="clip-path">
      <path id="Path_9522" data-name="Path 9522" d="M29.024,48.824v-4.5a7.425,7.425,0,0,1,14.85,0v4.5a7.425,7.425,0,0,1-14.85,0m34.874,0v-4.5a7.425,7.425,0,0,1,14.85,0v4.5a7.425,7.425,0,0,1-14.85,0m-52.2-33.3v-4.5a7.425,7.425,0,0,1,14.85,0v4.5a7.425,7.425,0,0,1-14.85,0m34.874,0v-4.5a7.425,7.425,0,0,1,14.85,0v4.5a7.425,7.425,0,0,1-14.85,0M54,0A11.037,11.037,0,0,0,42.974,11.025c.306,2.73-1.161,7.586,2.965,12.011A12.557,12.557,0,0,0,40.8,24.812a1.8,1.8,0,1,0,1.887,3.066A8.976,8.976,0,0,1,47.4,26.549H60.6a8.972,8.972,0,0,1,8.761,6.928A11.041,11.041,0,0,0,60.3,44.324c.306,2.73-1.161,7.585,2.963,12.009a12.515,12.515,0,0,0-7.684,3.855,11.034,11.034,0,0,0-12.6,10.91c.306,2.729-1.162,7.587,2.966,12.012A12.618,12.618,0,0,0,36.6,89.14a12.6,12.6,0,0,0-10.8-6.118H19.124A7.433,7.433,0,0,1,11.7,75.6V71.1a7.425,7.425,0,1,1,14.85,0v4.5a1.8,1.8,0,0,0,3.6,0V71.1a11.028,11.028,0,0,0-5.507-9.539,8.95,8.95,0,0,1,5.282-1.711h6.525A11.037,11.037,0,0,0,47.474,48.824v-4.5a11.041,11.041,0,0,0-9.252-10.88A12.553,12.553,0,0,0,27.192,23.027c4.109-4.416,2.656-9.316,2.957-12a11.025,11.025,0,0,0-22.049,0c.307,2.726-1.164,7.593,2.974,12.02A12.616,12.616,0,0,0,0,35.549V46.124a1.8,1.8,0,1,0,3.6,0V35.549a9.01,9.01,0,0,1,9-9H25.8a8.973,8.973,0,0,1,8.759,6.915,11.041,11.041,0,0,0-9.134,10.859c.307,2.729-1.164,7.592,2.972,12.018A12.5,12.5,0,0,0,20.77,60.2,11.036,11.036,0,0,0,8.1,71.1c.307,2.725-1.164,7.593,2.974,12.02A12.616,12.616,0,0,0,0,95.622V106.2a1.8,1.8,0,0,0,3.6,0V95.622a9.01,9.01,0,0,1,9-9H25.8a9.01,9.01,0,0,1,9,9V106.2a1.8,1.8,0,0,0,3.6,0V95.622a9.01,9.01,0,0,1,9-9H60.6a9.01,9.01,0,0,1,9,9V106.2a1.8,1.8,0,0,0,3.6,0V95.622a9.01,9.01,0,0,1,9-9H95.4a9.01,9.01,0,0,1,9,9V106.2a1.8,1.8,0,1,0,3.6,0V95.622a12.614,12.614,0,0,0-12.6-12.6H88.873A7.433,7.433,0,0,1,81.448,75.6V71.1a7.425,7.425,0,1,1,14.85,0v4.5a1.8,1.8,0,0,0,3.6,0V71.1a11.025,11.025,0,1,0-22.049,0c.3,2.714-1.155,7.585,2.958,12A12.618,12.618,0,0,0,71.4,89.141a12.6,12.6,0,0,0-10.8-6.118H54A7.433,7.433,0,0,1,46.574,75.6V71.1a7.425,7.425,0,1,1,14.85,0v4.5a1.8,1.8,0,1,0,3.6,0V71.1a11.03,11.03,0,0,0-5.549-9.562,8.955,8.955,0,0,1,5.249-1.687h6.6A11.037,11.037,0,0,0,82.348,48.824v-4.5a11.042,11.042,0,0,0-9.33-10.894,12.552,12.552,0,0,0-10.96-10.394c4.119-4.418,2.664-9.332,2.965-12.011A11.037,11.037,0,0,0,54,0ZM81.448,15.525v-4.5a7.425,7.425,0,0,1,14.85,0v4.5a7.425,7.425,0,0,1-14.85,0M88.873,0A11.037,11.037,0,0,0,77.848,11.025c.306,2.736-1.159,7.578,2.956,12a12.442,12.442,0,0,0-4.125,1.194,1.8,1.8,0,0,0,1.579,3.235c2.474-1.207,3.032-.906,17.14-.906a9.01,9.01,0,0,1,9,9V46.124a1.8,1.8,0,1,0,3.6,0V35.549a12.616,12.616,0,0,0-11.074-12.5c4.131-4.42,2.673-9.344,2.974-12.02A11.037,11.037,0,0,0,88.873,0Z" fill="url(#linear-gradient)"/>
    </clipPath>
  </defs>
  <g id="Group_11760" data-name="Group 11760" clip-path="url(#clip-path)">
    <rect id="Rectangle_32278" data-name="Rectangle 32278" width="107.997" height="107.997" transform="translate(0.388 0.388)" fill="url(#linear-gradient)"/>
  </g>
</svg>
