<svg xmlns="http://www.w3.org/2000/svg" xmlns:xlink="http://www.w3.org/1999/xlink" width="100.048" height="99.374" viewBox="0 0 100.048 99.374">
  <defs>
    <linearGradient id="linear-gradient" x1="0.5" y1="1" x2="0.5" gradientUnits="objectBoundingBox">
      <stop offset="0" stop-color="#348fa7"/>
      <stop offset="1" stop-color="#587fab"/>
    </linearGradient>
    <linearGradient id="linear-gradient-2" x1="0.5" y1="1" x2="0.5" gradientUnits="objectBoundingBox">
      <stop offset="0" stop-color="#348fa7"/>
      <stop offset="0.496" stop-color="#587fab"/>
      <stop offset="0.985" stop-color="#ec404c"/>
    </linearGradient>
    <linearGradient id="linear-gradient-3" x1="0.5" y1="1" x2="0.5" gradientUnits="objectBoundingBox">
      <stop offset="0" stop-color="#348fa7"/>
      <stop offset="0.496" stop-color="#587fab"/>
    </linearGradient>
  </defs>
  <g id="Group_15044" data-name="Group 15044" transform="translate(-75.02 -236.9)">
    <g id="Group_15043" data-name="Group 15043" transform="translate(75.02 236.9)">
      <g id="Group_15042" data-name="Group 15042">
        <circle id="Ellipse_323" data-name="Ellipse 323" cx="13.686" cy="13.686" r="13.686" transform="translate(9.918 62.282)" fill="url(#linear-gradient)"/>
        <path id="Path_11126" data-name="Path 11126" d="M174.593,307.91h0c-.2-1.191-.595-1.983-.794-2.975-2.578-8.926-10.513-35.9-13.29-47.009-2.578-9.918-5.355-21.025-17.256-21.025-6.744,0-14.877,3.173-14.877,18.05v20.43H122.03V254.95c0-14.877-8.133-18.05-14.877-18.05-12.1,0-14.877,11.108-17.257,21.025-2.777,11.108-10.711,38.084-13.488,47.009a14.591,14.591,0,0,0-.793,2.777v.2h0a19.957,19.957,0,0,0-.6,4.959,23.505,23.505,0,0,0,47.01,0v-11.9h6.149v11.9a23.405,23.405,0,0,0,46.811,0A13.654,13.654,0,0,0,174.593,307.91Zm-31.538-66.845c6.546,0,9.521,4.363,11.7,11.7a22.428,22.428,0,0,0-10.909-2.975,19.59,19.59,0,0,0-11.7,4.165C132.543,242.454,138.493,241.065,143.055,241.065Zm-35.9,0c4.562,0,10.513,1.388,10.909,12.892a18.383,18.383,0,0,0-11.7-4.165,20.48,20.48,0,0,0-10.91,2.975C97.632,245.428,100.608,241.065,107.154,241.065Zm-8.529,91.242a19.471,19.471,0,0,1-19.439-19.438,24.405,24.405,0,0,1,.4-3.968c0-.2.4-1.19.794-2.777a19.446,19.446,0,1,1,18.248,26.183Zm0-42.844a22.755,22.755,0,0,0-14.877,5.355c3.372-11.5,7.934-27.174,9.918-35.307,2.777-3.57,7.537-5.752,12.893-5.752a15.142,15.142,0,0,1,11.7,5.95v40.266A23.806,23.806,0,0,0,98.624,289.463ZM122.03,297V279.546h6.149V297Zm10.116-37.489c3.174-3.768,7.339-5.95,11.7-5.95a16.066,16.066,0,0,1,12.695,5.752c1.983,7.934,6.545,23.8,9.918,35.307a23.273,23.273,0,0,0-34.316,5.157Zm19.439,72.8a19.439,19.439,0,1,1,18.248-26.183,23.689,23.689,0,0,1,.794,2.777,24.493,24.493,0,0,1,.4,3.968A19.22,19.22,0,0,1,151.585,332.307Z" transform="translate(-75.02 -236.9)" fill="url(#linear-gradient-2)"/>
        <circle id="Ellipse_324" data-name="Ellipse 324" cx="14.083" cy="14.083" r="14.083" transform="translate(62.481 61.886)" fill="url(#linear-gradient-3)"/>
      </g>
    </g>
  </g>
</svg>
