<svg xmlns="http://www.w3.org/2000/svg" xmlns:xlink="http://www.w3.org/1999/xlink" width="608" height="235.77" viewBox="0 0 608 235.77">
  <defs>
    <linearGradient id="linear-gradient" y1="1" x2="0.562" y2="0.122" gradientUnits="objectBoundingBox">
      <stop offset="0" stop-color="#184c74"/>
      <stop offset="0.448" stop-color="#338da6"/>
      <stop offset="1" stop-color="#eb404d"/>
    </linearGradient>
    <clipPath id="clip-path">
      <path id="Path_9742" data-name="Path 9742" d="M163.9,175.607l-13.711-10.283-5.01,6.856,20.039,15.029,2.5-3.032,25.313-29.532-6.328-5.536Zm-28.872-6.855a33.75,33.75,0,1,1,33.75,33.75,33.688,33.688,0,0,1-33.75-33.75m-8.438,0a42.188,42.188,0,1,0,42.188-42.189,42.248,42.248,0,0,0-42.188,42.189m23.336-95.847c7.663-3.444,14.089-7.564,18.852-12.392V84.376c0,4-1.78,8.011-5.537,12s-9.458,7.811-16.744,11.074c-14.568,6.527-35.183,10.68-57.877,10.68s-43.308-4.153-57.877-10.68C23.458,104.184,17.757,100.361,14,96.373s-5.537-7.993-5.537-12a3.128,3.128,0,0,0,0-.791V60.514c4.763,4.828,11.19,8.949,18.852,12.392,16.019,7.185,37.591,11.47,61.3,11.47s45.287-4.285,61.306-11.47M30.743,65.26C23.458,62,17.757,58.173,14,54.186s-5.537-7.994-5.537-12v-.4c.116-3.873,1.9-7.746,5.537-11.6,3.757-3.988,9.458-7.812,16.743-11.075C45.311,12.591,65.927,8.438,88.619,8.438s43.309,4.153,57.877,10.679c7.285,3.263,12.987,7.087,16.744,11.075s5.537,7.992,5.537,12-1.78,8.008-5.537,12S153.781,62,146.5,65.26c-14.568,6.525-35.183,10.679-57.877,10.679S45.311,71.785,30.743,65.26M88.619,0c-23.714,0-45.286,4.285-61.3,11.47-8.008,3.592-14.7,7.944-19.512,13.052C3.222,29.384.288,35.085.026,41.265a4.065,4.065,0,0,0,0,.659v41.66a3.128,3.128,0,0,0,0,.791v41.4a3.128,3.128,0,0,0,0,.791v37.97c0,6.543,2.965,12.557,7.777,17.666s11.5,9.458,19.512,13.052c16.019,7.185,37.591,11.47,61.3,11.47a217.383,217.383,0,0,0,34.41-3.032,4.219,4.219,0,1,0-1.319-8.305,209.714,209.714,0,0,1-33.092,2.9c-22.692,0-43.308-4.154-57.877-10.68C23.458,184.342,17.757,180.519,14,176.53s-5.537-7.993-5.537-12V144.889c4.763,4.829,11.19,8.949,18.852,12.393,16.019,7.185,37.591,11.47,61.3,11.47a174.948,174.948,0,0,0,21.622-1.319,4.219,4.219,0,1,0-1.054-8.305,167.06,167.06,0,0,1-20.568,1.186c-22.692,0-43.308-4.153-57.877-10.679C23.458,146.373,17.757,142.55,14,138.561s-5.537-7.993-5.537-12a3.128,3.128,0,0,0,0-.791V102.7c4.763,4.829,11.19,8.949,18.852,12.393,16.019,7.185,37.591,11.469,61.3,11.469s45.287-4.284,61.306-11.469c7.663-3.445,14.089-7.564,18.852-12.393v11.207a4.219,4.219,0,1,0,8.438,0V41.265a2.068,2.068,0,0,0-.132-.263c-.347-6.065-3.131-11.684-7.648-16.481-4.811-5.108-11.5-9.46-19.51-13.052C133.906,4.285,112.334,0,88.619,0Z" transform="translate(0 0)" fill="url(#linear-gradient)"/>
    </clipPath>
  </defs>
  <g id="Group_15145" data-name="Group 15145" transform="translate(-697 -1352.23)">
    <rect id="Rectangle_32321" data-name="Rectangle 32321" width="608" height="224" rx="56" transform="translate(697 1364)" fill="#eaeaea"/>
    <g id="Group_12115" data-name="Group 12115" transform="translate(923 1352.23)">
      <g id="Group_12114" data-name="Group 12114" transform="translate(0)" clip-path="url(#clip-path)">
        <rect id="Rectangle_32482" data-name="Rectangle 32482" width="210.973" height="210.94" transform="translate(-0.008 0)" fill="url(#linear-gradient)"/>
      </g>
    </g>
  </g>
</svg>
