<svg xmlns="http://www.w3.org/2000/svg" xmlns:xlink="http://www.w3.org/1999/xlink" width="707.41" height="614.055" viewBox="0 0 707.41 614.055">
  <defs>
    <linearGradient id="linear-gradient" y1="1" x2="0.947" y2="0.189" gradientUnits="objectBoundingBox">
      <stop offset="0" stop-color="#348fa7"/>
      <stop offset="0.496" stop-color="#587fab"/>
      <stop offset="0.985" stop-color="#ec404c"/>
      <stop offset="1" stop-color="#ec404c"/>
    </linearGradient>
    <clipPath id="clip-path">
      <rect id="Rectangle_2720" data-name="Rectangle 2720" width="707.41" height="597.476" fill="none"/>
    </clipPath>
    <clipPath id="clip-path-2">
      <rect id="Rectangle_2563" data-name="Rectangle 2563" width="702.434" height="604.941" fill="none"/>
    </clipPath>
    <clipPath id="clip-path-3">
      <rect id="Rectangle_2560" data-name="Rectangle 2560" width="602.897" height="436.974" fill="none"/>
    </clipPath>
    <clipPath id="clip-path-4">
      <rect id="Rectangle_2561" data-name="Rectangle 2561" width="607.874" height="441.951" fill="none"/>
    </clipPath>
    <filter id="Path_2277" x="-5.4" y="-6.152" width="718.089" height="552.61" filterUnits="userSpaceOnUse">
      <feOffset dy="13" input="SourceAlpha"/>
      <feGaussianBlur stdDeviation="24.5" result="blur"/>
      <feFlood flood-opacity="0.231"/>
      <feComposite operator="in" in2="blur"/>
      <feComposite in="SourceGraphic"/>
    </filter>
    <clipPath id="clip-path-5">
      <rect id="Rectangle_2562" data-name="Rectangle 2562" width="576.067" height="410.586" fill="none"/>
    </clipPath>
    <filter id="Ellipse_152" x="26.582" y="390.712" width="196.854" height="196.854" filterUnits="userSpaceOnUse">
      <feOffset input="SourceAlpha"/>
      <feGaussianBlur stdDeviation="4" result="blur-2"/>
      <feFlood flood-color="#fff" flood-opacity="0.929"/>
      <feComposite operator="in" in2="blur-2"/>
      <feComposite in="SourceGraphic"/>
    </filter>
    <clipPath id="clip-path-7">
      <path id="Path_9404" data-name="Path 9404" d="M38.894,38.894H53.853V50.862H38.894ZM35.9,53.854H56.845V35.9H35.9ZM46.155,14.861a5.059,5.059,0,0,0-4.106,1.975,5.939,5.939,0,0,1,5.934-1.657,4.907,4.907,0,0,0-1.712-.32l-.116,0M2.992,88.26A4.493,4.493,0,0,1,7.48,83.772H85.268a4.493,4.493,0,0,1,4.488,4.488v1.5H2.992Zm17.951-8.976a1.5,1.5,0,0,1,1.5-1.5h5.984a1.5,1.5,0,0,1,1.5,1.5v1.5H20.943Zm41.886,0a1.5,1.5,0,0,1,1.5-1.5h5.984a1.5,1.5,0,0,1,1.5,1.5v1.5H62.829ZM14.959,62.829h5.984V71.8H14.959Zm56.845,0h5.984V71.8H71.8Zm-32.91,4.488a7.48,7.48,0,0,1,14.96,0V80.78H38.894ZM14.959,41.886h5.984v8.976H14.959Zm56.845,0h5.984v8.976H71.8Zm-47.87-2.992h2.992V74.8H23.935Zm41.886,0h2.992V74.8H65.821ZM8.976,32.911h8.976v1.5a4.482,4.482,0,0,0,2.992,4.213v.275H11.967v14.96h8.976v5.984H11.967V74.8h8.976v.275a4.481,4.481,0,0,0-2.992,4.212v1.5H8.976Zm11.967,1.5v-1.5h8.976v1.5a1.5,1.5,0,0,1-1.5,1.5H22.439a1.5,1.5,0,0,1-1.5-1.5M32.91,79.284a4.481,4.481,0,0,0-2.992-4.212V38.619a4.482,4.482,0,0,0,2.992-4.213v-1.5H59.837v1.5a4.482,4.482,0,0,0,2.992,4.213V75.073a4.482,4.482,0,0,0-2.992,4.213v1.5H56.845V67.319a10.472,10.472,0,1,0-20.943,0V80.78H32.91ZM62.829,34.406v-1.5H71.8v1.5a1.5,1.5,0,0,1-1.5,1.5H64.325a1.5,1.5,0,0,1-1.5-1.5M71.8,38.619A4.482,4.482,0,0,0,74.8,34.406v-1.5h8.975V80.78H74.8v-1.5A4.482,4.482,0,0,0,71.8,75.072V74.8H80.78V59.837H71.8V53.854H80.78V38.894H71.8ZM17.951,26.927H74.8v2.992H17.951Zm-14.96,1.5V23.935H15.909l-.95.8v5.183H4.488a1.5,1.5,0,0,1-1.5-1.5m74.8-3.688-.95-.8H89.756v4.488a1.5,1.5,0,0,1-1.5,1.5H77.788Zm-74.8-5.288a1.5,1.5,0,0,1,1.5-1.5H23.015l-3.553,2.992H2.992Zm66.741-1.5H88.26a1.5,1.5,0,0,1,1.5,1.5v1.5H73.286ZM46.374,9.474,63.269,23.935H51.526a5.923,5.923,0,0,0,.832-2.992,5.994,5.994,0,0,0-4.374-5.764c2.1.785,3.762,2.882,3.69,4.8-.148,3.953-2.575,3.8-5.454,3.853-5,.1-5.737-1.549-5.252-4.351a6.134,6.134,0,0,1,1.081-2.648,6.022,6.022,0,0,0-1.608,3.342,5.844,5.844,0,0,0,.78,3.757H29.479Zm-.95-6.482h1.9l24.87,20.943H67.87l-21.5-18.4-21.5,18.4H20.554ZM44.332,0,26.568,14.959H4.488A4.493,4.493,0,0,0,0,19.447v8.976a4.493,4.493,0,0,0,4.488,4.488h1.5V80.931A7.494,7.494,0,0,0,0,88.26v4.488H92.748V88.26a7.494,7.494,0,0,0-5.984-7.329V32.911h1.5a4.493,4.493,0,0,0,4.488-4.488V19.447a4.493,4.493,0,0,0-4.488-4.488H66.18L48.416,0Z" fill="url(#linear-gradient)"/>
    </clipPath>
  </defs>
  <g id="Group_15147" data-name="Group 15147" transform="translate(0 0)">
    <g id="Group_5269" data-name="Group 5269" transform="translate(0 0)">
      <g id="Group_5251" data-name="Group 5251" transform="translate(0 0)" clip-path="url(#clip-path)">
        <g id="Group_5133" data-name="Group 5133" transform="translate(2.488 1.244)">
          <g id="Group_5132" data-name="Group 5132" clip-path="url(#clip-path-2)">
            <g id="Group_5125" data-name="Group 5125" transform="translate(49.768 37.326)" opacity="0.193">
              <g id="Group_5124" data-name="Group 5124" transform="translate(0 0)">
                <g id="Group_5123" data-name="Group 5123" clip-path="url(#clip-path-3)">
                  <path id="Path_2275" data-name="Path 2275" d="M563.6,438.974H43.3A41.3,41.3,0,0,1,2,397.674V43.3A41.3,41.3,0,0,1,43.3,2H563.6a41.3,41.3,0,0,1,41.3,41.3V397.674a41.3,41.3,0,0,1-41.3,41.3" transform="translate(-2 -2)" fill="#fff"/>
                </g>
              </g>
            </g>
            <g id="Group_5128" data-name="Group 5128" transform="translate(47.28 34.838)" opacity="0.29">
              <g id="Group_5127" data-name="Group 5127">
                <g id="Group_5126" data-name="Group 5126" clip-path="url(#clip-path-4)">
                  <path id="Path_2276" data-name="Path 2276" d="M564.086,2.488a41.3,41.3,0,0,1,41.3,41.3V398.162a41.3,41.3,0,0,1-41.3,41.3H43.788a41.3,41.3,0,0,1-41.3-41.3V43.788a41.3,41.3,0,0,1,41.3-41.3Zm0-2.488H43.788A43.838,43.838,0,0,0,0,43.788V398.162a43.838,43.838,0,0,0,43.788,43.788h520.3a43.838,43.838,0,0,0,43.789-43.788V43.788A43.838,43.838,0,0,0,564.086,0" fill="#fff"/>
                </g>
              </g>
            </g>
            <g transform="matrix(1, 0, 0, 1, -2.49, -1.24)" filter="url(#Path_2277)">
              <path id="Path_2277-2" data-name="Path 2277" d="M42.106,14.681H558.451a27.373,27.373,0,0,1,27.372,27.372V392.919a27.373,27.373,0,0,1-27.372,27.372H42.106a27.373,27.373,0,0,1-27.372-27.372V42.053A27.373,27.373,0,0,1,42.106,14.681" transform="translate(53.37 39.67)" fill="#fff"/>
            </g>
            <g id="Group_5131" data-name="Group 5131" transform="translate(63.123 50.51)" opacity="0.549">
              <g id="Group_5130" data-name="Group 5130" transform="translate(0)">
                <g id="Group_5129" data-name="Group 5129" clip-path="url(#clip-path-5)">
                  <path id="Path_2278" data-name="Path 2278" d="M558.939,15.084a27.373,27.373,0,0,1,27.372,27.372V393.322a27.373,27.373,0,0,1-27.372,27.372H42.595a27.373,27.373,0,0,1-27.372-27.372V42.457A27.373,27.373,0,0,1,42.595,15.084Zm0-2.488H42.595A29.894,29.894,0,0,0,12.734,42.457V393.322a29.894,29.894,0,0,0,29.861,29.861H558.939A29.894,29.894,0,0,0,588.8,393.322V42.457A29.894,29.894,0,0,0,558.939,12.6" transform="translate(-12.734 -12.596)" fill="#fff"/>
                </g>
              </g>
            </g>
            <path id="Path_2279" data-name="Path 2279" d="M44.465,28.4A7.465,7.465,0,1,1,37,35.869,7.465,7.465,0,0,1,44.465,28.4" transform="translate(56.315 41.774)" fill="#fff"/>
            <path id="Path_2280" data-name="Path 2280" d="M64.465,28.4A7.465,7.465,0,1,1,57,35.869,7.465,7.465,0,0,1,64.465,28.4" transform="translate(61.199 41.774)" fill="#fff"/>
            <path id="Path_2281" data-name="Path 2281" d="M537.057,14.681H102.341v405.61H537.057a27.373,27.373,0,0,0,27.372-27.372V42.053a27.373,27.373,0,0,0-27.372-27.372" transform="translate(72.272 38.423)" fill="#fff"/>
            <path id="Path_2282" data-name="Path 2282" d="M42.106,14.681A27.373,27.373,0,0,0,14.734,42.053V392.919a27.373,27.373,0,0,0,27.372,27.372h81.628V14.681Z" transform="translate(50.878 38.423)" fill="#e5e5e4"/>
            <path id="Path_2283" data-name="Path 2283" d="M14.734,55.642V42.052A27.373,27.373,0,0,1,42.106,14.68H558.451a27.373,27.373,0,0,1,27.372,27.372V55.642Z" transform="translate(50.878 38.423)" fill="#287c96"/>
            <path id="Path_2284" data-name="Path 2284" d="M38.709,80.4H89.722a8.709,8.709,0,1,1,0,17.419H38.709a8.709,8.709,0,1,1,0-17.419" transform="translate(54.606 54.473)" fill="#b5b4b3"/>
            <path id="Path_2285" data-name="Path 2285" d="M38.709,132.4H89.722a8.709,8.709,0,1,1,0,17.419H38.709a8.709,8.709,0,1,1,0-17.419" transform="translate(54.606 67.171)" fill="#b5b4b3"/>
            <path id="Path_2286" data-name="Path 2286" d="M38.709,184.4H89.722a8.709,8.709,0,0,1,0,17.419H38.709a8.709,8.709,0,0,1,0-17.419" transform="translate(54.606 79.87)" fill="#b5b4b3"/>
            <path id="Path_2287" data-name="Path 2287" d="M38.709,106.4H89.722a8.709,8.709,0,1,1,0,17.419H38.709a8.709,8.709,0,1,1,0-17.419" transform="translate(54.606 60.822)" fill="#b5b4b3"/>
            <path id="Path_2288" data-name="Path 2288" d="M38.087,158.4h38.57a8.087,8.087,0,1,1,0,16.175H38.087a8.087,8.087,0,1,1,0-16.175" transform="translate(54.606 73.52)" fill="#b5b4b3"/>
            <path id="Path_2289" data-name="Path 2289" d="M38.709,210.4H64.838a8.709,8.709,0,0,1,0,17.419H38.709a8.709,8.709,0,0,1,0-17.419" transform="translate(54.606 86.219)" fill="#b5b4b3"/>
            <path id="Path_2517" data-name="Path 2517" d="M187.516,199.611V155.385L175.376,177.5Z" transform="translate(123.18 90.213)" fill="#818080"/>
            <path id="Path_2518" data-name="Path 2518" d="M383.093,155.384V199.61l12.14-22.113Z" transform="translate(209.996 90.212)" fill="#818080"/>
            <path id="Path_2519" data-name="Path 2519" d="M158.648,143.582v78.294l23.719-39.147Z" transform="translate(116.187 85.28)" fill="#818080"/>
            <path id="Path_2520" data-name="Path 2520" d="M446.3,167.011c-1.659-1.27-4.386-3.7-5.52-6.7-3.312-8.749-7.373-22.245-22.84-25.276v36.412c11.752,3.813,10.694,19.707,17.285,25.371,4.264,3.664,7.97,3.817,8.026,3.819h.407a21.223,21.223,0,0,0-9.15,7.582C427,218.782,427.2,236.4,412.611,236.4c-17.931,0-15.5-18.995-23.013-29.525-4.277-6-7.994-6.229-8.028-6.23h-.4a23.159,23.159,0,0,0,9.15-4.648c6.453-5.564,7.222-20.3,16.567-24.334V134.693c-16.306,2.128-22.035,16.244-25.95,25.4a21.8,21.8,0,0,1-5.1,6.921H345.641a10.972,10.972,0,0,1-3.3-4.559c-2.06-6.394-4.641-16.723-16.25-16.723-10.8,0-14.293,10.175-16.624,16.58a14.348,14.348,0,0,1-3.017,4.7H277.472s-5.193-3.78-6.874-9c-3.75-11.641-8.448-30.446-29.583-30.446-19.66,0-26.022,18.526-30.265,30.185a26.62,26.62,0,0,1-6.192,9.261h-20.62v44.824h20.62s7.054,3.057,9.316,7.471c5.178,10.109,2.869,27.315,19.539,31.179v-32c-13.268-3.865-12.057-20.613-19.44-30.424-4.8-6.375-8.967-6.595-8.967-6.595h-.448a23.6,23.6,0,0,0,10.216-8.024c8.384-11.175,8.16-29.815,24.447-29.815,20.022,0,17.31,20.1,25.7,31.245,4.8,6.375,8.969,6.595,8.969,6.595h.448a23.59,23.59,0,0,0-10.218,8.023c-7.461,9.947-8.115,25.793-19.647,29.162v32.457c20.669-1.974,19.566-21.848,25.36-32.88a13.327,13.327,0,0,1,7.643-6.394h28.762v.119h.082a11.557,11.557,0,0,1,3.776,4.943c2.059,6.395,4.64,16.723,16.25,16.723,10.8,0,14.293-10.175,16.623-16.579a14.527,14.527,0,0,1,3.237-4.927v-.279H376.08c1.558,1.133,4.734,3.749,5.981,7.043,3.751,9.9,8.448,25.9,29.584,25.9,19.66,0,26.021-15.759,30.265-25.679a22.245,22.245,0,0,1,5.476-7.266H466.33V167.011Zm-106.337,11c-1.046,2.3-3.661,14.852-13.149,14.852-12.027,0-12.925-12.547-14.493-14.852a9.18,9.18,0,0,0-4.557-3.152h-.821s4.556-1.046,5.6-3.885,3.661-18.3,13.149-18.3c12.027,0,12.925,15.464,14.493,18.3a9.231,9.231,0,0,0,4.557,3.885h.822s-4.557.848-5.6,3.152" transform="translate(126.758 78.585)" fill="#e0e1e3"/>
            <path id="Path_2521" data-name="Path 2521" d="M225.086,192.507a22.266,22.266,0,0,1-6.257-.82v32a33.578,33.578,0,0,0,7.6.8c1.222,0,2.361-.068,3.456-.173V191.853a16.955,16.955,0,0,1-4.8.654" transform="translate(141.341 105.385)" fill="#818080"/>
            <path id="Path_2522" data-name="Path 2522" d="M346.5,168.6a18.473,18.473,0,0,1,5.729.832V133.019a34.961,34.961,0,0,0-6.741-.625h0a33.344,33.344,0,0,0-4.313.282v36.966A13.247,13.247,0,0,1,346.5,168.6" transform="translate(192.473 80.604)" fill="#818080"/>
            <path id="Path_2523" data-name="Path 2523" d="M293.923,120.143H281.242a3.545,3.545,0,1,1,0-7.09h12.681a3.545,3.545,0,1,1,0,7.09" transform="translate(165.945 72.52)" fill="#338fa7"/>
            <path id="Path_2524" data-name="Path 2524" d="M198.35,215.2H185.669a3.545,3.545,0,1,1,0-7.09H198.35a3.545,3.545,0,1,1,0,7.09" transform="translate(126.001 112.249)" fill="#eb404d"/>
            <path id="Path_2525" data-name="Path 2525" d="M198.35,143.641H185.669a3.545,3.545,0,0,1,0-7.09H198.35a3.545,3.545,0,1,1,0,7.09" transform="translate(126.001 82.341)" fill="#eb404d"/>
            <path id="Path_2526" data-name="Path 2526" d="M401.7,143.641H379.666a3.545,3.545,0,1,1,0-7.09H401.7a3.545,3.545,0,1,1,0,7.09" transform="translate(207.081 82.341)" fill="#338fa7"/>
            <path id="Path_2527" data-name="Path 2527" d="M392.348,149.859H379.667a3.545,3.545,0,1,1,0-7.09h12.681a3.545,3.545,0,0,1,0,7.09" transform="translate(207.082 84.94)" fill="#338fa7"/>
            <path id="Path_2528" data-name="Path 2528" d="M306.144,219.283H252a3.545,3.545,0,1,1,0-7.09h54.145a3.545,3.545,0,1,1,0,7.09" transform="translate(153.723 113.956)" fill="#eb404d"/>
            <path id="Path_2529" data-name="Path 2529" d="M341.648,226.149H252a3.545,3.545,0,1,1,0-7.09h89.649a3.545,3.545,0,1,1,0,7.09" transform="translate(153.723 116.825)" fill="#338fa7"/>
            <path id="Path_2530" data-name="Path 2530" d="M242.845,120.143H216.015a3.545,3.545,0,0,1,0-7.09h26.831a3.545,3.545,0,1,1,0,7.09" transform="translate(138.683 72.52)" fill="#eb404d"/>
            <path id="Path_2531" data-name="Path 2531" d="M363.481,120.143H336.651a3.545,3.545,0,1,1,0-7.09h26.831a3.545,3.545,0,1,1,0,7.09" transform="translate(189.103 72.52)" fill="#338fa7"/>
            <path id="Path_2532" data-name="Path 2532" d="M222.516,139.969H199.952a.709.709,0,0,1,0-1.418h22.564a.709.709,0,0,1,0,1.418" transform="translate(133.155 83.177)" fill="#002848"/>
            <path id="Path_2533" data-name="Path 2533" d="M222.516,211.528H199.952a.709.709,0,1,1,0-1.418h22.564a.709.709,0,1,1,0,1.418" transform="translate(133.155 113.085)" fill="#002848"/>
            <path id="Path_2534" data-name="Path 2534" d="M284.91,215.294a.709.709,0,0,1-.709-.709V173.823a.709.709,0,1,1,1.418,0v40.762a.709.709,0,0,1-.709.709" transform="translate(168.663 97.623)" fill="#002848"/>
            <path id="Path_2535" data-name="Path 2535" d="M268.551,216.134a.709.709,0,0,1-.709-.709V191.187h23.345a.709.709,0,1,1,0,1.418H269.26v22.821a.709.709,0,0,1-.709.709" transform="translate(161.826 105.176)" fill="#002848"/>
            <path id="Path_2536" data-name="Path 2536" d="M386.2,139.969H345.276a.709.709,0,1,1,0-1.418H386.2a.709.709,0,0,1,0,1.418" transform="translate(193.893 83.177)" fill="#002848"/>
            <path id="Path_2537" data-name="Path 2537" d="M149.848,199.242v-8.105h-2.316v-7.325a1.731,1.731,0,0,1,1.737-1.737H153.9a1.731,1.731,0,0,1,1.737,1.737v7.325h-2.316v8.105Zm1.737-18.933a2.125,2.125,0,1,1,1.49-.622,2.03,2.03,0,0,1-1.49.622" transform="translate(111.542 98.863)" fill="#a0a0a0"/>
            <path id="Path_2538" data-name="Path 2538" d="M149.848,219.812v-8.1h-2.316v-7.325a1.731,1.731,0,0,1,1.737-1.737H153.9a1.731,1.731,0,0,1,1.737,1.737v7.325h-2.316v8.1Zm1.737-18.932a2.125,2.125,0,1,1,1.49-.622,2.03,2.03,0,0,1-1.49.622" transform="translate(111.542 107.461)" fill="#a0a0a0"/>
            <path id="Path_2539" data-name="Path 2539" d="M149.848,157.4V149.3h-2.316V141.97a1.731,1.731,0,0,1,1.737-1.737H153.9a1.731,1.731,0,0,1,1.737,1.737V149.3h-2.316V157.4Zm1.737-18.933a2.125,2.125,0,1,1,1.49-.622,2.03,2.03,0,0,1-1.49.622" transform="translate(111.542 81.375)" fill="#a0a0a0"/>
            <path id="Path_2540" data-name="Path 2540" d="M149.848,177.97v-8.105h-2.316V162.54a1.731,1.731,0,0,1,1.737-1.737H153.9a1.731,1.731,0,0,1,1.737,1.737v7.325h-2.316v8.105Zm1.737-18.932a2.126,2.126,0,1,1,1.49-.623,2.03,2.03,0,0,1-1.49.623" transform="translate(111.542 89.973)" fill="#a0a0a0"/>
            <path id="Path_2541" data-name="Path 2541" d="M139.455,199.242v-8.105h-2.316v-7.325a1.731,1.731,0,0,1,1.737-1.737h4.631a1.731,1.731,0,0,1,1.737,1.737v7.325h-2.315v8.105Zm1.737-18.933a2.125,2.125,0,1,1,1.49-.622,2.03,2.03,0,0,1-1.49.622" transform="translate(107.199 98.863)" fill="#a0a0a0"/>
            <path id="Path_2542" data-name="Path 2542" d="M139.455,219.812v-8.1h-2.316v-7.325a1.731,1.731,0,0,1,1.737-1.737h4.631a1.731,1.731,0,0,1,1.737,1.737v7.325h-2.315v8.1Zm1.737-18.932a2.125,2.125,0,1,1,1.49-.622,2.03,2.03,0,0,1-1.49.622" transform="translate(107.199 107.461)" fill="#a0a0a0"/>
            <path id="Path_2543" data-name="Path 2543" d="M139.455,157.4V149.3h-2.316V141.97a1.731,1.731,0,0,1,1.737-1.737h4.631a1.731,1.731,0,0,1,1.737,1.737V149.3h-2.315V157.4Zm1.737-18.933a2.125,2.125,0,1,1,1.49-.622,2.03,2.03,0,0,1-1.49.622" transform="translate(107.199 81.375)" fill="#a0a0a0"/>
            <path id="Path_2544" data-name="Path 2544" d="M139.455,177.97v-8.105h-2.316V162.54a1.731,1.731,0,0,1,1.737-1.737h4.631a1.731,1.731,0,0,1,1.737,1.737v7.325h-2.315v8.105Zm1.737-18.932a2.125,2.125,0,1,1,1.49-.623,2.03,2.03,0,0,1-1.49.623" transform="translate(107.199 89.973)" fill="#a0a0a0"/>
            <path id="Path_2545" data-name="Path 2545" d="M128.693,199.242v-8.105h-2.316v-7.325a1.731,1.731,0,0,1,1.737-1.737h4.631a1.731,1.731,0,0,1,1.737,1.737v7.325h-2.316v8.105Zm1.737-18.933a2.125,2.125,0,1,1,1.49-.622,2.03,2.03,0,0,1-1.49.622" transform="translate(102.701 98.863)" fill="#a0a0a0"/>
            <path id="Path_2546" data-name="Path 2546" d="M128.693,219.812v-8.1h-2.316v-7.325a1.731,1.731,0,0,1,1.737-1.737h4.631a1.731,1.731,0,0,1,1.737,1.737v7.325h-2.316v8.1Zm1.737-18.932a2.125,2.125,0,1,1,1.49-.622,2.03,2.03,0,0,1-1.49.622" transform="translate(102.701 107.461)" fill="#a0a0a0"/>
            <path id="Path_2547" data-name="Path 2547" d="M128.693,157.4V149.3h-2.316V141.97a1.731,1.731,0,0,1,1.737-1.737h4.631a1.731,1.731,0,0,1,1.737,1.737V149.3h-2.316V157.4Zm1.737-18.933a2.125,2.125,0,1,1,1.49-.622,2.03,2.03,0,0,1-1.49.622" transform="translate(102.701 81.375)" fill="#a0a0a0"/>
            <path id="Path_2548" data-name="Path 2548" d="M128.693,177.97v-8.105h-2.316V162.54a1.731,1.731,0,0,1,1.737-1.737h4.631a1.731,1.731,0,0,1,1.737,1.737v7.325h-2.316v8.105Zm1.737-18.932a2.125,2.125,0,1,1,1.49-.623,2.03,2.03,0,0,1-1.49.623" transform="translate(102.701 89.973)" fill="#a0a0a0"/>
            <path id="Path_2549" data-name="Path 2549" d="M118.3,199.242v-8.105h-2.316v-7.325a1.731,1.731,0,0,1,1.737-1.737h4.631a1.731,1.731,0,0,1,1.737,1.737v7.325h-2.316v8.105Zm1.737-18.933a2.125,2.125,0,1,1,1.49-.622,2.03,2.03,0,0,1-1.49.622" transform="translate(98.358 98.863)" fill="#a0a0a0"/>
            <path id="Path_2550" data-name="Path 2550" d="M118.3,219.812v-8.1h-2.316v-7.325a1.731,1.731,0,0,1,1.737-1.737h4.631a1.731,1.731,0,0,1,1.737,1.737v7.325h-2.316v8.1Zm1.737-18.932a2.125,2.125,0,1,1,1.49-.622,2.03,2.03,0,0,1-1.49.622" transform="translate(98.358 107.461)" fill="#a0a0a0"/>
            <path id="Path_2551" data-name="Path 2551" d="M118.3,157.4V149.3h-2.316V141.97a1.731,1.731,0,0,1,1.737-1.737h4.631a1.731,1.731,0,0,1,1.737,1.737V149.3h-2.316V157.4Zm1.737-18.933a2.125,2.125,0,1,1,1.49-.622,2.03,2.03,0,0,1-1.49.622" transform="translate(98.358 81.375)" fill="#a0a0a0"/>
            <path id="Path_2552" data-name="Path 2552" d="M118.3,177.97v-8.105h-2.316V162.54a1.731,1.731,0,0,1,1.737-1.737h4.631a1.731,1.731,0,0,1,1.737,1.737v7.325h-2.316v8.105Zm1.737-18.932a2.126,2.126,0,1,1,1.49-.623,2.03,2.03,0,0,1-1.49.623" transform="translate(98.358 89.973)" fill="#a0a0a0"/>
            <path id="Path_2553" data-name="Path 2553" d="M107.474,199.242v-8.105h-2.316v-7.325a1.731,1.731,0,0,1,1.737-1.737h4.631a1.731,1.731,0,0,1,1.737,1.737v7.325h-2.316v8.105Zm1.737-18.933a2.125,2.125,0,1,1,1.49-.622,2.03,2.03,0,0,1-1.49.622" transform="translate(93.833 98.863)" fill="#a0a0a0"/>
            <path id="Path_2554" data-name="Path 2554" d="M107.474,219.812v-8.1h-2.316v-7.325a1.731,1.731,0,0,1,1.737-1.737h4.631a1.731,1.731,0,0,1,1.737,1.737v7.325h-2.316v8.1Zm1.737-18.932a2.125,2.125,0,1,1,1.49-.622,2.03,2.03,0,0,1-1.49.622" transform="translate(93.833 107.461)" fill="#a0a0a0"/>
            <path id="Path_2555" data-name="Path 2555" d="M107.474,157.4V149.3h-2.316V141.97a1.731,1.731,0,0,1,1.737-1.737h4.631a1.731,1.731,0,0,1,1.737,1.737V149.3h-2.316V157.4Zm1.737-18.933a2.125,2.125,0,1,1,1.49-.622,2.03,2.03,0,0,1-1.49.622" transform="translate(93.833 81.375)" fill="#a0a0a0"/>
            <path id="Path_2556" data-name="Path 2556" d="M107.474,177.97v-8.105h-2.316V162.54a1.731,1.731,0,0,1,1.737-1.737h4.631a1.731,1.731,0,0,1,1.737,1.737v7.325h-2.316v8.105Zm1.737-18.932a2.125,2.125,0,1,1,1.49-.623,2.03,2.03,0,0,1-1.49.623" transform="translate(93.833 89.973)" fill="#a0a0a0"/>
          </g>
        </g>
        <g id="Group_5250" data-name="Group 5250" transform="translate(49.768 36.082)">
          <g id="Group_5249" data-name="Group 5249" clip-path="url(#clip-path-4)">
            <path id="Path_2324" data-name="Path 2324" d="M54.023,33.264a5.9,5.9,0,1,1-5.9-5.9,5.905,5.905,0,0,1,5.9,5.9" transform="translate(10.309 6.681)" fill="#fff"/>
            <path id="Path_2325" data-name="Path 2325" d="M70.012,33.264a5.9,5.9,0,1,1-5.9-5.9,5.905,5.905,0,0,1,5.9,5.9" transform="translate(14.213 6.681)" fill="#fff"/>
            <path id="Path_2326" data-name="Path 2326" d="M86,33.264a5.9,5.9,0,1,1-5.9-5.9,5.905,5.905,0,0,1,5.9,5.9" transform="translate(18.118 6.681)" fill="#fff"/>
          </g>
        </g>
      </g>
    </g>
    <g id="Group_11627" data-name="Group 11627" transform="translate(0 364.222)">
      <ellipse id="Ellipse_148" data-name="Ellipse 148" cx="124.917" cy="124.916" rx="124.917" ry="124.916" transform="translate(0 0)" fill="#c7e7ef" opacity="0.158"/>
      <ellipse id="Ellipse_149" data-name="Ellipse 149" cx="106.112" cy="106.112" rx="106.112" ry="106.112" transform="translate(18.806 18.804)" fill="#c7e7ef" opacity="0.3"/>
      <ellipse id="Ellipse_150" data-name="Ellipse 150" cx="86.427" cy="86.427" rx="86.427" ry="86.427" transform="translate(38.49 38.49)" fill="#c7e7ef" opacity="0.825"/>
      <g id="Ellipse_151" data-name="Ellipse 151" transform="translate(38.49 38.49)" fill="none" stroke="#fff" stroke-width="2">
        <ellipse cx="86.427" cy="86.427" rx="86.427" ry="86.427" stroke="none"/>
        <ellipse cx="86.427" cy="86.427" rx="85.427" ry="85.427" fill="none"/>
      </g>
      <g transform="matrix(1, 0, 0, 1, 0, -364.22)" filter="url(#Ellipse_152)">
        <g id="Ellipse_152-2" data-name="Ellipse 152" transform="translate(38.58 402.71)" fill="none" stroke="#fff" stroke-width="2">
          <ellipse cx="86.427" cy="86.427" rx="86.427" ry="86.427" stroke="none"/>
          <ellipse cx="86.427" cy="86.427" rx="85.427" ry="85.427" fill="none"/>
        </g>
      </g>
    </g>
    <g id="Group_15152" data-name="Group 15152" transform="translate(78.5 436.845)">
      <g id="Group_11625" data-name="Group 11625" transform="translate(0 0)" clip-path="url(#clip-path-7)">
        <rect id="Rectangle_32209" data-name="Rectangle 32209" width="92.748" height="92.748" fill="url(#linear-gradient)"/>
      </g>
    </g>
  </g>
</svg>
