<svg id="Group_11855" data-name="Group 11855" xmlns="http://www.w3.org/2000/svg" xmlns:xlink="http://www.w3.org/1999/xlink" width="262.5" height="250.676" viewBox="0 0 262.5 250.676">
  <defs>
    <linearGradient id="linear-gradient" x1="-0.009" y1="1.01" x2="0.592" gradientUnits="objectBoundingBox">
      <stop offset="0" stop-color="#348fa7"/>
      <stop offset="0.496" stop-color="#587fab"/>
      <stop offset="0.985" stop-color="#ec404c"/>
      <stop offset="1" stop-color="#ec404c"/>
    </linearGradient>
    <clipPath id="clip-path">
      <path id="Path_9545" data-name="Path 9545" d="M100.883,217.37a32.606,32.606,0,1,0,32.6-32.61,32.636,32.636,0,0,0-32.6,32.61m104.4-147.933C180.939,75.962,155.869,82.464,143,101.749a60.775,60.775,0,0,0-7.631,17.225V77.682a2.481,2.481,0,1,0-4.962,0v41.286a60.786,60.786,0,0,0-7.624-17.218C109.92,82.464,84.85,75.962,60.5,69.437a2.482,2.482,0,0,0-1.286,4.794c24.349,6.524,47.968,13.072,59.442,30.27s11.753,46.817,11.753,76.771a2.31,2.31,0,0,0,.013.238,2.482,2.482,0,0,0,2.468,2.243,2.323,2.323,0,0,0,.239-.014,2.481,2.481,0,0,0,2.242-2.467c0-29.953.279-59.572,11.753-76.771s35.094-23.746,59.442-30.27a2.48,2.48,0,0,0,1.841-2.52,2.444,2.444,0,0,0-.084-.517,2.477,2.477,0,0,0-3.036-1.758M8.962,37.785A27.647,27.647,0,1,1,36.609,65.432,27.61,27.61,0,0,1,8.962,37.785M4,37.785A32.609,32.609,0,1,0,36.609,5.176,32.647,32.647,0,0,0,4,37.785m101.251,0A27.647,27.647,0,1,1,132.9,65.432a27.61,27.61,0,0,1-27.647-27.647m-4.962,0A32.609,32.609,0,1,0,132.9,5.176a32.647,32.647,0,0,0-32.609,32.609M201.54,36.6a27.647,27.647,0,1,1,27.647,27.647A27.6,27.6,0,0,1,201.54,36.6m-4.962,0A32.609,32.609,0,1,0,229.187,4a32.647,32.647,0,0,0-32.609,32.6" transform="translate(-4 -4)" fill="url(#linear-gradient)"/>
    </clipPath>
    <clipPath id="clip-path-2">
      <rect id="Rectangle_32332" data-name="Rectangle 32332" width="262.5" height="250.676" fill="url(#linear-gradient)"/>
    </clipPath>
  </defs>
  <g id="Group_11852" data-name="Group 11852" transform="translate(2.352 2.352)">
    <g id="Group_11851" data-name="Group 11851" clip-path="url(#clip-path)">
      <rect id="Rectangle_32331" data-name="Rectangle 32331" width="257.796" height="245.972" transform="translate(0 0)" fill="url(#linear-gradient)"/>
    </g>
  </g>
  <g id="Group_11854" data-name="Group 11854">
    <g id="Group_11853" data-name="Group 11853" clip-path="url(#clip-path-2)">
      <path id="Path_9546" data-name="Path 9546" d="M260.354,35.161H258.3a30.551,30.551,0,1,0-30.551,30.551A30.628,30.628,0,0,0,258.3,35.161h4.116A34.667,34.667,0,1,1,227.745.5a34.706,34.706,0,0,1,34.667,34.66Zm-4.962,0h2.058a29.7,29.7,0,1,1-29.7-29.7,29.71,29.71,0,0,1,29.7,29.7h-4.116A25.588,25.588,0,1,0,227.745,60.75a25.544,25.544,0,0,0,25.588-25.589ZM206.966,70.27l-2.055.111L204.9,70.3l0-.009,0-.006a.423.423,0,0,0-.406-.313l-.111.015h0c-24.411,6.5-48.913,13.059-61.1,31.466A58.741,58.741,0,0,0,135.91,118.1l-4.038,14.195V76.241a.423.423,0,1,0-.846,0v56.041l-4.037-14.193a58.748,58.748,0,0,0-7.357-16.639C107.441,83.043,82.938,76.48,58.527,69.984h0l-.111-.015a.423.423,0,0,0-.406.315L58,70.4a.423.423,0,0,0,.313.407h0c24.311,6.567,48.441,13.021,60.621,31.116,11.982,18.131,12.042,47.933,12.1,77.913v.025l0,.016a.423.423,0,0,0,.421.382h-.017l.042,0h.014a.423.423,0,0,0,.382-.42h0c.056-29.979.116-59.782,12.1-77.913,12.179-18.1,36.311-24.549,60.621-31.116h.005a.422.422,0,0,0,.313-.408v-.012l2.055-.111,2.056-.1q.005.109.005.222a4.539,4.539,0,0,1-3.375,4.386l.005,0C181.271,81.26,158.164,87.9,147.4,104.2c-10.967,16.265-11.463,45.7-11.407,75.628h0a4.539,4.539,0,0,1-4.1,4.516h.014c-.149.015-.3.023-.436.024h-.017a4.54,4.54,0,0,1-4.515-4.1l2.049-.2-2.046.227a4.242,4.242,0,0,1-.025-.466c.056-29.928-.44-59.364-11.407-75.628C104.735,87.9,81.628,81.26,57.242,74.778h0a4.54,4.54,0,0,1,2.352-8.769h0c24.285,6.553,49.923,13,63.464,33.157a62.834,62.834,0,0,1,7.892,17.8l-1.98.563H126.91V76.241a4.539,4.539,0,1,1,9.078,0v41.292H133.93l-1.979-.563a62.815,62.815,0,0,1,7.9-17.8C153.39,79,179.027,72.561,203.312,66.008h0a4.536,4.536,0,0,1,5.556,3.215l0-.016a4.537,4.537,0,0,1,.155.952v.012ZM164.652,215.929h-2.058a30.547,30.547,0,1,0-30.55,30.544,30.634,30.634,0,0,0,30.55-30.544h4.116a34.664,34.664,0,1,1-34.667-34.667,34.7,34.7,0,0,1,34.667,34.667Zm-.588-179.585h-2.058a30.551,30.551,0,1,0-30.55,30.551,30.634,30.634,0,0,0,30.55-30.551h4.116A34.667,34.667,0,1,1,131.456,1.676a34.705,34.705,0,0,1,34.667,34.667Zm-4.962,0h2.058a29.705,29.705,0,1,1-29.7-29.7,29.709,29.709,0,0,1,29.7,29.7h-4.116a25.589,25.589,0,1,0-25.588,25.588,25.55,25.55,0,0,0,25.588-25.588Zm-91.327,0H65.717a30.551,30.551,0,1,0-30.55,30.551,30.634,30.634,0,0,0,30.55-30.551h4.116A34.667,34.667,0,1,1,35.167,1.676,34.705,34.705,0,0,1,69.834,36.344Zm-4.962,0h2.058a29.705,29.705,0,1,1-29.7-29.7,29.709,29.709,0,0,1,29.7,29.7H60.756A25.589,25.589,0,1,0,35.167,61.932,25.55,25.55,0,0,0,60.756,36.344Z" transform="translate(-0.206 -0.206)" fill="url(#linear-gradient)"/>
    </g>
  </g>
</svg>
