<svg id="Group_11872" data-name="Group 11872" xmlns="http://www.w3.org/2000/svg" xmlns:xlink="http://www.w3.org/1999/xlink" width="114.553" height="114.553" viewBox="0 0 114.553 114.553">
  <defs>
    <linearGradient id="linear-gradient" x1="1.089" y1="-0.073" x2="-0.183" y2="1.255" gradientUnits="objectBoundingBox">
      <stop offset="0" stop-color="#348fa7"/>
      <stop offset="0.136" stop-color="#ec404c"/>
      <stop offset="0.724" stop-color="#587fab"/>
      <stop offset="1" stop-color="#ec404c"/>
    </linearGradient>
    <clipPath id="clip-path">
      <path id="Path_9590" data-name="Path 9590" d="M105.315,11.086h0ZM68.363,107.164a1.849,1.849,0,0,0,1.848-1.848v-5.089l29.563,6.57v4.061H14.782V106.8l29.562-6.57v5.089a1.849,1.849,0,0,0,1.848,1.848ZM48.039,88.687H66.516v14.781H48.039ZM3.7,79.449V73.906H110.859v5.543a5.55,5.55,0,0,1-5.543,5.543H9.239A5.55,5.55,0,0,1,3.7,79.449M57.278,59.124A12.942,12.942,0,0,1,70.064,70.21H44.492A12.943,12.943,0,0,1,57.278,59.124M39.439,41.864a34.828,34.828,0,0,1,9.105-3.77,1.848,1.848,0,0,0,1.348-1.409l1.5-7.122h11.78l1.5,7.122a1.847,1.847,0,0,0,1.349,1.41,34.825,34.825,0,0,1,9.105,3.769,1.851,1.851,0,0,0,1.953-.043l6.092-3.978,8.331,8.331-3.979,6.091a1.852,1.852,0,0,0-.043,1.953,34.846,34.846,0,0,1,3.77,9.105,1.848,1.848,0,0,0,1.409,1.349l7.122,1.5v4.043H84.892a27.582,27.582,0,0,0-.54-4.089,1.848,1.848,0,0,0-3.61.788,24.012,24.012,0,0,1,.455,3.3H73.8a16.622,16.622,0,0,0-33.04,0H33.351A24.008,24.008,0,0,1,78.083,60.049a1.847,1.847,0,1,0,3.2-1.849A27.7,27.7,0,0,0,29.658,70.211H14.783V66.168l7.122-1.5a1.846,1.846,0,0,0,1.41-1.349,34.839,34.839,0,0,1,3.769-9.105,1.851,1.851,0,0,0-.043-1.953l-3.978-6.092,8.331-8.331,6.091,3.979a1.856,1.856,0,0,0,1.953.043M34.4,3.7H50.913a7.318,7.318,0,0,0-1.027,3.7,7.32,7.32,0,0,0,1.027,3.7H42.5a1.848,1.848,0,0,0,0,3.7h62.82a5.549,5.549,0,0,1,5.543,5.543V70.21h-7.391V64.667A1.851,1.851,0,0,0,102,62.858l-7.484-1.572a38.618,38.618,0,0,0-3.289-7.947l4.179-6.4a1.849,1.849,0,0,0-.24-2.317L84.714,34.168a1.85,1.85,0,0,0-2.317-.24L76,38.107a38.468,38.468,0,0,0-7.947-3.289l-1.572-7.484a1.851,1.851,0,0,0-1.809-1.467H49.886a1.851,1.851,0,0,0-1.809,1.467l-1.572,7.484a38.616,38.616,0,0,0-7.947,3.289l-6.4-4.179a1.851,1.851,0,0,0-2.317.24L19.387,44.62a1.849,1.849,0,0,0-.24,2.317l4.18,6.4a38.436,38.436,0,0,0-3.289,7.947l-7.484,1.572a1.851,1.851,0,0,0-1.467,1.809V70.21H3.7V20.324a5.55,5.55,0,0,1,5.543-5.543H35.1a1.848,1.848,0,1,0,0-3.7H30.7Zm19.183,3.7a3.7,3.7,0,1,1,3.695,3.7,3.7,3.7,0,0,1-3.695-3.7m11.085,0A7.318,7.318,0,0,0,63.64,3.7H80.154l3.695,7.391H63.64a7.319,7.319,0,0,0,1.027-3.7M33.258,0A1.85,1.85,0,0,0,31.6,1.022l-5.03,10.064H9.238A9.248,9.248,0,0,0,0,20.324V79.448a9.248,9.248,0,0,0,9.238,9.238h35.1v7.757l-31.811,7.069a1.846,1.846,0,0,0-1.447,1.8v7.391a1.849,1.849,0,0,0,1.848,1.848H101.62a1.849,1.849,0,0,0,1.848-1.848v-7.391a1.846,1.846,0,0,0-1.447-1.8L70.21,96.443V88.686h35.1a9.248,9.248,0,0,0,9.238-9.238V20.324a9.248,9.248,0,0,0-9.238-9.238H87.981L82.947,1.022A1.843,1.843,0,0,0,81.3,0Z" fill="url(#linear-gradient)"/>
    </clipPath>
  </defs>
  <g id="Group_11871" data-name="Group 11871" clip-path="url(#clip-path)">
    <rect id="Rectangle_32345" data-name="Rectangle 32345" width="114.553" height="114.553" fill="url(#linear-gradient)"/>
  </g>
</svg>
