<svg xmlns="http://www.w3.org/2000/svg" xmlns:xlink="http://www.w3.org/1999/xlink" width="93.287" height="102.388" viewBox="0 0 93.287 102.388">
  <defs>
    <linearGradient id="linear-gradient" y1="0.998" x2="0.846" y2="0.078" gradientUnits="objectBoundingBox">
      <stop offset="0" stop-color="#348fa7"/>
      <stop offset="0.496" stop-color="#587fab"/>
      <stop offset="0.985" stop-color="#ec404c"/>
      <stop offset="1" stop-color="#ec404c"/>
    </linearGradient>
    <clipPath id="clip-path">
      <path id="Path_9466" data-name="Path 9466" d="M68.259,75.1h18.2v9.1h-18.2Zm4.55-11.378A4.323,4.323,0,0,1,74.054,60.3a5.372,5.372,0,0,1,6.612,0,4.324,4.324,0,0,1,1.244,3.413v4.551h-9.1ZM17.384,79.9C10.771,74.513,6.826,69.252,6.826,62.58V20.73c5.662-6.7,18.357-13.9,32.992-13.9s27.33,7.2,32.992,13.9V53.193A10.718,10.718,0,0,0,69.4,55.362a11.441,11.441,0,0,0-3.413,8.356v4.551H64.49a3.536,3.536,0,0,0-3.058,3.413v8.853c-6.036,4.759-13.877,9.35-21.615,14.4-8.086-5.277-16.3-10.05-22.433-15.04M39.818,0C22.458,0,7.753,8.177.711,17.246A3.444,3.444,0,0,0,0,19.321V62.58c0,9.41,5.725,16.655,13.048,22.613s16.5,11.016,24.886,16.6a3.3,3.3,0,0,0,3.768,0c6.619-4.414,13.714-8.485,20.015-12.942a3.553,3.553,0,0,0,3.129,2.169H89.874a3.547,3.547,0,0,0,3.413-3.413V71.682a3.547,3.547,0,0,0-3.413-3.413H88.737V63.717a11.442,11.442,0,0,0-3.413-8.356,11.1,11.1,0,0,0-5.688-2.844V19.343a3.462,3.462,0,0,0-.711-2.1C71.882,8.177,57.178,0,39.818,0Z" transform="translate(0 -0.001)" fill="url(#linear-gradient)"/>
    </clipPath>
  </defs>
  <g id="Group_11693" data-name="Group 11693" transform="translate(0 -0.001)">
    <g id="Group_11692" data-name="Group 11692" transform="translate(0 0.001)" clip-path="url(#clip-path)">
      <rect id="Rectangle_32240" data-name="Rectangle 32240" width="93.287" height="102.612" transform="translate(0 0)" fill="url(#linear-gradient)"/>
    </g>
  </g>
</svg>
