<svg xmlns="http://www.w3.org/2000/svg" xmlns:xlink="http://www.w3.org/1999/xlink" width="496" height="242.984" viewBox="0 0 496 242.984">
  <defs>
    <linearGradient id="linear-gradient" x1="-0.002" y1="1.004" x2="0.804" y2="0.118" gradientUnits="objectBoundingBox">
      <stop offset="0" stop-color="#348fa7"/>
      <stop offset="0.496" stop-color="#587fab"/>
      <stop offset="0.985" stop-color="#ec404c"/>
      <stop offset="1" stop-color="#ec404c"/>
    </linearGradient>
    <clipPath id="clip-path">
      <path id="Path_9588" data-name="Path 9588" d="M75.525,234.389V136.927a32.488,32.488,0,0,1,24.646-31.471l-.294-25.851,49.106,27.67-48.436,28.742-.295-24.754A26.76,26.76,0,0,0,81.2,136.927v97.462a2.837,2.837,0,0,1-5.674,0M97.068,74.843a5.673,5.673,0,0,0-2.676,4.924l.268,21.569a38.027,38.027,0,0,0-24.593,35.592v97.462a8.483,8.483,0,0,0,16.966,0V136.927A21.41,21.41,0,0,1,94.9,120.5l.187,15.6a5.672,5.672,0,0,0,2.863,4.843,5.763,5.763,0,0,0,2.676.723,5.493,5.493,0,0,0,2.864-.776l48.463-28.741a5.7,5.7,0,0,0-.214-9.795l-49.106-27.59a5.645,5.645,0,0,0-2.676-.722H99.94a5.537,5.537,0,0,0-2.872.8M54.01,72.006,4.9,99.516a5.647,5.647,0,0,0-.134,9.795L53.395,138a5.673,5.673,0,0,0,2.89.8,5.756,5.756,0,0,0,2.676-.722,5.672,5.672,0,0,0,2.863-4.87l.187-15.575a20.643,20.643,0,0,1,2.221,2.114v-7.574a26.94,26.94,0,0,0-7.761-3.827l-.295,24.781L7.741,104.44,56.847,76.93l-.294,25.69a33.021,33.021,0,0,1,7.68,3.025V99.329l-1.98-.83.268-21.221a1.534,1.534,0,0,0,0-.348c0-.045,0-.09,0-.135a5.62,5.62,0,0,0-5.674-5.565h-.061a5.35,5.35,0,0,0-2.776.776M73.465,4.837,45.313,53.6a5.621,5.621,0,0,0,4.951,8.456h19.7v53.521a46.852,46.852,0,0,1,5.647-7.868V56.432H50.264l28.1-48.784,28.1,48.784H81.2v45.974a40.383,40.383,0,0,1,5.647-3.72V62.078h19.615a5.646,5.646,0,0,0,4.951-8.483L83.259,4.837a5.645,5.645,0,0,0-9.794,0" transform="translate(-2 -2)" fill="url(#linear-gradient)"/>
    </clipPath>
    <clipPath id="clip-path-2">
      <rect id="Rectangle_32344" data-name="Rectangle 32344" width="154.743" height="242.984" fill="url(#linear-gradient)"/>
    </clipPath>
  </defs>
  <g id="Group_15124" data-name="Group 15124" transform="translate(-731 -1522.404)">
    <rect id="Rectangle_32464" data-name="Rectangle 32464" width="496" height="224" rx="105" transform="translate(731 1529.191)" fill="#f7f7f7"/>
    <g id="Group_12080" data-name="Group 12080" transform="translate(902 1522.404)">
      <g id="Group_11867" data-name="Group 11867" transform="translate(1.056 1.056)">
        <g id="Group_11866" data-name="Group 11866" clip-path="url(#clip-path)">
          <rect id="Rectangle_32343" data-name="Rectangle 32343" width="153.462" height="240.872" transform="translate(-0.8)" fill="url(#linear-gradient)"/>
        </g>
      </g>
      <g id="Group_11869" data-name="Group 11869">
        <g id="Group_11868" data-name="Group 11868" clip-path="url(#clip-path-2)">
          <path id="Path_9589" data-name="Path 9589" d="M151.032,101.645l-.388.691-49.106-27.59a4.852,4.852,0,0,0-2.3-.621l.013-.792,0,.792h-.015a4.752,4.752,0,0,0-2.463.688l-.411-.678.418.673a4.881,4.881,0,0,0-2.3,4.145v.095l.275,22.126-.519.2A37.235,37.235,0,0,0,70.151,136.2v.014h0v97.464h0a7.7,7.7,0,0,0,7.691,7.69v0h0v0h0a7.69,7.69,0,0,0,7.69-7.69h0V136.214a22.2,22.2,0,0,1,8.159-17.039l1.274-1.04.207,17.246v0a4.881,4.881,0,0,0,2.464,4.167l-.392.688.384-.692a4.962,4.962,0,0,0,2.308.623l-.016.792.007-.792h.042a4.7,4.7,0,0,0,2.408-.664h0l48.463-28.741.4.681-.42-.671a4.909,4.909,0,0,0,2.3-4.16v-.083h0a4.853,4.853,0,0,0-2.485-4.187h0l.388-.691.387-.691a6.437,6.437,0,0,1,3.3,5.554v.1a6.493,6.493,0,0,1-3.048,5.5l-.008,0-48.472,28.746h0a6.283,6.283,0,0,1-3.22.888H99.9a6.54,6.54,0,0,1-3.045-.822l0,0,0,0a6.466,6.466,0,0,1-3.263-5.52v0L93.4,119.8l.792-.01.5.614a20.618,20.618,0,0,0-7.577,15.823v97.456h0a9.275,9.275,0,0,1-9.274,9.274h0a9.276,9.276,0,0,1-9.275-9.274h0V136.2A38.819,38.819,0,0,1,93.672,99.887l.28.741-.792.01-.268-21.569v-.117a6.465,6.465,0,0,1,3.051-5.49l0,0,0,0a6.338,6.338,0,0,1,3.284-.917h.03a6.441,6.441,0,0,1,3.051.824l49.106,27.59h0ZM99.839,135.31l-.792.009-.295-24.753.792-.009.228.758a25.969,25.969,0,0,0-18.489,24.867v.035h0v97.466a3.629,3.629,0,0,1-3.629,3.625h0a3.63,3.63,0,0,1-3.625-3.625h0V136.218a33.28,33.28,0,0,1,25.247-32.238l.191.769-.792.009-.309-27.224,51.5,29.017-50.794,30.14-.016-1.372.792-.009-.4-.681,47.258-28.042L99.978,80.263l.285,25.1-.608.152a31.7,31.7,0,0,0-24.046,30.7v97.461h0a2.045,2.045,0,0,0,2.043,2.043h0a2.044,2.044,0,0,0,2.044-2.043h0v-97.5A27.552,27.552,0,0,1,99.316,109.8l1.008-.3.307,25.805-.792.01-.4-.681ZM44.605,58.561l-.685.4a6.44,6.44,0,0,1,0-6.47h0L72.071,3.734v0a6.439,6.439,0,0,1,11.169,0h0L111.39,52.491v0a6.438,6.438,0,0,1-5.566,9.673h-.082l.012-.792v.792H86.93V98.45l-.414.225a39.516,39.516,0,0,0-5.536,3.647L79.7,103.329v-48.4h24.683L77.655,8.526,50.926,54.932H75.69V107.3l-.2.225a46,46,0,0,0-5.55,7.735l-1.48,2.592V62.136h-18.9v-.792l.014.792h-.112a6.413,6.413,0,0,1-5.536-3.177l0,0v0l.685-.4.684-.4a4.828,4.828,0,0,0,4.168,2.392H70.044v54.313h-.792l-.688-.393a47.632,47.632,0,0,1,5.741-8L74.9,107h-.792V56.516H48.185L77.655,5.352l29.469,51.164H81.283V101.7h-.792l-.49-.623a41.061,41.061,0,0,1,5.757-3.792l.379.7h-.792v-37.4h20.478a4.854,4.854,0,0,0,4.2-7.294l0-.007L81.866,4.526v0a4.853,4.853,0,0,0-8.42,0v0L45.29,53.286h0a4.854,4.854,0,0,0,0,4.877h0v0ZM61.545,97.792l.306-.73,2.466,1.033v8.178l-1.172-.641a32.236,32.236,0,0,0-7.5-2.952l-.6-.154.285-24.943L8.62,103.751,54.694,131.04l.291-24.467,1.011.309a27.739,27.739,0,0,1,7.989,3.939l.332.237V121.1l-1.379-1.524a19.87,19.87,0,0,0-2.136-2.033l.5-.613.792.01-.187,15.575v0a6.464,6.464,0,0,1-3.263,5.55l0,0,0,0a6.541,6.541,0,0,1-3.044.822h-.019a6.463,6.463,0,0,1-3.293-.915l0,0L3.66,109.285h0a6.437,6.437,0,0,1-2.26-8.821l.051-.085-.051.085a6.435,6.435,0,0,1,2.413-2.347h0l49.106-27.51.387.691-.411-.677a6.145,6.145,0,0,1,3.188-.891h.067l-.007.792-.007-.792h.062A6.412,6.412,0,0,1,62.6,76.08v.151l-.792-.009.787-.09a2.28,2.28,0,0,1,0,.528l-.787-.09.792.01L62.337,97.8l-.792-.01.306-.73-.306.73-.792-.01.268-21.261,0-.04,0-.084,0-.085-.006-.049v-.168h0a4.827,4.827,0,0,0-4.826-4.78H56.08a4.562,4.562,0,0,0-2.366.662l-.012.007L4.584,99.5h0a4.851,4.851,0,0,0-1.819,1.77h0a4.853,4.853,0,0,0,1.7,6.651h0l48.627,28.688h0a4.88,4.88,0,0,0,2.486.691l0,.792-.016-.792a4.961,4.961,0,0,0,2.307-.623l.384.692-.392-.688a4.88,4.88,0,0,0,2.464-4.19h0l.208-17.223,1.274,1.044a21.461,21.461,0,0,1,2.306,2.195l-.587.532h-.792v-7.574h.792l-.46.645a26.154,26.154,0,0,0-7.532-3.714l.232-.757.792.01L56.245,133.8l-50.8-30.087,51.5-28.851-.31,27.059-.792-.009.2-.767a33.824,33.824,0,0,1,7.865,3.1l-.38.7h-.792V99.148l-1.987-.832.007-.534Z" transform="translate(-0.236 -0.236)" fill="url(#linear-gradient)"/>
        </g>
      </g>
    </g>
  </g>
</svg>
