<svg xmlns="http://www.w3.org/2000/svg" xmlns:xlink="http://www.w3.org/1999/xlink" width="110.561" height="110.561" viewBox="0 0 110.561 110.561">
  <defs>
    <linearGradient id="linear-gradient" x1="-1.351" y1="2.335" x2="0.403" y2="-0.334" gradientUnits="objectBoundingBox">
      <stop offset="0" stop-color="#184c74"/>
      <stop offset="0.448" stop-color="#338da6"/>
      <stop offset="1" stop-color="#eb404d"/>
    </linearGradient>
  </defs>
  <g id="Group_11462" data-name="Group 11462" transform="translate(0 110.561)">
    <path id="Path_9311" data-name="Path 9311" d="M0-26.72A55.28,55.28,0,0,1,55.28-82a55.28,55.28,0,0,1,55.28,55.28,55.28,55.28,0,0,1-55.28,55.28A55.28,55.28,0,0,1,0-26.72Z" transform="translate(0 -28.561)" fill="#dde4ed" fill-rule="evenodd"/>
    <g id="Group_12131" data-name="Group 12131" transform="translate(25 -85.561)">
      <path id="Union_9" data-name="Union 9" d="M15245.975-20786.881a.97.97,0,0,1-.973-.973v-17.584a.972.972,0,0,1,.973-.975h13.273l5.572-5.576a.984.984,0,0,1,.69-.289.98.98,0,0,1,.979.979v4.887h2.93a.977.977,0,0,1,.979.975v17.584a.975.975,0,0,1-.979.973Zm.979-1.951h21.487v-15.629h-2.93a.98.98,0,0,1-.979-.977v-3.506l-4.19,4.2a.972.972,0,0,1-.69.287h-12.7Zm51.771-24.418a.98.98,0,0,1-.979-.979v-1.951h-8.789v1.951a.98.98,0,0,1-.979.979h-5.86a.98.98,0,0,1-.979-.979v-1.951h-11.72v1.951a.98.98,0,0,1-.979.979h-5.859a.976.976,0,0,1-.974-.979v-1.951h-8.795v1.951a.976.976,0,0,1-.978.979h-5.86a.975.975,0,0,1-.973-.979v-5.859a.975.975,0,0,1,.973-.979h5.86a.976.976,0,0,1,.978.979v1.951h8.795v-1.951a.976.976,0,0,1,.974-.979h5.859a.98.98,0,0,1,.979.979v1.951h11.72v-1.951a.98.98,0,0,1,.979-.979h5.86a.98.98,0,0,1,.979.979v1.951h8.789v-1.951a.98.98,0,0,1,.979-.979h5.86a.98.98,0,0,1,.979.979v5.859a.98.98,0,0,1-.979.979Zm.979-1.957h3.9v-3.908h-3.9Zm-16.606,0h3.9v-3.908h-3.9Zm-19.536,0h3.908v-3.908h-3.908Zm-16.606,0h3.908v-3.908h-3.908Zm37.116-7.811v-4.887h-2.931a.976.976,0,0,1-.973-.979v-17.58a.976.976,0,0,1,.973-.979h23.445a.98.98,0,0,1,.979.979v17.58a.98.98,0,0,1-.979.979h-13.273l-5.572,5.576a.97.97,0,0,1-.691.283A.975.975,0,0,1,15284.069-20823.018Zm-1.952-6.838h2.93a.975.975,0,0,1,.979.973v3.506l4.191-4.2a1,1,0,0,1,.69-.281h12.7v-15.629h-21.488Z" transform="translate(-15245 20847.439)" stroke="rgba(0,0,0,0)" stroke-width="1" fill="url(#linear-gradient)"/>
    </g>
  </g>
</svg>
