<svg xmlns="http://www.w3.org/2000/svg" xmlns:xlink="http://www.w3.org/1999/xlink" width="240.111" height="239.607" viewBox="0 0 240.111 239.607">
  <defs>
    <linearGradient id="linear-gradient" x1="0.163" y1="1.096" x2="0.928" y2="-0.055" gradientUnits="objectBoundingBox">
      <stop offset="0" stop-color="#348fa7"/>
      <stop offset="0.496" stop-color="#587fab"/>
      <stop offset="0.985" stop-color="#ec404c"/>
      <stop offset="1" stop-color="#ec404c"/>
    </linearGradient>
    <clipPath id="clip-path">
      <path id="Path_9544" data-name="Path 9544" d="M32.21,188.852a18.568,18.568,0,0,1,18.544-18.547H69.3v18.547a18.546,18.546,0,0,1-37.091,0m138.6,0V170.305h18.541a18.546,18.546,0,1,1-18.541,18.547m-69.3-41.973h87.842a41.971,41.971,0,1,1-41.966,41.973V170.305h14.641v18.547a27.328,27.328,0,1,0,27.325-27.332H101.511ZM78.086,188.852V101.51H92.727v87.342A41.971,41.971,0,1,1,50.754,146.88H69.3V161.52H50.754a27.33,27.33,0,1,0,27.332,27.332m23.425-58.11V101.51H138.6V138.1H101.511ZM32.21,50.757a18.546,18.546,0,1,1,37.091,0V69.3H50.754A18.565,18.565,0,0,1,32.21,50.757m138.6,10.079V50.757A18.544,18.544,0,1,1,189.353,69.3H170.812ZM8.784,50.757a41.971,41.971,0,1,1,83.942,0V69.3H78.086V50.757A27.33,27.33,0,1,0,50.754,78.085H138.6V92.726H50.754A42.018,42.018,0,0,1,8.784,50.757m138.6,61.688V50.757a41.97,41.97,0,1,1,41.966,41.969H170.812V78.085h18.541a27.33,27.33,0,1,0-27.325-27.328V138.1H147.387ZM189.353,0A50.812,50.812,0,0,0,138.6,50.757V69.3H101.511V50.757A50.755,50.755,0,1,0,50.754,101.51H69.3V138.1H50.754a50.755,50.755,0,1,0,50.757,50.757V170.305H138.6v18.547A50.754,50.754,0,1,0,189.353,138.1H170.812V101.51h18.541A50.756,50.756,0,1,0,189.353,0Z" transform="translate(0 0.001)" fill="url(#linear-gradient)"/>
    </clipPath>
  </defs>
  <g id="Group_11850" data-name="Group 11850" transform="translate(0 0.001)">
    <g id="Group_11849" data-name="Group 11849" transform="translate(0 -0.001)" clip-path="url(#clip-path)">
      <rect id="Rectangle_32330" data-name="Rectangle 32330" width="240.111" height="239.607" transform="translate(0 0)" fill="url(#linear-gradient)"/>
    </g>
  </g>
</svg>
