<svg id="Group_11691" data-name="Group 11691" xmlns="http://www.w3.org/2000/svg" xmlns:xlink="http://www.w3.org/1999/xlink" width="100.832" height="100.832" viewBox="0 0 100.832 100.832">
  <defs>
    <linearGradient id="linear-gradient" x1="-0.015" y1="1.015" x2="0.875" y2="0.111" gradientUnits="objectBoundingBox">
      <stop offset="0" stop-color="#348fa7"/>
      <stop offset="0.496" stop-color="#587fab"/>
      <stop offset="0.985" stop-color="#ec404c"/>
      <stop offset="1" stop-color="#ec404c"/>
    </linearGradient>
    <clipPath id="clip-path">
      <path id="Path_9460" data-name="Path 9460" d="M8.679,55.461a46.782,46.782,0,1,1,46.782,46.782A46.834,46.834,0,0,1,8.679,55.461m-2.179,0A48.961,48.961,0,1,0,55.461,6.5,48.961,48.961,0,0,0,6.5,55.461" transform="translate(-6.5 -6.5)" fill="url(#linear-gradient)"/>
    </clipPath>
    <clipPath id="clip-path-2">
      <rect id="Rectangle_32235" data-name="Rectangle 32235" width="100.832" height="100.832" fill="url(#linear-gradient)"/>
    </clipPath>
    <clipPath id="clip-path-3">
      <path id="Path_9462" data-name="Path 9462" d="M174.879,173.5a14.263,14.263,0,0,1,2.955.277l.073.018.074.013c.009,0,.219.037.333.065a6.137,6.137,0,0,1,4.479,7.435l-6.079,24.505-.047.189-.012.195a4.844,4.844,0,0,0,1.207,3.773,5.688,5.688,0,0,0,4.34,1.584,12.735,12.735,0,0,0,1.818-.141,15.941,15.941,0,0,1-9.733,3.2c-.419,0-.805-.015-1.15-.039l-1.956-.338c-.069-.012-.139-.022-.209-.039a6.144,6.144,0,0,1-4.479-7.435l5.781-23.3a5.64,5.64,0,0,0-.7-5.032,5.481,5.481,0,0,0-4.584-1.872,12.816,12.816,0,0,0-1.835.144,15.943,15.943,0,0,1,9.729-3.2Zm0-2.179h0a18.077,18.077,0,0,0-11.259,3.8,2.2,2.2,0,0,0-.734,1.1l-.742,2.484a.587.587,0,0,0,.734.736,15.2,15.2,0,0,1,4.106-.713c2.16,0,4,.874,3.175,4.2h0l-5.781,23.3a8.316,8.316,0,0,0,6.069,10.074h0c.135.034.27.056.4.079l-.044.06a15.91,15.91,0,0,0,3.478.341,18.078,18.078,0,0,0,11.259-3.805,2.194,2.194,0,0,0,.734-1.1l.742-2.484a.588.588,0,0,0-.734-.737,15.1,15.1,0,0,1-4.085.708c-1.883,0-3.526-.663-3.373-3.038l6.079-24.505a8.316,8.316,0,0,0-6.069-10.074c-.161-.04-.481-.1-.481-.1a15.929,15.929,0,0,0-3.283-.342h-.2" transform="translate(-162.118 -171.315)" fill="url(#linear-gradient)"/>
    </clipPath>
    <clipPath id="clip-path-5">
      <path id="Path_9464" data-name="Path 9464" d="M212.726,88.914a6.522,6.522,0,1,1,6.522,6.522,6.529,6.529,0,0,1-6.522-6.522m-2.179,0a8.7,8.7,0,1,0,17.4,0h0a8.7,8.7,0,0,0-17.4,0" transform="translate(-210.547 -80.214)" fill="url(#linear-gradient)"/>
    </clipPath>
  </defs>
  <g id="Group_11680" data-name="Group 11680" transform="translate(1.455 1.455)">
    <g id="Group_11679" data-name="Group 11679" clip-path="url(#clip-path)">
      <rect id="Rectangle_32234" data-name="Rectangle 32234" width="97.921" height="97.921" fill="url(#linear-gradient)"/>
    </g>
  </g>
  <g id="Group_11682" data-name="Group 11682">
    <g id="Group_11681" data-name="Group 11681" clip-path="url(#clip-path-2)">
      <path id="Path_9461" data-name="Path 9461" d="M50.8,2.679A48.125,48.125,0,1,1,2.679,50.8v0h0A48.178,48.178,0,0,1,50.8,2.679l0,2.686a45.491,45.491,0,0,0-45.44,45.44h0A45.439,45.439,0,1,0,50.8,5.365V2.679Zm0-.836V3.186A47.617,47.617,0,1,0,98.421,50.8,47.679,47.679,0,0,0,50.8,3.186V.5A50.3,50.3,0,1,1,.5,50.8,50.3,50.3,0,0,1,50.8.5Z" transform="translate(-0.388 -0.388)" fill="url(#linear-gradient)"/>
    </g>
  </g>
  <g id="Group_11684" data-name="Group 11684" transform="translate(36.294 38.353)">
    <g id="Group_11683" data-name="Group 11683" clip-path="url(#clip-path-3)">
      <rect id="Rectangle_32236" data-name="Rectangle 32236" width="25.069" height="45.544" transform="translate(-0.07 -0.035)" fill="url(#linear-gradient)"/>
    </g>
  </g>
  <g id="Group_11686" data-name="Group 11686">
    <g id="Group_11685" data-name="Group 11685" clip-path="url(#clip-path-2)">
      <path id="Path_9463" data-name="Path 9463" d="M172.154,170h.163a15.012,15.012,0,0,1,2.954.293l.017,0,.063.015.047.008.01,0,.01,0s.209.034.364.072h0a6.914,6.914,0,0,1,5.051,8.384l-.76-.189h.784v.1l-6.1,24.6-.03.121-.008.125v.018l0,.019a4.061,4.061,0,0,0,1.012,3.163l-.583.523.544-.563a4.906,4.906,0,0,0,3.407,1.377q.167,0,.335-.012l.024,0h.025a12,12,0,0,0,1.707-.132l3.06-.459-2.473,1.86a16.724,16.724,0,0,1-10.052,3.358h-.152c-.439,0-.842-.016-1.2-.041l-.04,0-2-.345h0c-.057-.01-.148-.022-.267-.052h0a6.922,6.922,0,0,1-5.05-8.383h0l5.79-23.336.011-.032a4.857,4.857,0,0,0-.607-4.333l.644-.447-.592.513a4.7,4.7,0,0,0-3.549-1.62q-.189,0-.38.015l-.029,0h-.029a12,12,0,0,0-1.723.135l-3.07.465,2.482-1.866A16.724,16.724,0,0,1,172.011,170h.159l-.015,1.567h-.144A15.157,15.157,0,0,0,162.9,174.6l-.471-.626-.117-.775a13.572,13.572,0,0,1,1.948-.153l0,.784-.063-.781c.169-.014.338-.021.506-.021a6.266,6.266,0,0,1,4.733,2.161l.028.032.024.035a6.425,6.425,0,0,1,.8,5.731l-.742-.253.76.189-5.782,23.3h0a5.354,5.354,0,0,0,3.908,6.486h0c.021.006.07.014.151.027h0l1.956.338-.133.772.053-.782c.329.022.7.037,1.1.037h.152a15.158,15.158,0,0,0,9.11-3.044l.471.626.116.775a13.582,13.582,0,0,1-1.93.15l0-.784.054.782q-.222.015-.443.015a6.473,6.473,0,0,1-4.5-1.817l-.02-.02-.019-.021a5.632,5.632,0,0,1-1.4-4.384l.779.087-.782-.05.013-.195,0-.07.064-.258,6.079-24.505.761.189h-.784v-.1l.023-.093a5.346,5.346,0,0,0-3.907-6.485h0c-.073-.018-.256-.05-.3-.058l.154-.768-.133.772-.074-.013-.028,0-.1-.025.188-.761-.154.768a13.463,13.463,0,0,0-2.646-.263h-.146L172.154,170Zm.009-1.4-.007.784H172a17.293,17.293,0,0,0-10.615,3.641l-.481-.619.491.611a1.411,1.411,0,0,0-.472.707v0l-.744,2.492v0l-.187-.058h.2a.2.2,0,0,1-.009.058l-.187-.058h0l.058-.187a.2.2,0,0,1,.137.187h-.2l.058-.187h0l-.058.187v-.2a.2.2,0,0,1,.058.009l-.058.187v0l-.058-.188a.19.19,0,0,1,.058-.009v.2l-.058-.188.231.749-.239-.746a15.988,15.988,0,0,1,4.318-.75h.027a5,5,0,0,1,2.8.7,3.209,3.209,0,0,1,1.359,2.812,6.924,6.924,0,0,1-.225,1.659l-.76-.189-.554-.554h0l1.993-1.993-6.461,26.04a7.524,7.524,0,0,0,5.5,9.125h0c.094.024.21.043.349.067l1.24.214-.783,1.079-.634-.46.162-.767a15.143,15.143,0,0,0,3.121.325h.358a17.3,17.3,0,0,0,10.616-3.641l.481.619-.491-.611a1.408,1.408,0,0,0,.472-.707v0l.744-2.492,0,0,.186.058h-.195a.2.2,0,0,1,.009-.058l.186.058h0l-.058.187a.2.2,0,0,1-.137-.187h.2l-.058.187.058-.187v.2a.2.2,0,0,1-.058-.009l.058-.187v0l.058.189a.2.2,0,0,1-.058.009v-.2l.058.189-.231-.749.239.746a15.89,15.89,0,0,1-4.3.745h-.027a5.008,5.008,0,0,1-2.8-.7,3.214,3.214,0,0,1-1.362-2.818q0-.172.012-.35l0-.07,6.1-24.573a7.523,7.523,0,0,0-5.5-9.125l-.6-.148v-.613h.784l-.188.761c-.107-.027-.427-.084-.428-.085l-.013,0-.013,0a15.136,15.136,0,0,0-3.119-.325h-.2l.007-.784-.009-.784h.207a16.7,16.7,0,0,1,3.442.359l-.162.767.135-.772c.01,0,.319.055.535.107l.6.147v.613h-.784l.189-.76a9.09,9.09,0,0,1,6.641,11.023l-6.079,24.505-.76-.189.782.051q-.008.131-.008.249c.049,1.6.892,1.853,2.6,1.954v.784l-.026-.783a14.319,14.319,0,0,0,3.873-.671h.008a1.371,1.371,0,0,1,1.713,1.718l-.748-.233.751.224-.742,2.484,0-.006a2.976,2.976,0,0,1-1,1.492l0,0,0,0a18.863,18.863,0,0,1-11.578,3.971h-.169l.007-.784.01.784h-.205a16.708,16.708,0,0,1-3.444-.359l-1.182-.249.754-1.038.634.46-.133.772c-.131-.023-.285-.047-.461-.091h0a9.092,9.092,0,0,1-6.641-11.023l5.781-23.3.76.189.554.554h0L166,182.761l.679-2.736a5.385,5.385,0,0,0,.179-1.282c-.049-1.6-.887-1.846-2.593-1.947v-.784l.027.783a14.415,14.415,0,0,0-3.895.676h-.008a1.37,1.37,0,0,1-.811,0h0a1.371,1.371,0,0,1-.9-1.717l.748.234-.751-.224.742-2.484,0,.006a2.976,2.976,0,0,1,1-1.491l0,0,0,0A18.86,18.86,0,0,1,172,167.816h.17l-.007.784-.009-.784Z" transform="translate(-123.108 -130.247)" fill="url(#linear-gradient)"/>
    </g>
  </g>
  <g id="Group_11688" data-name="Group 11688" transform="translate(47.136 17.958)">
    <g id="Group_11687" data-name="Group 11687" clip-path="url(#clip-path-5)">
      <rect id="Rectangle_32238" data-name="Rectangle 32238" width="17.401" height="17.401" transform="translate(0 0)" fill="url(#linear-gradient)"/>
    </g>
  </g>
  <g id="Group_11690" data-name="Group 11690">
    <g id="Group_11689" data-name="Group 11689" clip-path="url(#clip-path-2)">
      <path id="Path_9465" data-name="Path 9465" d="M216.531,78.893a7.305,7.305,0,0,1,7.305,7.3h-.78l.775-.086a.54.54,0,0,1,0,.086h-.78l.78-.043V86.2a7.305,7.305,0,0,1-14.611,0h0a7.313,7.313,0,0,1,7.3-7.3l0,1.567a5.745,5.745,0,0,0-5.739,5.739h0a5.738,5.738,0,1,0,11.476,0h.784l-.779.086c-.008-.086,0-.087,0-.087a5.746,5.746,0,0,0-5.738-5.738V78.893Zm0-1.4v.784a7.917,7.917,0,1,0,7.917,7.917h0a7.928,7.928,0,0,0-7.917-7.917V76.714a9.484,9.484,0,0,1,9.484,9.484h0a9.484,9.484,0,1,1-9.484-9.484Z" transform="translate(-160.695 -59.54)" fill="url(#linear-gradient)"/>
    </g>
  </g>
</svg>
