<svg id="Group_12079" data-name="Group 12079" xmlns="http://www.w3.org/2000/svg" xmlns:xlink="http://www.w3.org/1999/xlink" width="220.685" height="255.906" viewBox="0 0 220.685 255.906">
  <defs>
    <linearGradient id="linear-gradient" y1="1" x2="0.57" y2="-0.033" gradientUnits="objectBoundingBox">
      <stop offset="0" stop-color="#184c74"/>
      <stop offset="0.448" stop-color="#338da6"/>
      <stop offset="1" stop-color="#eb404d"/>
    </linearGradient>
    <clipPath id="clip-path">
      <path id="Path_9701" data-name="Path 9701" d="M81.7,200.838,98.48,186.933l-4.491,61.477H91Zm40.5-14.093,16.808,13.939-9.317,47.723-2.986,0Zm-14.05-7.813,2.3-1.9,2.08,1.724,5.072,69.657H103.092Zm-99.1,8.149a14.589,14.589,0,0,1,3.915-9.688,20.193,20.193,0,0,1,10.105-5.876l16.717-4.129L34.67,183.045a3.216,3.216,0,0,0,.618,3.074,4.746,4.746,0,0,0,3.217,1.625l11.275,1.119L39.369,204.356a3.169,3.169,0,0,0-.145,3.4l22.969,40.65H9.078Zm172.426,20.671a3.165,3.165,0,0,0-.145-3.4l-10.412-15.494,11.276-1.119a4.745,4.745,0,0,0,3.218-1.624,3.213,3.213,0,0,0,.615-3.074l-5.122-15.655,16.717,4.129h0a20.172,20.172,0,0,1,10.1,5.877,14.585,14.585,0,0,1,3.917,9.687l-.029,61.332H158.507ZM61.079,184.09a4.609,4.609,0,0,0-3.5-2.017l-12.77-1.264,5.223-15.949,1.118-.275.127-.036,13.5-3.335,17.05,87.2H72.191l-23.755-42.1,12.569-18.7v0a3.181,3.181,0,0,0,.074-3.527m87.019,17.1a3.162,3.162,0,0,0,.423-2.158l7.393-37.822,13.5,3.335.128.036,1.118.275,5.224,15.964-12.771,1.264,0,0a4.609,4.609,0,0,0-3.5,2.016,3.182,3.182,0,0,0,.074,3.527l12.569,18.7L148.5,248.409h-9.626ZM117,171.8,135.99,156.3l11.179,2.763L140.8,191.548ZM73.548,159.05l11.595-2.863,18.8,15.589-24.02,19.918ZM90.7,150.174V137.448a66.1,66.1,0,0,0,19.65,2.96h0A66.152,66.152,0,0,0,130,137.459v13.17l-19.522,15.945ZM54.4,104.73c.514.105,1.028.189,1.548.264v0c3.542,12.063,12.783,22.449,25.659,28.839v15.4l-27.184,6.706Zm84.666,44.488V133.83c12.91-6.4,22.168-16.821,25.7-28.92.508-.085,1.021-.186,1.525-.294l-.013,51.326ZM166.25,94.174V74.711a16.5,16.5,0,0,0,5.478-3.718,11.416,11.416,0,0,1,4.521,5.234,13.823,13.823,0,0,1-.272,11.18,17.828,17.828,0,0,1-9.812,9.266c.054-.83.084-1.66.084-2.5M44.172,87.412c-2.888-6.62-.829-13.513,4.574-16.6A16.352,16.352,0,0,0,54.4,74.716V94.179c0,.905.037,1.8.1,2.693a17.769,17.769,0,0,1-10.326-9.46M48.764,70.8h0M86.919,127.72c-14.5-6.919-23.428-19.707-23.428-33.545h0V76.222H92.21a4.954,4.954,0,0,0,3.52-1.386l15.828-16.1L124.75,74.6a4.872,4.872,0,0,0,3.736,1.624H157.2V94.176c0,13.838-8.931,26.626-23.429,33.545a55.466,55.466,0,0,1-46.857,0m-32.5-65.244L54.4,53.735c0-16.517,10.658-31.781,27.963-40.039a66.206,66.206,0,0,1,55.925,0c17.3,8.258,27.963,23.522,27.963,40.039v8.741c-.007,3.44-3.373,6.232-7.534,6.248H130.906l-15.28-18.368a4.83,4.83,0,0,0-3.554-1.617,4.986,4.986,0,0,0-3.7,1.378L90.051,68.724H61.98c-4.171-.006-7.551-2.8-7.557-6.248M110.347,0a75.722,75.722,0,0,0-32.5,7.2c-20.109,9.6-32.5,27.335-32.5,46.53v8.747a6.944,6.944,0,0,0,.073,1.239c-10.019,4.529-14.389,15.725-9.752,26.26l0,0a25.266,25.266,0,0,0,9.674,11.115v57.1L20.5,164.328a29.49,29.49,0,0,0-14.772,8.588A21.313,21.313,0,0,0,0,187.075v65.082a3.46,3.46,0,0,0,1.33,2.652,5.059,5.059,0,0,0,3.2,1.1H216.15a5.056,5.056,0,0,0,3.206-1.1,3.453,3.453,0,0,0,1.328-2.651V187.075a21.308,21.308,0,0,0-5.722-14.159,29.5,29.5,0,0,0-14.774-8.588h0l-24.849-6.137V100.736a25.25,25.25,0,0,0,9.183-10.771,20.139,20.139,0,0,0,.285-16.289,19.336,19.336,0,0,0-9.559-9.763,11.688,11.688,0,0,0,.091-1.449V53.728c0-19.2-12.388-36.935-32.5-46.53A75.718,75.718,0,0,0,110.347,0Z" transform="translate(0 0)" fill="url(#linear-gradient)"/>
    </clipPath>
  </defs>
  <g id="Group_12078" data-name="Group 12078" transform="translate(0 0)" clip-path="url(#clip-path)">
    <rect id="Rectangle_32463" data-name="Rectangle 32463" width="220.685" height="255.906" transform="translate(0 0)" fill="url(#linear-gradient)"/>
  </g>
</svg>
