<svg id="Group_11730" data-name="Group 11730" xmlns="http://www.w3.org/2000/svg" xmlns:xlink="http://www.w3.org/1999/xlink" width="123.18" height="102.65" viewBox="0 0 123.18 102.65">
  <defs>
    <linearGradient id="linear-gradient" y1="1" x2="0.956" y2="0.076" gradientUnits="objectBoundingBox">
      <stop offset="0" stop-color="#348fa7"/>
      <stop offset="0.496" stop-color="#587fab"/>
      <stop offset="0.985" stop-color="#ec404c"/>
      <stop offset="1" stop-color="#ec404c"/>
    </linearGradient>
    <clipPath id="clip-path">
      <path id="Path_9507" data-name="Path 9507" d="M49.926,47.923a2.053,2.053,0,0,0,.051,2.9l8.71,8.711-8.71,8.711a2.053,2.053,0,0,0,2.9,2.9l8.71-8.711,8.71,8.711a2.053,2.053,0,0,0,2.9-2.9l-8.71-8.711,8.71-8.711.051-.05A2.053,2.053,0,0,0,70.3,47.923l-8.71,8.711-8.71-8.711-.051-.051a2.053,2.053,0,0,0-2.9.051M36.954,59.537A24.636,24.636,0,1,1,61.59,84.173,24.636,24.636,0,0,1,36.954,59.537m-4.106,0A28.742,28.742,0,1,0,61.59,30.795,28.742,28.742,0,0,0,32.848,59.537M14.371,8.212a2.053,2.053,0,0,0,0,4.106h65.7a2.053,2.053,0,1,0,0-4.106Zm80.067,2.053a4.106,4.106,0,1,0,4.106-4.106,4.106,4.106,0,0,0-4.106,4.106m10.265,0a4.106,4.106,0,1,0,4.106-4.106,4.106,4.106,0,0,0-4.106,4.106M4.106,96.491V20.53H119.074V96.491a2.055,2.055,0,0,1-2.053,2.053H6.159a2.055,2.055,0,0,1-2.053-2.053m0-90.332A2.055,2.055,0,0,1,6.159,4.106H117.021a2.055,2.055,0,0,1,2.053,2.053V16.424H4.106ZM6.159,0A6.166,6.166,0,0,0,0,6.159V96.491a6.166,6.166,0,0,0,6.159,6.159H117.021a6.166,6.166,0,0,0,6.159-6.159V6.159A6.166,6.166,0,0,0,117.021,0Z" fill="url(#linear-gradient)"/>
    </clipPath>
  </defs>
  <g id="Group_11729" data-name="Group 11729" clip-path="url(#clip-path)">
    <rect id="Rectangle_32258" data-name="Rectangle 32258" width="123.18" height="102.183" transform="translate(0 0.233)" fill="url(#linear-gradient)"/>
  </g>
</svg>
