<svg xmlns="http://www.w3.org/2000/svg" xmlns:xlink="http://www.w3.org/1999/xlink" width="496" height="255.99" viewBox="0 0 496 255.99">
  <defs>
    <linearGradient id="linear-gradient" y1="1" x2="0.746" y2="0.051" gradientUnits="objectBoundingBox">
      <stop offset="0" stop-color="#348fa7"/>
      <stop offset="0.37" stop-color="#587fab"/>
      <stop offset="0.689" stop-color="#8c698a"/>
      <stop offset="1" stop-color="#ec404c"/>
    </linearGradient>
    <clipPath id="clip-path">
      <path id="Path_9702" data-name="Path 9702" d="M167.378,236.3a9.846,9.846,0,1,1,9.846,9.846,9.856,9.856,0,0,1-9.846-9.846m-88.609,0v-9.846a9.846,9.846,0,1,1,19.692,0V236.3a9.846,9.846,0,0,1-19.692,0m59.076,0v-9.846a9.846,9.846,0,0,1,19.692,0V236.3a9.846,9.846,0,0,1-19.692,0m-29.538,0v-14.77a9.846,9.846,0,1,1,19.692,0V236.3a9.846,9.846,0,0,1-19.692,0M9.846,221.529V113.222a4.923,4.923,0,0,1,4.918-4.923H34.456a4.932,4.932,0,0,1,4.928,4.923V221.529a4.929,4.929,0,0,1-4.928,4.923H14.764a4.924,4.924,0,0,1-4.918-4.923m39.384-19.692V123.068a24.642,24.642,0,0,1,24.61-24.615h10.4L66.1,143.715a24.613,24.613,0,1,0,46.256,16.837L127.8,118.146H236.3a9.846,9.846,0,0,1,0,19.692H177.229v9.846h49.226a9.846,9.846,0,0,1,0,19.692H177.229v9.846h49.226a9.846,9.846,0,1,1,0,19.692H177.229v9.846h39.379a9.846,9.846,0,0,1,0,19.692h-22.43c-3.416-4.923-9.7-9.846-16.955-9.846a19.562,19.562,0,0,0-11.022,3.387,19.473,19.473,0,0,0-31.193-8.482,19.531,19.531,0,0,0-33.723,0A19.548,19.548,0,0,0,68.967,225.96a24.653,24.653,0,0,1-19.737-24.123m34.958-35.82A14.757,14.757,0,0,1,75.3,147.236l27.726-69.174,7.6-18.963a14.836,14.836,0,0,1,17.512-8.714l5.981,2.088,16.762,6.282.143-.384,67.3,23.478s6.7,5.361,8.478,9.156a15.582,15.582,0,0,1,.521,11.987L225.4,108.3H120.91L103.118,157.19a14.732,14.732,0,0,1-18.929,8.827m147.888-89.8-94.5-32.97-4.573-1.713c-.458-.173-.926-.222-1.389-.364l-10.062-3.51a5.1,5.1,0,0,1-2.974-2.629,4.525,4.525,0,0,1-.133-3.534l6.961-18.4a5.377,5.377,0,0,1,6.814-2.944L242.751,48.725a5.055,5.055,0,0,1,2.968,2.619,4.556,4.556,0,0,1,.138,3.54l-6.966,18.393a5.213,5.213,0,0,1-4.935,3.265,5.685,5.685,0,0,1-1.879-.32M116.2,9.617l-6.961,18.4a14.307,14.307,0,0,0,.418,11.175A14.669,14.669,0,0,0,112.5,43.2a24.344,24.344,0,0,0-11.013,12.234l-7.6,18.959-5.7,14.213H73.841A34.428,34.428,0,0,0,45.5,103.514a14.673,14.673,0,0,0-11.043-5.061H14.764A14.783,14.783,0,0,0,0,113.222V221.529A14.783,14.783,0,0,0,14.764,236.3H34.456a14.76,14.76,0,0,0,14.223-10.993c5.233,5.607,10.4,9.457,20.243,10.6v.395a19.611,19.611,0,0,0,34.462,12.888,19.432,19.432,0,0,0,29.538,0,19.432,19.432,0,0,0,29.538,0,19.571,19.571,0,0,0,14.769,6.8c10.861,0,19.692-9.846,19.692-19.692h19.692a19.684,19.684,0,0,0,16.31-30.715,19.518,19.518,0,0,0,6.424-33.285,19.522,19.522,0,0,0,3.422-25.792A19.643,19.643,0,0,0,236.3,108.3h-.428l.7-1.935a25.345,25.345,0,0,0-.852-19.52c-.094-.206-.241-.374-.34-.576A15.038,15.038,0,0,0,248.1,76.758l6.966-18.393a14.3,14.3,0,0,0-.423-11.18A14.833,14.833,0,0,0,246,39.431L135.472.859A15.312,15.312,0,0,0,130.414,0,15.159,15.159,0,0,0,116.2,9.617" transform="translate(0 0)" fill="url(#linear-gradient)"/>
    </clipPath>
  </defs>
  <g id="Group_15125" data-name="Group 15125" transform="translate(-67 -1948.005)">
    <rect id="Rectangle_32465" data-name="Rectangle 32465" width="496" height="224" rx="105" transform="translate(67 1964)" fill="#f7f7f7"/>
    <g id="Group_12082" data-name="Group 12082" transform="translate(186.5 1948.005)">
      <g id="Group_12081" data-name="Group 12081" transform="translate(0 0)" clip-path="url(#clip-path)">
        <rect id="Rectangle_32466" data-name="Rectangle 32466" width="256.446" height="255.991" transform="translate(0 0)" fill="url(#linear-gradient)"/>
      </g>
    </g>
  </g>
</svg>
