<svg id="Group_12077" data-name="Group 12077" xmlns="http://www.w3.org/2000/svg" xmlns:xlink="http://www.w3.org/1999/xlink" width="303.252" height="251.967" viewBox="0 0 303.252 251.967">
  <defs>
    <linearGradient id="linear-gradient" x1="0.345" y1="1.257" x2="0.5" y2="-0.075" gradientUnits="objectBoundingBox">
      <stop offset="0" stop-color="#184c74"/>
      <stop offset="0.448" stop-color="#338da6"/>
      <stop offset="1" stop-color="#eb404d"/>
    </linearGradient>
    <clipPath id="clip-path">
      <path id="Path_9698" data-name="Path 9698" d="M112.255,229.369l-1.749-4.61h83.37l-1.75,4.61a7.443,7.443,0,0,1-.862,1.747H113.116a7.466,7.466,0,0,1-.861-1.747m79.151,8.812c4.886,0,6.638-4.569,7.3-6.287l2.75-7.134h94.363V236.5a8.045,8.045,0,0,1-8.026,8.035H16.582A8.044,8.044,0,0,1,8.558,236.5V224.759h94.368l2.749,7.134c.667,1.719,2.388,6.287,7.3,6.287ZM153.8,184.559c73.929-38.1,73.512-63.228,72.485-123.936q-.042-2.594-.084-5.243h49.715A9.078,9.078,0,0,1,285,64.456V208.618a9.08,9.08,0,0,1-9.081,9.079H28.443a9.074,9.074,0,0,1-9.054-9.084V64.456a9.072,9.072,0,0,1,9.048-9.077H78.18q-.041,2.647-.084,5.243c-1.027,60.709-1.471,85.839,72.484,123.936a3.488,3.488,0,0,0,3.221,0M85.428,38.42c15.3-2.625,28.855-12.875,39.463-29.855h54.6c10.581,16.98,24.132,27.23,39.463,29.855.027,7.959.139,15.246.278,22.328.5,30.274.863,50.278-7.554,67.507-8.442,17.313-25.717,31.629-59.487,49.19-33.77-17.56-51.044-31.877-59.486-49.19-8.415-17.229-8.054-37.233-7.553-67.507h0c.14-7.083.25-14.369.278-22.328M122.891,1.5a3.553,3.553,0,0,0-3.027,1.724c-7.138,12-19.607,26.7-38.325,28.6a3.521,3.521,0,0,0-3.165,3.508c0,4.524-.028,8.826-.084,12.98H28.441A16.162,16.162,0,0,0,12.305,64.456V208.613a16.2,16.2,0,0,0,2.8,9.084H5.027A3.531,3.531,0,0,0,1.5,221.229V236.5a15.113,15.113,0,0,0,15.082,15.094H287.8a15.114,15.114,0,0,0,15.079-15.1V221.227a3.532,3.532,0,0,0-3.525-3.53H289.271a16.208,16.208,0,0,0,2.8-9.084V64.456a16.168,16.168,0,0,0-16.162-16.141H226.09c-.056-4.155-.083-8.457-.083-12.98a3.522,3.522,0,0,0-3.166-3.508c-18.719-1.9-31.187-16.6-38.325-28.6A3.565,3.565,0,0,0,181.462,1.5Z" transform="translate(-1.5 -1.501)" fill="url(#linear-gradient)"/>
    </clipPath>
    <clipPath id="clip-path-2">
      <rect id="Rectangle_32459" data-name="Rectangle 32459" width="303.252" height="251.967" fill="url(#linear-gradient)"/>
    </clipPath>
    <clipPath id="clip-path-3">
      <path id="Path_9700" data-name="Path 9700" d="M261.912,98.246l-41.823,41.822L200.5,120.482a3.746,3.746,0,1,0-5.3,5.3l24.884,24.885,47.12-47.12a3.745,3.745,0,1,0-5.3-5.3" transform="translate(-194.108 -97.149)" fill="url(#linear-gradient)"/>
    </clipPath>
  </defs>
  <g id="Group_12072" data-name="Group 12072" transform="translate(0.936 0.937)">
    <g id="Group_12071" data-name="Group 12071" clip-path="url(#clip-path)">
      <rect id="Rectangle_32458" data-name="Rectangle 32458" width="301.379" height="250.094" transform="translate(0 0)" fill="url(#linear-gradient)"/>
    </g>
  </g>
  <g id="Group_12074" data-name="Group 12074">
    <g id="Group_12073" data-name="Group 12073" clip-path="url(#clip-path-2)">
      <path id="Path_9699" data-name="Path 9699" d="M298.979,217.321v.624H287.715l.664-.975a15.576,15.576,0,0,0,2.7-8.734h0V64.08h0a15.542,15.542,0,0,0-15.538-15.518H225.1l-.008-.616c-.055-4.157-.083-8.462-.083-12.989v0a2.9,2.9,0,0,0-2.6-2.882c-19.037-1.948-31.619-16.837-38.8-28.9l0,0a2.945,2.945,0,0,0-2.52-1.423H122.519a2.932,2.932,0,0,0-2.5,1.422v0c-7.179,12.068-19.762,26.956-38.8,28.9a2.9,2.9,0,0,0-2.6,2.883H78.3l.322,0v0H78.3l.322,0v.007c0,4.526-.027,8.831-.083,12.989l-.008.616H28.066A15.538,15.538,0,0,0,12.554,64.081h0V208.237h0a15.581,15.581,0,0,0,2.7,8.735l.663.975H4.652a2.907,2.907,0,0,0-2.9,2.907v15.272h0a14.489,14.489,0,0,0,14.459,14.471H287.422a14.489,14.489,0,0,0,14.457-14.473h0V220.85h0a2.907,2.907,0,0,0-2.9-2.905h0V216.7a4.157,4.157,0,0,1,4.148,4.153h0v15.272h0a15.738,15.738,0,0,1-15.7,15.72H16.2A15.738,15.738,0,0,1,.5,236.125h0V220.853A4.156,4.156,0,0,1,4.65,216.7H14.735v.624l-.516.351a16.83,16.83,0,0,1-2.913-9.434h0V64.079h0A16.787,16.787,0,0,1,28.063,47.315H77.914v.624l-.624-.008c.056-4.152.083-8.451.083-12.972H78l-.624.007v-.011A4.147,4.147,0,0,1,81.1,30.83c18.4-1.857,30.756-16.362,37.851-28.3v0h0A4.18,4.18,0,0,1,122.512.5h58.575a4.193,4.193,0,0,1,3.589,2.027v0h0c7.1,11.936,19.451,26.443,37.851,28.3a4.146,4.146,0,0,1,3.727,4.124v0c0,4.521.028,8.821.083,12.972l-.624.008v-.624h49.823a16.792,16.792,0,0,1,16.787,16.764h0V208.237h0a16.826,16.826,0,0,1-2.913,9.434l-.516-.351V216.7H298.98ZM84.775,60.372l-.624-.012c.139-7.08.25-14.363.277-22.319l0-.524.517-.089c15.087-2.588,28.491-12.693,39.04-29.57l.184-.293h55.294l.184.294c10.52,16.876,23.923,26.981,39.039,29.569l.517.088,0,.525c.028,7.955.139,15.239.278,22.319h0v0c.112,6.818.218,13.118.218,18.988,0,20.185-1.244,35.307-7.836,48.8-8.542,17.508-25.955,31.89-59.76,49.469l-.288.15-.288-.15c-33.8-17.579-51.217-31.961-59.76-49.469-6.589-13.5-7.834-28.622-7.835-48.81,0-5.868.106-12.166.219-18.981l.624.01V61h-.64l.012-.636.624.012v-.624h.638l-.011.635c-.113,6.815-.219,13.108-.219,18.961,0,20.15,1.257,35.058,7.708,48.261,8.343,17.118,25.478,31.369,59.214,48.91l-.288.554-.288-.554c33.736-17.541,50.871-31.792,59.214-48.909,6.452-13.2,7.711-28.108,7.709-48.255,0-5.855-.106-12.149-.219-18.967v0c-.139-7.083-.25-14.374-.278-22.339l.624,0-.106.616C202.93,36,189.229,25.6,178.588,8.52l.53-.33v.624h-54.6V8.189l.529.331C114.375,25.6,100.675,36,85.157,38.659l-.106-.616.624,0c-.027,7.964-.139,15.255-.277,22.339l-.624-.012v0ZM19.014,64.08H18.39v0a9.7,9.7,0,0,1,9.67-9.7H78.438l-.01.634q-.041,2.648-.084,5.243c-.114,6.7-.22,12.96-.22,18.849.082,47.5,6.665,70.578,72.366,104.523l0,0h0a2.86,2.86,0,0,0,2.645,0h0c65.695-33.954,72.283-57.04,72.364-104.565,0-5.877-.106-12.125-.219-18.806q-.041-2.595-.083-5.243l-.01-.634h50.35a9.7,9.7,0,0,1,9.7,9.7V208.242a9.7,9.7,0,0,1-9.7,9.7h-.01l.009-.624v.624H28.067a9.7,9.7,0,0,1-9.677-9.7v-.012h0V64.08h1.249V208.238h0v.009a8.45,8.45,0,0,0,8.431,8.449H275.547l-.007.542V216.7h.007l-.007.542V216.7A8.456,8.456,0,0,0,284,208.242V64.08a8.454,8.454,0,0,0-8.454-8.452H225.826V55l.624-.009q.041,2.647.083,5.242c.113,6.681.219,12.934.219,18.826.081,47.637-7.153,71.821-73.04,105.675h0a4.11,4.11,0,0,1-3.8,0h0C84.026,150.894,76.795,126.714,76.876,79.1c0-5.9.107-12.172.22-18.869q.042-2.594.084-5.242L77.8,55v.624H28.064a8.448,8.448,0,0,0-8.426,8.448v0ZM193.5,224.383l.584.222-1.75,4.61-.584-.222.591.2a8.058,8.058,0,0,1-.933,1.893l-.185.277H112.407l-.185-.277a8.037,8.037,0,0,1-.934-1.893l.591-.2-.584.222-2.07-5.456H194.4l-.321.846-.584-.222v.624H111.035l1.432,3.775,0,.011a6.8,6.8,0,0,0,.789,1.6l-.519.347v-.624h78.148v.624l-.519-.346a6.819,6.819,0,0,0,.789-1.6l0-.01,1.754-4.621.584.222v0Zm101.947,11.739h.624a8.669,8.669,0,0,1-8.649,8.658H16.2a8.668,8.668,0,0,1-8.645-8.658h0V223.759h95.42l2.9,7.535h0c.681,1.746,2.281,5.912,6.722,5.888H191.03c4.409.026,6.044-4.147,6.722-5.888h0l2.9-7.533h95.415v12.363h-1.249V225.007h-93.31l-2.6,6.735h0c-.654,1.695-2.525,6.66-7.886,6.686H112.6c-5.39-.024-7.234-5-7.886-6.686h0l-2.6-6.736H8.808v11.114h0a7.419,7.419,0,0,0,7.4,7.411H287.42a7.419,7.419,0,0,0,7.4-7.411h.624Z" transform="translate(-0.188 -0.188)" fill="url(#linear-gradient)"/>
    </g>
  </g>
  <g id="Group_12076" data-name="Group 12076" transform="translate(121.181 60.65)">
    <g id="Group_12075" data-name="Group 12075" clip-path="url(#clip-path-3)">
      <rect id="Rectangle_32460" data-name="Rectangle 32460" width="74.93" height="53.514" transform="translate(-0.366 0)" fill="url(#linear-gradient)"/>
    </g>
  </g>
</svg>
