<svg id="Group_11783" data-name="Group 11783" xmlns="http://www.w3.org/2000/svg" xmlns:xlink="http://www.w3.org/1999/xlink" width="93.217" height="93.222" viewBox="0 0 93.217 93.222">
  <defs>
    <linearGradient id="linear-gradient" x1="-0.005" y1="1.005" x2="0.381" gradientUnits="objectBoundingBox">
      <stop offset="0" stop-color="#184c74"/>
      <stop offset="0.448" stop-color="#338da6"/>
      <stop offset="1" stop-color="#eb404d"/>
    </linearGradient>
    <clipPath id="clip-path">
      <path id="Path_9531" data-name="Path 9531" d="M65.641,16.888a1.27,1.27,0,0,0,1.3,1.3H76.2L50.169,44.211a1.271,1.271,0,0,0,0,1.833,1.285,1.285,0,0,0,.906.38h.012a1.263,1.263,0,0,0,.912-.38h.006l25.9-25.9v8.981a1.3,1.3,0,0,0,2.6,0V16.889a1.281,1.281,0,0,0-1.3-1.3H66.938a1.279,1.279,0,0,0-1.3,1.3M4.6,55.215H19.122V75.878a1.288,1.288,0,0,0,1.3,1.3H41.089V91.708H4.6Zm17.119,0H41.088V74.584H21.715Zm0-50.622H91.713V74.585H43.681V53.922a1.272,1.272,0,0,0-1.3-1.3H21.72ZM19.122,3.3v49.33H3.3A1.279,1.279,0,0,0,2,53.93V93.017a1.272,1.272,0,0,0,1.3,1.3H42.385a1.272,1.272,0,0,0,1.3-1.3V77.188h49.33a1.272,1.272,0,0,0,1.3-1.3V3.3a1.272,1.272,0,0,0-1.3-1.3L20.425,2a1.281,1.281,0,0,0-1.3,1.3" transform="translate(-2 -2)" fill="url(#linear-gradient)"/>
    </clipPath>
    <clipPath id="clip-path-2">
      <rect id="Rectangle_32288" data-name="Rectangle 32288" width="93.217" height="93.222" fill="url(#linear-gradient)"/>
    </clipPath>
  </defs>
  <g id="Group_11780" data-name="Group 11780" transform="translate(0.454 0.454)">
    <g id="Group_11779" data-name="Group 11779" clip-path="url(#clip-path)">
      <rect id="Rectangle_32287" data-name="Rectangle 32287" width="92.309" height="92.315" transform="translate(0)" fill="url(#linear-gradient)"/>
    </g>
  </g>
  <g id="Group_11782" data-name="Group 11782">
    <g id="Group_11781" data-name="Group 11781" clip-path="url(#clip-path-2)">
      <path id="Path_9532" data-name="Path 9532" d="M19.265.84v.34a.939.939,0,0,0-.963.957v49.67H2.138a.937.937,0,0,0-.957.963V91.858a.93.93,0,0,0,.957.957H41.225a.93.93,0,0,0,.957-.957V75.687h49.67a.93.93,0,0,0,.957-.957V2.14a.93.93,0,0,0-.957-.957l-72.587,0V.5L91.852.5A1.626,1.626,0,0,1,93.49,2.14V74.73a1.625,1.625,0,0,1-1.638,1.638H42.862v15.49A1.626,1.626,0,0,1,41.225,93.5H2.138A1.625,1.625,0,0,1,.5,91.858V52.771a1.631,1.631,0,0,1,1.638-1.643H17.622V2.138A1.632,1.632,0,0,1,19.265.5ZM20.56,3.432v-.34H90.893V73.766H42.181v-21a.93.93,0,0,0-.957-.957h-21V3.092h.34v.34h.34V51.124H41.224a1.626,1.626,0,0,1,1.638,1.638V73.085H90.213V3.773H20.56v-.34h0ZM65.778,14.425v.34a.96.96,0,0,0,0,1.92H75.862L49.25,43.292a.955.955,0,0,0,.668,1.631h.009a.921.921,0,0,0,.672-.28l.1-.1H50.7L77.082,18.166v9.8a.957.957,0,1,0,1.915,0V15.729a.939.939,0,0,0-.957-.963H65.778v-.68H78.039a1.632,1.632,0,0,1,1.638,1.643V27.968a1.638,1.638,0,0,1-3.276,0V19.809L50.986,45.224H50.84v-.34l.24.241a1.608,1.608,0,0,1-1.152.478h-.015a1.629,1.629,0,0,1-1.144-2.793l25.45-25.445H65.778a1.641,1.641,0,0,1,0-3.281ZM3.436,54.055v-.34H18.3v21a.946.946,0,0,0,.963.963h21V90.888H3.1V53.715h.34v.34h.34V90.208H39.589V76.362H19.266a1.637,1.637,0,0,1-1.643-1.643V54.4H3.436v-.34h0Zm17.119,0v-.34H40.268v20.05H20.215V53.715h.34v.34h.34V73.084H39.587V54.4H20.555v-.34h0Z" transform="translate(-0.387 -0.387)" fill="url(#linear-gradient)"/>
    </g>
  </g>
</svg>
