<svg xmlns="http://www.w3.org/2000/svg" xmlns:xlink="http://www.w3.org/1999/xlink" width="75.999" height="75.991" viewBox="0 0 75.999 75.991">
  <defs>
    <linearGradient id="linear-gradient" y1="1" x2="0.562" y2="0.122" gradientUnits="objectBoundingBox">
      <stop offset="0" stop-color="#184c74"/>
      <stop offset="0.448" stop-color="#338da6"/>
      <stop offset="1" stop-color="#eb404d"/>
    </linearGradient>
    <clipPath id="clip-path">
      <path id="Path_9742" data-name="Path 9742" d="M59.044,63.262l-4.939-3.7-1.8,2.47,7.219,5.414.9-1.092,9.119-10.639-2.28-1.994Zm-10.4-2.469A12.158,12.158,0,1,1,60.8,72.951,12.136,12.136,0,0,1,48.643,60.793m-3.04,0a15.2,15.2,0,1,0,15.2-15.2,15.22,15.22,0,0,0-15.2,15.2M54.01,26.264A22.349,22.349,0,0,0,60.8,21.8v8.6a6.319,6.319,0,0,1-1.995,4.322,18.973,18.973,0,0,1-6.032,3.989c-5.248,2.351-12.675,3.847-20.85,3.847s-15.6-1.5-20.85-3.847a18.975,18.975,0,0,1-6.032-3.989A6.319,6.319,0,0,1,3.049,30.4a1.127,1.127,0,0,0,0-.285V21.8A22.35,22.35,0,0,0,9.84,26.264C15.611,28.853,23.382,30.4,31.925,30.4S48.24,28.853,54.01,26.264M11.075,23.51a18.989,18.989,0,0,1-6.032-3.989A6.322,6.322,0,0,1,3.049,15.2v-.143a6.392,6.392,0,0,1,1.995-4.179,18.975,18.975,0,0,1,6.032-3.99C16.324,4.536,23.75,3.04,31.925,3.04s15.6,1.5,20.85,3.847a18.973,18.973,0,0,1,6.032,3.99A6.319,6.319,0,0,1,60.8,15.2a6.322,6.322,0,0,1-1.995,4.322,18.986,18.986,0,0,1-6.032,3.989c-5.248,2.35-12.675,3.847-20.85,3.847s-15.6-1.5-20.85-3.847M31.925,0C23.382,0,15.611,1.544,9.84,4.132a21.922,21.922,0,0,0-7.029,4.7,9.448,9.448,0,0,0-2.8,6.032,1.465,1.465,0,0,0,0,.238V30.111a1.127,1.127,0,0,0,0,.285V45.309a1.127,1.127,0,0,0,0,.285V59.273a9.312,9.312,0,0,0,2.8,6.364,21.928,21.928,0,0,0,7.029,4.7c5.771,2.588,13.542,4.132,22.085,4.132a78.312,78.312,0,0,0,12.4-1.092,1.52,1.52,0,1,0-.475-2.992,75.548,75.548,0,0,1-11.921,1.045c-8.175,0-15.6-1.5-20.85-3.847a18.969,18.969,0,0,1-6.032-3.99,6.319,6.319,0,0,1-1.995-4.322V52.2A22.35,22.35,0,0,0,9.84,56.661c5.771,2.588,13.542,4.132,22.085,4.132a63.024,63.024,0,0,0,7.789-.475,1.52,1.52,0,1,0-.38-2.992,60.183,60.183,0,0,1-7.41.427c-8.175,0-15.6-1.5-20.85-3.847a18.969,18.969,0,0,1-6.032-3.99,6.319,6.319,0,0,1-1.995-4.322,1.127,1.127,0,0,0,0-.285V37A22.35,22.35,0,0,0,9.84,41.463c5.771,2.588,13.542,4.132,22.085,4.132S48.24,44.051,54.01,41.463A22.35,22.35,0,0,0,60.8,37v4.037a1.52,1.52,0,1,0,3.04,0V14.866a.746.746,0,0,0-.047-.095,9.47,9.47,0,0,0-2.755-5.937,21.915,21.915,0,0,0-7.029-4.7C48.24,1.544,40.468,0,31.925,0Z" transform="translate(-0.001)" fill="url(#linear-gradient)"/>
    </clipPath>
  </defs>
  <g id="Group_12115" data-name="Group 12115" transform="translate(-0.001)">
    <g id="Group_12114" data-name="Group 12114" transform="translate(0)" clip-path="url(#clip-path)">
      <rect id="Rectangle_32482" data-name="Rectangle 32482" width="76.002" height="75.991" transform="translate(-0.003 0)" fill="url(#linear-gradient)"/>
    </g>
  </g>
</svg>
