<svg xmlns="http://www.w3.org/2000/svg" xmlns:xlink="http://www.w3.org/1999/xlink" width="89" height="115.851" viewBox="0 0 89 115.851">
  <defs>
    <linearGradient id="linear-gradient" x1="0.211" y1="14.134" x2="1" y2="-14.887" gradientUnits="objectBoundingBox">
      <stop offset="0" stop-color="#184c74"/>
      <stop offset="0.448" stop-color="#338da6"/>
      <stop offset="1" stop-color="#eb404d"/>
    </linearGradient>
    <linearGradient id="linear-gradient-2" x1="0.779" y1="1.485" x2="1.222" y2="0.336" xlink:href="#linear-gradient"/>
    <clipPath id="clip-path">
      <rect id="Rectangle_32270" data-name="Rectangle 32270" width="62" height="3" transform="translate(-0.484 -0.268)" fill="url(#linear-gradient)"/>
    </clipPath>
  </defs>
  <g id="Group_11759" data-name="Group 11759" transform="translate(0.499 0.5)">
    <g id="Group_11754" data-name="Group 11754" transform="translate(13.485 99.12)">
      <g id="Group_11753" data-name="Group 11753" transform="translate(0 0)" clip-path="url(#clip-path)">
        <rect id="Rectangle_32269" data-name="Rectangle 32269" width="62" height="3" transform="translate(-0.484 -0.268)" fill="url(#linear-gradient)"/>
      </g>
    </g>
    <path id="Union_6" data-name="Union 6" d="M13534.833-4281.149a8.843,8.843,0,0,1-8.832-8.835v-83.927a8.843,8.843,0,0,1,8.832-8.835h4.421v-2.21a4.42,4.42,0,0,1,4.415-4.418h16.4a11.058,11.058,0,0,1,10.109-6.625,11.052,11.052,0,0,1,10.106,6.625h16.4a4.423,4.423,0,0,1,4.418,4.418v2.21h4.418a8.85,8.85,0,0,1,8.487,6.375v88.847a8.85,8.85,0,0,1-8.487,6.375Zm-4.418-92.763v83.927a4.426,4.426,0,0,0,4.418,4.421h70.681a4.423,4.423,0,0,0,4.418-4.421v-83.927a4.42,4.42,0,0,0-4.418-4.417h-24.3v4.417h19.878a4.42,4.42,0,0,1,4.418,4.415v75.1a4.42,4.42,0,0,1-4.418,4.415h-61.842a4.42,4.42,0,0,1-4.421-4.415v-75.1a4.42,4.42,0,0,1,4.421-4.415h19.879v-4.417h-24.3A4.423,4.423,0,0,0,13530.415-4373.912Zm8.839,72.884h61.842v-68.47h-19.878a4.425,4.425,0,0,1-4.418,4.421h-13.253a4.422,4.422,0,0,1-4.414-4.421h-19.879Zm24.293-83.93v15.46h13.257l0-15.46a6.633,6.633,0,0,0-6.625-6.625A6.634,6.634,0,0,0,13563.547-4384.958Zm17.671,2.21h15.46v-2.21h-15.46Zm-37.549,0h15.464v-2.21h-15.464Zm37.549,64.964-4.685,4.685-3.122-3.123,4.684-4.684-4.684-4.685,3.122-3.123,4.685,4.684,4.685-4.684,3.122,3.123-4.684,4.685,4.684,4.684-3.122,3.123Zm-33.217,3.636v-4h11v4Zm0-9v-4h15v4Zm29.537-17.5-6.164-6.167,3.123-3.123,6.164,6.164,9.829-9.82,3.123,3.123-9.819,9.823a4.405,4.405,0,0,1-3.13,1.295A4.393,4.393,0,0,1,13577.538-4340.65Zm-29.537-.5v-4h13v4Zm0-8v-5h18v5Z" transform="translate(-13526 4396)" stroke="rgba(0,0,0,0)" stroke-width="1" fill="url(#linear-gradient-2)"/>
  </g>
</svg>
