<svg xmlns="http://www.w3.org/2000/svg" xmlns:xlink="http://www.w3.org/1999/xlink" width="608" height="243.877" viewBox="0 0 608 243.877">
  <defs>
    <linearGradient id="linear-gradient" x1="-0.005" y1="1.005" x2="0.816" y2="0.246" gradientUnits="objectBoundingBox">
      <stop offset="0" stop-color="#348fa7"/>
      <stop offset="0.496" stop-color="#587fab"/>
      <stop offset="0.985" stop-color="#ec404c"/>
      <stop offset="1" stop-color="#ec404c"/>
    </linearGradient>
    <clipPath id="clip-path">
      <path id="Path_9620" data-name="Path 9620" d="M168.489,40.948a3.324,3.324,0,0,0,3.395,3.395h24.23l-68.1,68.084a3.326,3.326,0,0,0,0,4.795,3.361,3.361,0,0,0,2.37.993h.031a3.3,3.3,0,0,0,2.386-.993h.015l67.747-67.746V72.969a3.395,3.395,0,1,0,6.789,0V40.95a3.351,3.351,0,0,0-3.395-3.409H171.884a3.346,3.346,0,0,0-3.395,3.409M8.791,141.214h38v54.057a3.369,3.369,0,0,0,3.409,3.41h54.058v38H8.791Zm44.784,0h50.681v50.671H53.575ZM53.588,8.781H236.7V191.888H111.041V137.832a3.328,3.328,0,0,0-3.395-3.395H53.589Zm-6.8-3.387v129.05H5.395A3.347,3.347,0,0,0,2,137.854V240.109A3.328,3.328,0,0,0,5.395,243.5H107.649a3.328,3.328,0,0,0,3.394-3.395V198.7H240.094a3.329,3.329,0,0,0,3.395-3.395V5.4A3.329,3.329,0,0,0,240.094,2L50.2,2a3.351,3.351,0,0,0-3.41,3.395" transform="translate(-2 -2)" fill="url(#linear-gradient)"/>
    </clipPath>
    <clipPath id="clip-path-2">
      <rect id="Rectangle_32373" data-name="Rectangle 32373" width="243.862" height="243.877" fill="url(#linear-gradient)"/>
    </clipPath>
  </defs>
  <g id="Group_15140" data-name="Group 15140" transform="translate(-61 -1654)">
    <rect id="Rectangle_3926" data-name="Rectangle 3926" width="608" height="224" rx="56" transform="translate(61 1664)" fill="#eaeaea"/>
    <g id="Group_11920" data-name="Group 11920" transform="translate(243 1654)">
      <g id="Group_11917" data-name="Group 11917" transform="translate(1.187 1.187)">
        <g id="Group_11916" data-name="Group 11916" clip-path="url(#clip-path)">
          <rect id="Rectangle_32372" data-name="Rectangle 32372" width="241.488" height="241.503" transform="translate(0)" fill="url(#linear-gradient)"/>
        </g>
      </g>
      <g id="Group_11919" data-name="Group 11919">
        <g id="Group_11918" data-name="Group 11918" clip-path="url(#clip-path-2)">
          <path id="Path_9621" data-name="Path 9621" d="M49.591,1.39v.89a2.456,2.456,0,0,0-2.519,2.5V134.725H4.785a2.452,2.452,0,0,0-2.5,2.519V239.5a2.432,2.432,0,0,0,2.5,2.5H107.039a2.432,2.432,0,0,0,2.5-2.5V197.2H239.484a2.433,2.433,0,0,0,2.5-2.5V4.789a2.433,2.433,0,0,0-2.5-2.5l-189.893,0V.5L239.484.5a4.253,4.253,0,0,1,4.285,4.285v189.9a4.252,4.252,0,0,1-4.285,4.284H111.323V239.5a4.253,4.253,0,0,1-4.284,4.285H4.785A4.252,4.252,0,0,1,.5,239.5V137.244a4.267,4.267,0,0,1,4.285-4.3H45.292V4.784A4.269,4.269,0,0,1,49.591.5Zm3.387,6.781v-.89h184V192.169H109.541V137.221a2.433,2.433,0,0,0-2.5-2.5H52.089V7.281h.89v.89h.89V132.937h53.167a4.253,4.253,0,0,1,4.285,4.284v53.168H235.2V9.062H52.978v-.89h0Zm118.3,28.758v.89a2.512,2.512,0,0,0,0,5.024h26.379l-69.618,69.6a2.5,2.5,0,0,0,1.749,4.268h.024a2.41,2.41,0,0,0,1.757-.732l.26-.26h.014l69.005-69.006V72.359a2.5,2.5,0,1,0,5.009,0V40.34a2.457,2.457,0,0,0-2.5-2.519l-32.076,0v-1.78l32.076,0a4.269,4.269,0,0,1,4.285,4.3V72.359a4.285,4.285,0,1,1-8.569,0V51.014L132.576,117.5h-.383v-.89l.628.631a4.206,4.206,0,0,1-3.014,1.251h-.04a4.261,4.261,0,0,1-2.992-7.307l66.579-66.565H171.274a4.292,4.292,0,0,1,0-8.584ZM8.181,140.6v-.89H47.074v54.947a2.474,2.474,0,0,0,2.519,2.519H104.54v39.783H7.291V139.714h.89v.89h.89v94.579H102.76V198.96H49.593a4.281,4.281,0,0,1-4.3-4.3V141.494H8.181v-.89h0Zm44.784,0v-.89h51.571v52.451H52.075V139.714h.89v.89h.89v49.781h48.9V141.494H52.965v-.89h0Z" transform="translate(-0.203 -0.203)" fill="url(#linear-gradient)"/>
        </g>
      </g>
    </g>
  </g>
</svg>
