<svg id="Group_11706" data-name="Group 11706" xmlns="http://www.w3.org/2000/svg" xmlns:xlink="http://www.w3.org/1999/xlink" width="101.553" height="122.331" viewBox="0 0 101.553 122.331">
  <defs>
    <clipPath id="clip-path">
      <rect id="Rectangle_32241" data-name="Rectangle 32241" width="101.553" height="122.331" fill="none"/>
    </clipPath>
    <clipPath id="clip-path-2">
      <path id="Path_9479" data-name="Path 9479" d="M81.76,22.584a1.391,1.391,0,0,0,.158-1.281,13.7,13.7,0,1,1,25.661,0,1.39,1.39,0,0,0,1.3,1.88h5.3a13.7,13.7,0,1,1,0,27.4H75.316a13.7,13.7,0,1,1,0-27.4h5.3a1.39,1.39,0,0,0,1.143-.6M94.748,0A16.495,16.495,0,0,0,78.735,20.4H75.316a16.479,16.479,0,0,0,0,32.958H114.18a16.479,16.479,0,0,0,0-32.958h-3.419A16.495,16.495,0,0,0,94.748,0Z" transform="translate(-58.838)" fill="none"/>
    </clipPath>
    <linearGradient id="linear-gradient" x1="-0.208" y1="2.293" x2="-0.205" y2="2.293" gradientUnits="objectBoundingBox">
      <stop offset="0" stop-color="#587fab"/>
      <stop offset="0.012" stop-color="#587fab"/>
      <stop offset="0.016" stop-color="#597eaa"/>
      <stop offset="0.178" stop-color="#856b8d"/>
      <stop offset="0.342" stop-color="#aa5b76"/>
      <stop offset="0.505" stop-color="#c74f63"/>
      <stop offset="0.667" stop-color="#db4656"/>
      <stop offset="0.828" stop-color="#e7414e"/>
      <stop offset="0.985" stop-color="#ec404c"/>
      <stop offset="1" stop-color="#ec404c"/>
    </linearGradient>
    <clipPath id="clip-path-4">
      <path id="Path_9489" data-name="Path 9489" d="M30.178,328.664H51.737v3.3H30.178Zm-1.391-2.78a1.391,1.391,0,0,0-1.39,1.39v6.079a1.39,1.39,0,0,0,1.39,1.39H53.126a1.39,1.39,0,0,0,1.39-1.39v-6.079a1.391,1.391,0,0,0-1.39-1.39Z" transform="translate(-27.397 -325.884)" fill="none"/>
    </clipPath>
    <linearGradient id="linear-gradient-2" x1="-0.257" y1="4.458" x2="-0.247" y2="4.458" gradientUnits="objectBoundingBox">
      <stop offset="0" stop-color="#348fa7"/>
      <stop offset="0.593" stop-color="#587fab"/>
      <stop offset="1" stop-color="#587fab"/>
    </linearGradient>
    <clipPath id="clip-path-6">
      <path id="Path_9497" data-name="Path 9497" d="M268.2,328.664h21.558v3.3H268.2Zm-1.39-2.78a1.39,1.39,0,0,0-1.39,1.39v6.079a1.39,1.39,0,0,0,1.39,1.39h24.338a1.39,1.39,0,0,0,1.39-1.39v-6.079a1.39,1.39,0,0,0-1.39-1.39Z" transform="translate(-265.417 -325.884)" fill="none"/>
    </clipPath>
    <linearGradient id="linear-gradient-3" x1="-2.488" y1="4.458" x2="-2.479" y2="4.458" xlink:href="#linear-gradient-2"/>
  </defs>
  <g id="Group_11695" data-name="Group 11695">
    <g id="Group_11694" data-name="Group 11694" clip-path="url(#clip-path)">
      <path id="Path_9467" data-name="Path 9467" d="M345.98,446.085a1.889,1.889,0,1,1-1.889-1.889,1.889,1.889,0,0,1,1.889,1.889" transform="translate(-255.216 -331.283)" fill="#348fa7"/>
      <path id="Path_9468" data-name="Path 9468" d="M367.87,446.085a1.889,1.889,0,1,1-1.889-1.889,1.889,1.889,0,0,1,1.889,1.889" transform="translate(-271.542 -331.283)" fill="#348fa7"/>
      <path id="Path_9469" data-name="Path 9469" d="M345.98,301.655a1.889,1.889,0,1,1-1.889-1.889,1.889,1.889,0,0,1,1.889,1.889" transform="translate(-255.216 -223.566)" fill="#587fab"/>
      <path id="Path_9470" data-name="Path 9470" d="M367.87,301.655a1.889,1.889,0,1,1-1.889-1.889,1.889,1.889,0,0,1,1.889,1.889" transform="translate(-271.542 -223.566)" fill="#587fab"/>
      <path id="Path_9471" data-name="Path 9471" d="M345.98,373.875a1.889,1.889,0,1,1-1.889-1.889,1.889,1.889,0,0,1,1.889,1.889" transform="translate(-255.216 -277.428)" fill="#348fa7"/>
      <path id="Path_9472" data-name="Path 9472" d="M367.87,373.875a1.889,1.889,0,1,1-1.889-1.889,1.889,1.889,0,0,1,1.889,1.889" transform="translate(-271.542 -277.428)" fill="#348fa7"/>
      <path id="Path_9473" data-name="Path 9473" d="M107.97,446.085a1.889,1.889,0,1,1-1.889-1.889,1.889,1.889,0,0,1,1.889,1.889" transform="translate(-77.707 -331.283)" fill="#348fa7"/>
      <path id="Path_9474" data-name="Path 9474" d="M129.85,446.085a1.889,1.889,0,1,1-1.889-1.889,1.889,1.889,0,0,1,1.889,1.889" transform="translate(-94.026 -331.283)" fill="#348fa7"/>
      <path id="Path_9475" data-name="Path 9475" d="M107.97,301.655a1.889,1.889,0,1,1-1.889-1.889,1.889,1.889,0,0,1,1.889,1.889" transform="translate(-77.707 -223.566)" fill="#587fab"/>
      <path id="Path_9476" data-name="Path 9476" d="M129.85,301.655a1.889,1.889,0,1,1-1.889-1.889,1.889,1.889,0,0,1,1.889,1.889" transform="translate(-94.026 -223.566)" fill="#587fab"/>
      <path id="Path_9477" data-name="Path 9477" d="M107.97,373.875a1.889,1.889,0,1,1-1.889-1.889,1.889,1.889,0,0,1,1.889,1.889" transform="translate(-77.707 -277.428)" fill="#348fa7"/>
      <path id="Path_9478" data-name="Path 9478" d="M129.85,373.875a1.889,1.889,0,1,1-1.889-1.889,1.889,1.889,0,0,1,1.889,1.889" transform="translate(-94.026 -277.428)" fill="#348fa7"/>
    </g>
  </g>
  <g id="Group_11697" data-name="Group 11697" transform="translate(14.956)">
    <g id="Group_11696" data-name="Group 11696" clip-path="url(#clip-path-2)">
      <rect id="Rectangle_32242" data-name="Rectangle 32242" width="71.82" height="53.358" transform="translate(0)" fill="url(#linear-gradient)"/>
    </g>
  </g>
  <g id="Group_11699" data-name="Group 11699">
    <g id="Group_11698" data-name="Group 11698" clip-path="url(#clip-path)">
      <path id="Path_9480" data-name="Path 9480" d="M238.7,221.722a1.39,1.39,0,0,1-1.39-1.39v-8.6H212.8a1.391,1.391,0,0,1-1.39-1.39v-9.991a1.39,1.39,0,0,1,2.78,0v8.6H238.7a1.391,1.391,0,0,1,1.39,1.39v9.991a1.39,1.39,0,0,1-1.39,1.39" transform="translate(-157.667 -148.384)" fill="#587fab"/>
      <path id="Path_9481" data-name="Path 9481" d="M77.383,221.724a1.39,1.39,0,0,1-1.39-1.39v-9.991a1.391,1.391,0,0,1,1.39-1.39h24.509v-8.6a1.39,1.39,0,0,1,2.78,0v9.991a1.391,1.391,0,0,1-1.39,1.39H78.773v8.6A1.389,1.389,0,0,1,77.383,221.724Z" transform="translate(-56.676 -148.386)" fill="#587fab"/>
      <path id="Path_9482" data-name="Path 9482" d="M36.938,437.057H4.111A4.115,4.115,0,0,1,0,432.946v-6.839A4.115,4.115,0,0,1,4.111,422H36.938a4.115,4.115,0,0,1,4.111,4.111v6.839A4.115,4.115,0,0,1,36.938,437.057ZM4.111,424.777a1.332,1.332,0,0,0-1.33,1.33v6.839a1.332,1.332,0,0,0,1.33,1.331H36.938a1.332,1.332,0,0,0,1.33-1.33v-6.84a1.332,1.332,0,0,0-1.33-1.33Z" transform="translate(0 -314.726)" fill="#348fa7"/>
      <path id="Path_9483" data-name="Path 9483" d="M36.744,448.938H21.274a1.39,1.39,0,1,1,0-2.78h15.47a1.39,1.39,0,1,1,0,2.78Z" transform="translate(-14.83 -332.746)" fill="#348fa7"/>
      <path id="Path_9484" data-name="Path 9484" d="M36.938,292.627H4.111A4.115,4.115,0,0,1,0,288.516v-6.839a4.115,4.115,0,0,1,4.111-4.111H36.938a4.115,4.115,0,0,1,4.111,4.111v6.839a4.115,4.115,0,0,1-4.111,4.111M4.111,280.346a1.332,1.332,0,0,0-1.33,1.33v6.839a1.332,1.332,0,0,0,1.33,1.331H36.938a1.332,1.332,0,0,0,1.33-1.331v-6.839a1.332,1.332,0,0,0-1.33-1.33Z" transform="translate(0 -207.009)" fill="#587fab"/>
      <path id="Path_9485" data-name="Path 9485" d="M36.744,304.508H21.274a1.39,1.39,0,0,1,0-2.78h15.47a1.39,1.39,0,0,1,0,2.78Z" transform="translate(-14.83 -225.03)" fill="#587fab"/>
      <path id="Path_9486" data-name="Path 9486" d="M53.126,406.953H28.787a1.39,1.39,0,0,1-1.39-1.39v-6.079a1.391,1.391,0,0,1,1.39-1.39H53.126a1.391,1.391,0,0,1,1.39,1.39v6.079a1.39,1.39,0,0,1-1.39,1.39m-22.947-2.78H51.737v-3.3H30.178Z" transform="translate(-20.433 -296.9)" fill="#348fa7"/>
      <path id="Path_9487" data-name="Path 9487" d="M36.938,364.847H4.111A4.115,4.115,0,0,1,0,360.736V353.9a4.115,4.115,0,0,1,4.111-4.111H36.938a4.115,4.115,0,0,1,4.111,4.111v6.839A4.115,4.115,0,0,1,36.938,364.847ZM4.111,352.567a1.332,1.332,0,0,0-1.33,1.33v6.839a1.332,1.332,0,0,0,1.33,1.331H36.938a1.332,1.332,0,0,0,1.33-1.33V353.9a1.332,1.332,0,0,0-1.33-1.33Z" transform="translate(0 -260.871)" fill="#348fa7"/>
      <path id="Path_9488" data-name="Path 9488" d="M36.744,376.728H21.274a1.39,1.39,0,1,1,0-2.78h15.47a1.39,1.39,0,1,1,0,2.78Z" transform="translate(-14.83 -278.891)" fill="#348fa7"/>
    </g>
  </g>
  <g id="Group_11701" data-name="Group 11701" transform="translate(6.964 82.839)">
    <g id="Group_11700" data-name="Group 11700" clip-path="url(#clip-path-4)">
      <rect id="Rectangle_32244" data-name="Rectangle 32244" width="27.119" height="8.859" transform="translate(0 0)" fill="url(#linear-gradient-2)"/>
    </g>
  </g>
  <g id="Group_11703" data-name="Group 11703">
    <g id="Group_11702" data-name="Group 11702" clip-path="url(#clip-path)">
      <path id="Path_9490" data-name="Path 9490" d="M274.958,437.057H242.131a4.115,4.115,0,0,1-4.111-4.111v-6.839A4.115,4.115,0,0,1,242.131,422h32.827a4.115,4.115,0,0,1,4.111,4.111v6.839a4.117,4.117,0,0,1-4.112,4.111Zm-32.827-12.28a1.332,1.332,0,0,0-1.33,1.33v6.839a1.332,1.332,0,0,0,1.33,1.331h32.827a1.332,1.332,0,0,0,1.331-1.331v-6.839a1.332,1.332,0,0,0-1.331-1.33Z" transform="translate(-177.516 -314.726)" fill="#348fa7"/>
      <path id="Path_9491" data-name="Path 9491" d="M274.764,448.938h-15.47a1.39,1.39,0,0,1,0-2.78h15.47a1.39,1.39,0,1,1,0,2.78" transform="translate(-192.345 -332.746)" fill="#348fa7"/>
      <path id="Path_9492" data-name="Path 9492" d="M274.958,292.627H242.131a4.115,4.115,0,0,1-4.111-4.111v-6.839a4.115,4.115,0,0,1,4.111-4.111h32.827a4.115,4.115,0,0,1,4.111,4.111v6.839a4.117,4.117,0,0,1-4.112,4.111Zm-32.827-12.281a1.332,1.332,0,0,0-1.33,1.33v6.839a1.332,1.332,0,0,0,1.33,1.331h32.827a1.332,1.332,0,0,0,1.331-1.331v-6.839a1.332,1.332,0,0,0-1.331-1.33Z" transform="translate(-177.516 -207.009)" fill="#587fab"/>
      <path id="Path_9493" data-name="Path 9493" d="M274.764,304.508h-15.47a1.39,1.39,0,0,1,0-2.78h15.47a1.39,1.39,0,0,1,0,2.78" transform="translate(-192.345 -225.03)" fill="#587fab"/>
      <path id="Path_9494" data-name="Path 9494" d="M291.146,406.953H266.807a1.391,1.391,0,0,1-1.39-1.39v-6.079a1.391,1.391,0,0,1,1.39-1.39h24.338a1.391,1.391,0,0,1,1.39,1.39v6.079a1.39,1.39,0,0,1-1.39,1.39m-22.948-2.78h21.558v-3.3H268.2Z" transform="translate(-197.949 -296.9)" fill="#348fa7"/>
      <path id="Path_9495" data-name="Path 9495" d="M274.958,364.847H242.131a4.115,4.115,0,0,1-4.111-4.111V353.9a4.115,4.115,0,0,1,4.111-4.111h32.827a4.115,4.115,0,0,1,4.111,4.111v6.839a4.117,4.117,0,0,1-4.112,4.111Zm-32.827-12.28a1.332,1.332,0,0,0-1.33,1.33v6.839a1.332,1.332,0,0,0,1.33,1.331h32.827a1.332,1.332,0,0,0,1.331-1.331V353.9a1.332,1.332,0,0,0-1.331-1.33Z" transform="translate(-177.516 -260.871)" fill="#348fa7"/>
      <path id="Path_9496" data-name="Path 9496" d="M274.764,376.728h-15.47a1.39,1.39,0,0,1,0-2.78h15.47a1.39,1.39,0,1,1,0,2.78" transform="translate(-192.345 -278.891)" fill="#348fa7"/>
    </g>
  </g>
  <g id="Group_11705" data-name="Group 11705" transform="translate(67.468 82.839)">
    <g id="Group_11704" data-name="Group 11704" clip-path="url(#clip-path-6)">
      <rect id="Rectangle_32246" data-name="Rectangle 32246" width="27.119" height="8.859" transform="translate(0 0)" fill="url(#linear-gradient-3)"/>
    </g>
  </g>
</svg>
