<svg xmlns="http://www.w3.org/2000/svg" xmlns:xlink="http://www.w3.org/1999/xlink" width="516" height="242.554" viewBox="0 0 516 242.554">
  <defs>
    <linearGradient id="linear-gradient" x1="-0.006" y1="1.009" x2="0.635" y2="0.034" gradientUnits="objectBoundingBox">
      <stop offset="0" stop-color="#184c74"/>
      <stop offset="0.448" stop-color="#338da6"/>
      <stop offset="1" stop-color="#eb404d"/>
    </linearGradient>
  </defs>
  <g id="Group_15144" data-name="Group 15144" transform="translate(-743 -1967.446)">
    <rect id="Rectangle_3927" data-name="Rectangle 3927" width="516" height="224" rx="54" transform="translate(743 1986)" fill="#eaeaea"/>
    <path id="Union_4" data-name="Union 4" d="M9469.138-3499.618a51.924,51.924,0,0,1-51.892-51.838,50.133,50.133,0,0,1,.451-6.379h-5.629a51.926,51.926,0,0,1-51.894-51.838c0-28.842,24.485-52.506,52.032-51.933a51.586,51.586,0,0,1,39.554-22.353,76.587,76.587,0,0,1,70.349-46.865,75.879,75.879,0,0,1,74.347,60.176c32.012,7.129,55.639,34.916,58.531,67.332a51.938,51.938,0,0,1,53.731,51.86,51.92,51.92,0,0,1-51.887,51.838Zm-43.658-51.838a43.681,43.681,0,0,0,43.658,43.6h187.694a43.677,43.677,0,0,0,43.653-43.6c0-26.632-23.718-46.646-48.816-43.342-8.7,1.24.15-20.326-20.1-44.835-33.739-40.525-97.916-29.031-116.054,19.361a4.119,4.119,0,0,1-3.833,2.67,43.482,43.482,0,0,0-36.761,20.6,4.087,4.087,0,0,1-3.462,1.937c-.1,0-.2,0-.3-.01-.909-.063-1.815-.093-2.717-.093C9445.428-3595.163,9425.479-3575.344,9425.479-3551.456Zm-57.069-58.217a43.682,43.682,0,0,0,43.658,43.6h7.257c7.08-24.132,29.687-37.752,49.946-37.321a51.622,51.622,0,0,1,39.554-22.353,75.975,75.975,0,0,1,78.891-46.4,67.712,67.712,0,0,0-65.606-50.449,68.3,68.3,0,0,0-63.666,44.1,4.113,4.113,0,0,1-3.832,2.673,43.467,43.467,0,0,0-36.756,20.6,3.942,3.942,0,0,1-3.835,1.92c-.807,0-1.674-.081-2.585-.081C9388.112-3653.377,9368.41-3633.366,9368.41-3609.673Zm70.792,58.217a29.966,29.966,0,0,1,29.936-29.933l.934,0-.054,8.233-.906,0a21.719,21.719,0,0,0-21.676,21.7Zm-56.828-60.865c1.155-13.14,10.938-27.285,29.694-27.285,16.252,1.026,18.5.365,18.191,5.273a4.193,4.193,0,0,1-4.4,3.85l-14.059-.9c-13.384.01-20.362,9.939-21.228,19.782s4.267,20.872,17.689,23.245l-1.437,8.106C9388.38-3583.511,9381.219-3599.161,9382.374-3612.321Zm104.19,22.6a29.817,29.817,0,0,1,25.2-14.156l.053,8.233a21.641,21.641,0,0,0-18.278,10.282Zm41.8-25.735a54.485,54.485,0,0,1,50.8-35.194v8.233a46.222,46.222,0,0,0-43.1,29.85Zm-57.076-58.212a53.908,53.908,0,0,1,40.766-34.207,55.228,55.228,0,0,1,10.334-.982,53.592,53.592,0,0,1,39.923,17.806l-6.11,5.521a45.525,45.525,0,0,0-42.608-14.259A45.741,45.741,0,0,0,9479-3670.782Z" transform="translate(-8523.225 5698.77)" stroke="rgba(0,0,0,0)" stroke-width="1" fill="url(#linear-gradient)"/>
  </g>
</svg>
