<svg xmlns="http://www.w3.org/2000/svg" xmlns:xlink="http://www.w3.org/1999/xlink" width="608" height="238" viewBox="0 0 608 238">
  <defs>
    <linearGradient id="linear-gradient" x1="-0.005" y1="1.005" x2="0.819" y2="0.066" gradientUnits="objectBoundingBox">
      <stop offset="0" stop-color="#348fa7"/>
      <stop offset="0.496" stop-color="#587fab"/>
      <stop offset="0.985" stop-color="#ec404c"/>
      <stop offset="1" stop-color="#ec404c"/>
    </linearGradient>
    <clipPath id="clip-path">
      <path id="Path_9636" data-name="Path 9636" d="M192.608,179.059c0-7.281,4.529-8.809,8.328-8.809s8.315,1.528,8.315,8.809c0,6.534-3.808,12.054-8.315,12.054s-8.328-5.52-8.328-12.054m-7.148,0c0,6.5,2.623,12.261,6.623,15.736a64.352,64.352,0,0,0-7.275,1.425c-8.817,2.275-13.873,7.436-13.873,14.159v16.972a3.574,3.574,0,1,0,7.149,0V210.379c0-4.166,4.629-6.235,8.508-7.236a58.026,58.026,0,0,1,28.718.007c3.167.788,8.481,2.776,8.481,7.229v16.972a3.574,3.574,0,1,0,7.149,0V210.379c0-6.8-5.068-11.967-13.906-14.167a69.582,69.582,0,0,0-7.274-1.4c4.011-3.473,6.641-9.239,6.641-15.757,0-9.694-6.069-15.958-15.464-15.958s-15.476,6.264-15.476,15.958m-161.772,0c0-7.281,4.528-8.809,8.327-8.809s8.315,1.528,8.315,8.809c0,6.534-3.808,12.054-8.315,12.054s-8.327-5.52-8.327-12.054m-7.149,0c0,6.5,2.622,12.26,6.622,15.736a64.391,64.391,0,0,0-7.274,1.425C7.061,198.5,2,203.658,2,210.379v16.972a3.575,3.575,0,0,0,7.149,0V210.379c0-4.164,4.635-6.233,8.52-7.236a57.965,57.965,0,0,1,28.707.008c3.172.787,8.492,2.774,8.492,7.229V227.35a3.574,3.574,0,1,0,7.149,0V210.379c0-6.806-5.073-11.969-13.918-14.166a69.3,69.3,0,0,0-7.263-1.4c4.01-3.473,6.642-9.239,6.642-15.758,0-9.694-6.07-15.958-15.464-15.958s-15.476,6.264-15.476,15.958m96.357-16.4v24.451a6.337,6.337,0,0,1-6.324,6.337H71.207a3.575,3.575,0,1,0,0,7.149h35.364a13.5,13.5,0,0,0,13.473-13.486V162.657a3.574,3.574,0,0,0-7.149,0M94.96,132.794v22.993a3.574,3.574,0,1,0,7.148,0V132.794a3.574,3.574,0,0,0-7.148,0m35.87,0v22.993a3.574,3.574,0,1,0,7.149,0V132.794a3.574,3.574,0,0,0-7.149,0m39.736-22.422a3.575,3.575,0,0,0,0,7.149h19.85a6.331,6.331,0,0,1,6.324,6.324v29.7a3.574,3.574,0,1,0,7.149,0v-29.7a13.489,13.489,0,0,0-13.473-13.473ZM105.252,87.481c0-9.763,6.1-11.813,11.217-11.813s11.217,2.05,11.217,11.813c0,8.75-5.032,15.869-11.217,15.869-6.081,0-11.217-7.267-11.217-15.869M103.57,73.152C99.994,76.5,98.1,81.453,98.1,87.481c0,8.369,3.583,15.706,8.925,19.736a79.011,79.011,0,0,0-10.385,1.937c-10.559,2.712-16.616,8.825-16.616,16.771v29.863a3.575,3.575,0,1,0,7.149,0V125.924c0-5.751,6.115-8.529,11.246-9.847a73.107,73.107,0,0,1,36.135.008c4.189,1.038,11.215,3.7,11.215,9.839v29.863a3.575,3.575,0,1,0,7.149,0V125.924c0-8.041-6.067-14.156-16.646-16.778a85.591,85.591,0,0,0-10.4-1.9c5.362-4.024,8.96-11.374,8.96-19.761,0-11.7-7.037-18.962-18.366-18.962-5.2,0-9.66,1.6-12.9,4.632m-74.128-4.48v35.363a13.5,13.5,0,0,0,13.473,13.487h19.8a3.575,3.575,0,0,0,0-7.149h-19.8a6.338,6.338,0,0,1-6.325-6.337V68.672a3.574,3.574,0,1,0-7.148,0m96.939-41.384a13.5,13.5,0,0,0-13.487,13.486V53.487a3.575,3.575,0,0,0,7.149,0V40.773a6.345,6.345,0,0,1,6.337-6.337h35.364a3.574,3.574,0,0,0,0-7.149ZM23.687,17.946c0-7.27,4.528-8.8,8.327-8.8s8.315,1.526,8.315,8.8C40.33,24.479,36.521,30,32.015,30s-8.327-5.52-8.327-12.054m-7.148,0c0,6.5,2.622,12.261,6.622,15.736a64.5,64.5,0,0,0-7.274,1.426C7.061,37.384,2,42.544,2,49.266V66.238a3.574,3.574,0,0,0,7.149,0V49.266c0-4.164,4.635-6.234,8.52-7.235a57.969,57.969,0,0,1,28.706.007c3.172.788,8.493,2.775,8.493,7.229V66.238a3.574,3.574,0,0,0,7.149,0V49.266c0-6.806-5.073-11.97-13.918-14.167A69.6,69.6,0,0,0,40.837,33.7c4.011-3.473,6.642-9.24,6.642-15.758C47.479,8.259,41.41,2,32.015,2S16.539,8.259,16.539,17.946m176.069,0c0-7.27,4.529-8.8,8.328-8.8s8.315,1.526,8.315,8.8c0,6.534-3.808,12.054-8.315,12.054s-8.328-5.52-8.328-12.054m-7.148,0c0,6.5,2.622,12.26,6.622,15.736a64.434,64.434,0,0,0-7.275,1.425c-8.818,2.275-13.873,7.436-13.873,14.159V66.238a3.574,3.574,0,0,0,7.148,0V49.266c0-4.167,4.628-6.235,8.508-7.235a58.026,58.026,0,0,1,28.718.006c3.167.789,8.481,2.776,8.481,7.229V66.238a3.574,3.574,0,0,0,7.148,0V49.266c0-6.8-5.067-11.967-13.906-14.166a69.567,69.567,0,0,0-7.275-1.4c4.011-3.473,6.641-9.239,6.641-15.758C216.4,8.259,210.33,2,200.935,2S185.46,8.259,185.46,17.946" transform="translate(-2 -2)" fill="url(#linear-gradient)"/>
    </clipPath>
    <clipPath id="clip-path-2">
      <rect id="Rectangle_32387" data-name="Rectangle 32387" width="231.024" height="231.011" fill="url(#linear-gradient)"/>
    </clipPath>
  </defs>
  <g id="Group_15139" data-name="Group 15139" transform="translate(-697 -1364)">
    <rect id="Rectangle_32321" data-name="Rectangle 32321" width="608" height="224" rx="56" transform="translate(697 1364)" fill="#eaeaea"/>
    <g id="Group_11938" data-name="Group 11938" transform="translate(909 1370.988)">
      <g id="Group_11935" data-name="Group 11935" transform="translate(1.043 1.043)">
        <g id="Group_11934" data-name="Group 11934" clip-path="url(#clip-path)">
          <rect id="Rectangle_32386" data-name="Rectangle 32386" width="228.938" height="228.926" transform="translate(0 0)" fill="url(#linear-gradient)"/>
        </g>
      </g>
      <g id="Group_11937" data-name="Group 11937">
        <g id="Group_11936" data-name="Group 11936" clip-path="url(#clip-path-2)">
          <path id="Path_9637" data-name="Path 9637" d="M135.559,108.429l-.188.759a84.871,84.871,0,0,0-10.307-1.887l-1.937-.232,1.56-1.171c5.133-3.845,8.652-10.971,8.648-19.134-.069-11.369-6.62-18.115-17.584-18.18-5.042,0-9.289,1.546-12.364,4.421-3.389,3.173-5.216,7.888-5.22,13.759,0,8.146,3.5,15.26,8.614,19.11l1.554,1.172-1.933.229a78.184,78.184,0,0,0-10.281,1.918h0c-10.38,2.7-16.021,8.522-16.028,16.012V155.07a2.792,2.792,0,0,0,5.585,0V125.207c.077-6.431,6.666-9.269,11.833-10.6a72.376,72.376,0,0,1,18.082-2.288,76.622,76.622,0,0,1,18.436,2.294c4.213,1.065,11.709,3.73,11.81,10.6V155.07a2.792,2.792,0,0,0,5.584,0V125.207c-.01-7.59-5.657-13.41-16.052-16.019l.188-.759.188-.759c10.762,2.634,17.249,9.046,17.24,17.538V155.07a4.357,4.357,0,0,1-8.713,0V125.207c.1-5.415-6.458-8.069-10.622-9.08a75.058,75.058,0,0,0-18.06-2.248A70.849,70.849,0,0,0,97.9,116.118c-5.095,1.3-10.735,4.019-10.658,9.089V155.07a4.357,4.357,0,0,1-8.714,0V125.207c-.007-8.4,6.465-14.8,17.2-17.528h0a79.749,79.749,0,0,1,10.487-1.957l.092.777-.471.624c-5.57-4.208-9.233-11.77-9.237-20.359,0-6.187,1.951-11.381,5.715-14.9a19.222,19.222,0,0,1,13.433-4.843c11.693.02,19.129,7.721,19.148,19.744,0,8.608-3.683,16.183-9.273,20.385l-.469-.625.093-.777a86.413,86.413,0,0,1,10.5,1.922ZM115.751,74.951v-.782c5.283.013,11.988,2.416,12,12.6-.006,9-5.151,16.582-12,16.651-6.758-.08-11.984-7.785-12-16.651.012-10.179,6.716-12.583,12-12.6v1.564c-4.951.117-10.346,1.682-10.435,11.031.01,8.338,5.032,15.072,10.435,15.087,5.521-.015,10.425-6.589,10.435-15.087-.089-9.349-5.484-10.914-10.435-11.031ZM97.816,158.644v.782a4.357,4.357,0,0,1-4.357-4.356V132.077a4.357,4.357,0,1,1,8.714,0V155.07a4.357,4.357,0,0,1-4.357,4.356v-1.564a2.8,2.8,0,0,0,2.792-2.792V132.077a2.792,2.792,0,0,0-5.585,0V155.07a2.8,2.8,0,0,0,2.792,2.792Zm39.445-26.567h.782V155.07a4.357,4.357,0,0,1-8.713,0V132.077a4.357,4.357,0,1,1,8.713,0h-1.564a2.792,2.792,0,1,0-5.584,0V155.07a2.792,2.792,0,0,0,5.584,0V132.077ZM47.382,195.5l-.189.759a68.768,68.768,0,0,0-7.181-1.379l-1.71-.236,1.305-1.131c3.817-3.3,6.374-8.858,6.372-15.167-.059-9.355-5.664-15.121-14.682-15.175-9.025.055-14.635,5.822-14.694,15.175,0,6.3,2.546,11.842,6.353,15.145l1.3,1.131-1.707.235a63.8,63.8,0,0,0-7.186,1.407h0c-8.642,2.262-13.291,7.13-13.3,13.4v16.972a2.792,2.792,0,0,0,5.585,0V209.661c.091-4.871,5.192-6.966,9.107-7.994h0a57.7,57.7,0,0,1,14.4-1.826,60.78,60.78,0,0,1,14.686,1.832h0c3.191.821,8.97,2.782,9.086,7.988v16.972a2.792,2.792,0,0,0,5.584,0V209.661c-.011-6.361-4.667-11.224-13.324-13.408l.189-.759.188-.759c9.032,2.21,14.522,7.676,14.511,14.926v16.972a4.357,4.357,0,0,1-8.713,0V209.661c.116-3.7-4.746-5.716-7.9-6.469h0a59.221,59.221,0,0,0-14.309-1.786,56.144,56.144,0,0,0-14.015,1.777h0c-3.856.978-8.025,3.022-7.934,6.479v16.972a4.357,4.357,0,0,1-8.714,0V209.661c-.008-7.17,5.465-12.623,14.472-14.917h0a65.337,65.337,0,0,1,7.363-1.442l.107.775-.513.59c-4.192-3.648-6.889-9.612-6.891-16.326.016-10.034,6.481-16.723,16.258-16.74,9.771.017,16.23,6.706,16.246,16.74,0,6.729-2.709,12.7-6.912,16.35l-.512-.591.107-.775a70.233,70.233,0,0,1,7.344,1.411ZM31.3,169.533v-.782c3.962.009,9.088,1.9,9.1,9.591-.018,6.788-3.9,12.748-9.1,12.836-5.207-.088-9.091-6.048-9.11-12.836.009-7.693,5.142-9.581,9.11-9.591v1.564c-3.631.117-7.455,1.158-7.545,8.026.007,6.279,3.725,11.26,7.545,11.272,3.812-.011,7.525-4.992,7.533-11.272-.091-6.87-3.908-7.909-7.533-8.026Zm185.017,25.962-.189.759a68.565,68.565,0,0,0-7.191-1.379l-1.711-.235,1.306-1.131c3.817-3.3,6.374-8.858,6.371-15.166-.06-9.355-5.664-15.121-14.681-15.175-9.026.055-14.635,5.822-14.695,15.175,0,6.3,2.546,11.843,6.354,15.145l1.3,1.131-1.707.235a63.786,63.786,0,0,0-7.187,1.408h0c-8.633,2.259-13.278,7.127-13.287,13.4v16.972a2.792,2.792,0,0,0,5.585,0V209.662c.091-4.872,5.185-6.968,9.094-7.994h0a57.713,57.713,0,0,1,14.411-1.826,60.868,60.868,0,0,1,14.689,1.831h0c3.188.822,8.959,2.784,9.075,7.988v16.972a2.792,2.792,0,0,0,5.585,0V209.662c-.012-6.36-4.662-11.221-13.314-13.409h0l.189-.759.189-.759c9.026,2.214,14.51,7.678,14.5,14.927v16.972a4.357,4.357,0,0,1-8.714,0V209.662c.115-3.7-4.74-5.716-7.888-6.47h0a59.3,59.3,0,0,0-14.313-1.785,56.159,56.159,0,0,0-14.022,1.776h0c-3.85.977-8.012,3.018-7.921,6.479v16.972a4.357,4.357,0,0,1-8.714,0V209.662c-.009-7.171,5.46-12.625,14.46-14.917h0a65.414,65.414,0,0,1,7.363-1.442l.107.775-.513.59c-4.192-3.647-6.889-9.612-6.892-16.326.016-10.034,6.481-16.723,16.259-16.74,9.77.017,16.23,6.706,16.246,16.74,0,6.728-2.708,12.7-6.912,16.349l-.512-.591.106-.775a70.219,70.219,0,0,1,7.355,1.411h0Zm-16.1-25.962v-.782c3.962.009,9.087,1.9,9.1,9.591-.018,6.788-3.9,12.748-9.1,12.836-5.208-.088-9.092-6.048-9.11-12.836.009-7.693,5.142-9.581,9.11-9.591v1.564c-3.632.117-7.455,1.158-7.546,8.026.007,6.279,3.725,11.26,7.546,11.272,3.812-.011,7.524-4.992,7.532-11.272-.091-6.87-3.908-7.909-7.532-8.026ZM4.857,69.095v-.782a2.8,2.8,0,0,0,2.792-2.792V48.548c.091-4.871,5.192-6.966,9.107-7.993h0a57.717,57.717,0,0,1,14.41-1.826,60.775,60.775,0,0,1,14.68,1.831c3.191.822,8.97,2.782,9.086,7.988V65.521a2.792,2.792,0,0,0,5.584,0V48.549c-.011-6.361-4.667-11.224-13.324-13.407a68.486,68.486,0,0,0-7.182-1.38L38.3,33.526,39.607,32.4c3.818-3.3,6.375-8.859,6.372-15.167C45.92,7.882,40.316,2.121,31.3,2.066,22.272,2.121,16.663,7.883,16.6,17.229c0,6.3,2.546,11.843,6.353,15.145l1.3,1.131-1.707.235a63.675,63.675,0,0,0-7.186,1.408h0c-8.642,2.261-13.291,7.128-13.3,13.4V65.521a2.8,2.8,0,0,0,2.792,2.792v1.564A4.357,4.357,0,0,1,.5,65.521V48.548c-.008-7.17,5.466-12.623,14.473-14.916h0a65.219,65.219,0,0,1,7.362-1.443l.107.775-.513.59c-4.192-3.647-6.889-9.612-6.891-16.326C15.055,7.2,21.52.518,31.3.5c9.77.017,16.23,6.7,16.246,16.727,0,6.728-2.708,12.7-6.913,16.35l-.512-.591.107-.775a70.171,70.171,0,0,1,7.345,1.411C56.6,35.833,62.093,41.3,62.082,48.549V65.521a4.357,4.357,0,0,1-8.713,0V48.549c.116-3.7-4.746-5.716-7.9-6.47a59.229,59.229,0,0,0-14.3-1.785,56.162,56.162,0,0,0-14.02,1.777l-.031.008.032-.008c-3.856.977-8.025,3.022-7.934,6.478V65.521a4.357,4.357,0,0,1-4.356,4.356ZM31.3,8.432V7.65c3.961.009,9.088,1.9,9.1,9.578-.018,6.788-3.9,12.748-9.1,12.837-5.207-.088-9.091-6.047-9.11-12.837C22.2,9.545,27.33,7.659,31.3,7.65V9.214c-3.632.117-7.455,1.157-7.545,8.014.007,6.28,3.725,11.261,7.545,11.272,3.812-.011,7.525-4.993,7.533-11.272-.09-6.858-3.908-7.9-7.533-8.014Zm185.017,25.95-.188.759a68.616,68.616,0,0,0-7.192-1.38l-1.711-.235,1.306-1.131c3.817-3.3,6.374-8.858,6.371-15.167-.059-9.346-5.664-15.108-14.681-15.163-9.026.055-14.635,5.817-14.694,15.163,0,6.3,2.546,11.842,6.353,15.145l1.3,1.131-1.707.235a63.669,63.669,0,0,0-7.187,1.408h0c-8.633,2.259-13.278,7.126-13.287,13.4V65.521a2.792,2.792,0,0,0,5.585,0V48.548c.091-4.873,5.185-6.968,9.094-7.993a57.7,57.7,0,0,1,14.4-1.826,60.893,60.893,0,0,1,14.7,1.831c3.188.822,8.959,2.784,9.075,7.988V65.521a2.792,2.792,0,0,0,5.585,0V48.548c-.011-6.359-4.662-11.221-13.313-13.408l.189-.759.189-.759c9.026,2.213,14.51,7.678,14.5,14.926V65.521a4.357,4.357,0,0,1-8.714,0V48.548c.115-3.7-4.74-5.715-7.888-6.47a59.359,59.359,0,0,0-14.321-1.785,56.162,56.162,0,0,0-14.013,1.777c-3.848.977-8.01,3.017-7.92,6.478V65.521a4.357,4.357,0,0,1-8.714,0V48.548c-.009-7.172,5.46-12.626,14.46-14.917h0a65.329,65.329,0,0,1,7.363-1.442l.107.775-.513.59c-4.192-3.648-6.889-9.612-6.891-16.326C183.976,7.2,190.44.518,200.218.5c9.77.017,16.23,6.7,16.246,16.727,0,6.729-2.708,12.7-6.912,16.35l-.512-.591.106-.775a70.224,70.224,0,0,1,7.356,1.411Zm-16.1-25.95V7.65c3.961.009,9.087,1.9,9.1,9.578-.018,6.788-3.9,12.748-9.1,12.837-5.208-.088-9.092-6.047-9.11-12.837.009-7.683,5.143-9.569,9.11-9.578V9.214c-3.632.117-7.456,1.157-7.546,8.014.007,6.28,3.725,11.261,7.546,11.272,3.811-.011,7.524-4.993,7.532-11.272-.09-6.858-3.907-7.9-7.532-8.014ZM119.326,161.94h.782v24.451a14.277,14.277,0,0,1-14.255,14.268H70.489a4.357,4.357,0,0,1,0-8.713h35.364a5.565,5.565,0,0,0,5.543-5.555V161.94a4.356,4.356,0,1,1,8.713,0h-1.564a2.792,2.792,0,1,0-5.584,0v24.451a7.121,7.121,0,0,1-7.107,7.12H70.489a2.792,2.792,0,0,0,0,5.584h35.364a12.732,12.732,0,0,0,12.691-12.7V161.94ZM189.7,116.8v.782H169.849a4.357,4.357,0,1,1,0-8.714H189.7a14.271,14.271,0,0,1,14.255,14.256v29.7a4.357,4.357,0,1,1-8.713,0v-29.7h0a5.558,5.558,0,0,0-5.542-5.541v-1.564a7.113,7.113,0,0,1,7.107,7.106h0v29.7a2.792,2.792,0,1,0,5.584,0v-29.7A12.725,12.725,0,0,0,189.7,110.437H169.849a2.792,2.792,0,1,0,0,5.585H189.7Zm-25.1-86.66h.782a4.357,4.357,0,0,1-4.357,4.357H125.663a5.571,5.571,0,0,0-5.555,5.555V52.77a4.357,4.357,0,1,1-8.713,0V40.056a14.283,14.283,0,0,1,14.268-14.268h35.363a4.357,4.357,0,0,1,4.357,4.356h-1.564a2.8,2.8,0,0,0-2.792-2.792H125.663a12.737,12.737,0,0,0-12.7,12.7V52.77a2.792,2.792,0,1,0,5.584,0V40.056a7.127,7.127,0,0,1,7.12-7.12h35.363a2.8,2.8,0,0,0,2.792-2.792Zm-99.03,83.085h.782A4.357,4.357,0,0,1,62,117.586H42.2a14.277,14.277,0,0,1-14.256-14.269V67.954a4.357,4.357,0,1,1,8.714,0v35.363a5.565,5.565,0,0,0,5.543,5.555H62a4.357,4.357,0,0,1,4.356,4.357H64.788A2.8,2.8,0,0,0,62,110.437H42.2a7.12,7.12,0,0,1-7.107-7.12V67.954a2.792,2.792,0,0,0-5.585,0v35.363a12.732,12.732,0,0,0,12.692,12.7H62a2.8,2.8,0,0,0,2.792-2.792Z" transform="translate(-0.239 -0.24)" fill="url(#linear-gradient)"/>
        </g>
      </g>
    </g>
  </g>
</svg>
