<svg id="Group_11879" data-name="Group 11879" xmlns="http://www.w3.org/2000/svg" xmlns:xlink="http://www.w3.org/1999/xlink" width="109.939" height="109.939" viewBox="0 0 109.939 109.939">
  <defs>
    <linearGradient id="linear-gradient" y1="1.087" x2="0.959" gradientUnits="objectBoundingBox">
      <stop offset="0" stop-color="#348fa7"/>
      <stop offset="0.345" stop-color="#587fab"/>
      <stop offset="1" stop-color="#ec404c"/>
    </linearGradient>
    <clipPath id="clip-path">
      <path id="Path_9591" data-name="Path 9591" d="M34.552,102.645a2.1,2.1,0,0,1,1.884-1.163H73.5a2.094,2.094,0,0,1,1.884,1.165l1.531,3.063H33.02ZM46.513,88.8H63.426v8.457H46.513ZM4.228,78.226V10.571a6.35,6.35,0,0,1,6.343-6.343h88.8a6.35,6.35,0,0,1,6.343,6.343V78.226a6.35,6.35,0,0,1-6.343,6.343h-88.8a6.35,6.35,0,0,1-6.343-6.343M10.571,0A10.583,10.583,0,0,0,0,10.571V78.226A10.583,10.583,0,0,0,10.571,88.8H42.284v8.457h-5.85a6.3,6.3,0,0,0-5.666,3.5l-2.476,4.956H16.914v4.228H93.025V105.71H81.646l-2.478-4.954a6.293,6.293,0,0,0-5.664-3.5h-5.85V88.8H99.368a10.583,10.583,0,0,0,10.571-10.571V10.571A10.583,10.583,0,0,0,99.368,0Z" fill="url(#linear-gradient)"/>
    </clipPath>
    <clipPath id="clip-path-2">
      <path id="Path_9592" data-name="Path 9592" d="M36.228,36.228H120.8l0,54.969H36.228Zm0-4.228A4.233,4.233,0,0,0,32,36.228V91.2a4.233,4.233,0,0,0,4.228,4.228H120.8a4.233,4.233,0,0,0,4.228-4.228V36.228A4.233,4.233,0,0,0,120.8,32Z" transform="translate(-32 -32)" fill="url(#linear-gradient)"/>
    </clipPath>
    <clipPath id="clip-path-3">
      <path id="Path_9593" data-name="Path 9593" d="M105.228,111.256a2.114,2.114,0,1,1,2.114,2.114,2,2,0,0,1-2.114-2.114m27.484,0a2.114,2.114,0,1,1,2.114,2.114,2,2,0,0,1-2.114-2.114m-14.8-12.685a2.114,2.114,0,1,1,2.114,2.114,2,2,0,0,1-2.114-2.114m33.827-4.228a2.114,2.114,0,1,1,2.114,2.114,2,2,0,0,1-2.114-2.114m-4.228,0a6.507,6.507,0,0,0,.635,2.748L138,105.971a6.29,6.29,0,0,0-3.171-1.057,8.859,8.859,0,0,0-3.171.846l-5.708-4.863a7.6,7.6,0,0,0,.423-2.326,6.343,6.343,0,0,0-12.685,0,8.992,8.992,0,0,0,.423,2.326l-5.074,4.44a3.983,3.983,0,0,0-1.692-.423,6.343,6.343,0,1,0,6.343,6.343,7.13,7.13,0,0,0-1.057-3.594l4.228-3.594a8.861,8.861,0,0,0,3.172.846,8.859,8.859,0,0,0,3.171-.846l5.709,4.863a8.98,8.98,0,0,0-.423,2.326,6.343,6.343,0,0,0,12.686,0,8.991,8.991,0,0,0-.423-2.326l10.359-8.88a5.854,5.854,0,0,0,2.749.634,6.343,6.343,0,1,0-6.343-6.343" transform="translate(-101 -88)" fill="url(#linear-gradient)"/>
    </clipPath>
  </defs>
  <g id="Group_11874" data-name="Group 11874">
    <g id="Group_11873" data-name="Group 11873" clip-path="url(#clip-path)">
      <rect id="Rectangle_32346" data-name="Rectangle 32346" width="110" height="110" transform="translate(-0.031 -0.03)" fill="url(#linear-gradient)"/>
    </g>
  </g>
  <g id="Group_11876" data-name="Group 11876" transform="translate(8.457 8.457)">
    <g id="Group_11875" data-name="Group 11875" clip-path="url(#clip-path-2)">
      <rect id="Rectangle_32347" data-name="Rectangle 32347" width="94" height="64" transform="translate(-0.487 -0.487)" fill="url(#linear-gradient)"/>
    </g>
  </g>
  <g id="Group_11878" data-name="Group 11878" transform="translate(26.692 23.256)">
    <g id="Group_11877" data-name="Group 11877" clip-path="url(#clip-path-3)">
      <rect id="Rectangle_32348" data-name="Rectangle 32348" width="59" height="30" transform="translate(0.278 -0.287)" fill="url(#linear-gradient)"/>
    </g>
  </g>
</svg>
