<svg id="Group_11739" data-name="Group 11739" xmlns="http://www.w3.org/2000/svg" xmlns:xlink="http://www.w3.org/1999/xlink" width="103.314" height="109.054" viewBox="0 0 103.314 109.054">
  <defs>
    <linearGradient id="linear-gradient" y1="1" x2="1.161" y2="-0.052" gradientUnits="objectBoundingBox">
      <stop offset="0" stop-color="#e54351"/>
      <stop offset="0.008" stop-color="#e54351"/>
      <stop offset="0.496" stop-color="#587fab"/>
      <stop offset="1" stop-color="#348fa7"/>
    </linearGradient>
    <clipPath id="clip-path">
      <path id="Path_9511" data-name="Path 9511" d="M17.219,87.529a4.3,4.3,0,1,0,4.3-4.3,4.3,4.3,0,0,0-4.3,4.3m20.089,0a4.3,4.3,0,1,0,4.3-4.3,4.3,4.3,0,0,0-4.3,4.3m20.088,0a4.3,4.3,0,1,0,4.3-4.3,4.3,4.3,0,0,0-4.3,4.3m20.089,0a4.3,4.3,0,1,0,4.3-4.3,4.3,4.3,0,0,0-4.3,4.3M17.219,70.31a4.3,4.3,0,1,0,4.3-4.3,4.305,4.305,0,0,0-4.3,4.3m20.089,0a4.3,4.3,0,1,0,4.3-4.3,4.3,4.3,0,0,0-4.3,4.3m20.088,0a4.3,4.3,0,1,0,4.3-4.3,4.305,4.305,0,0,0-4.3,4.3m20.089,0a4.3,4.3,0,1,0,4.3-4.3,4.3,4.3,0,0,0-4.3,4.3M37.309,53.091a4.3,4.3,0,1,0,4.3-4.3,4.3,4.3,0,0,0-4.3,4.3m20.088,0a4.3,4.3,0,1,0,4.3-4.3,4.3,4.3,0,0,0-4.3,4.3m20.089,0a4.3,4.3,0,1,0,4.3-4.3,4.305,4.305,0,0,0-4.3,4.3M13.844,103.3l-.5-.044A8.609,8.609,0,0,1,5.74,94.7v-57.4H97.575V94.7l-.016.505a8.609,8.609,0,0,1-8.594,8.1H14.349Zm-8.1-83.211.016-.428a5.741,5.741,0,0,1,5.724-5.312h8.609v5.74l.019.336a2.87,2.87,0,0,0,5.72-.336V14.348H77.488v5.739l.019.336a2.87,2.87,0,0,0,5.72-.335v-5.74h8.61l.429.015.441.05a5.742,5.742,0,0,1,4.871,5.674v11.48H5.741ZM80.356,0h0a2.87,2.87,0,0,0-2.87,2.869V8.61H25.828V2.869l-.019-.334a2.87,2.87,0,0,0-5.72.334v5.74H11.48l-.574.014A11.479,11.479,0,0,0,0,20.088V94.7l.014.622a14.349,14.349,0,0,0,14.335,13.727H88.965l.622-.014a14.349,14.349,0,0,0,13.727-14.335V20.088l-.015-.573A11.479,11.479,0,0,0,91.835,8.61H83.225V2.869l-.019-.334A2.87,2.87,0,0,0,80.356,0Z" fill="url(#linear-gradient)"/>
    </clipPath>
  </defs>
  <g id="Group_11738" data-name="Group 11738" clip-path="url(#clip-path)">
    <rect id="Rectangle_32262" data-name="Rectangle 32262" width="103.314" height="109.054" transform="translate(0)" fill="url(#linear-gradient)"/>
  </g>
</svg>
