<svg id="Group_11717" data-name="Group 11717" xmlns="http://www.w3.org/2000/svg" xmlns:xlink="http://www.w3.org/1999/xlink" width="76.03" height="103.677" viewBox="0 0 76.03 103.677">
  <defs>
    <linearGradient id="linear-gradient" x1="0.5" y1="-0.807" x2="0.286" y2="1.112" gradientUnits="objectBoundingBox">
      <stop offset="0" stop-color="#eb404d"/>
      <stop offset="1" stop-color="#174c75"/>
    </linearGradient>
    <clipPath id="clip-path">
      <path id="Path_9499" data-name="Path 9499" d="M3.458,243.649V189.907a1.642,1.642,0,0,1,1.64-1.64H70.936a1.642,1.642,0,0,1,1.64,1.64v53.743a1.642,1.642,0,0,1-1.64,1.64H5.1a1.642,1.642,0,0,1-1.64-1.64M5.1,184.811a5.1,5.1,0,0,0-5.1,5.1v53.743a5.1,5.1,0,0,0,5.1,5.1H70.936a5.1,5.1,0,0,0,5.1-5.1V189.907a5.1,5.1,0,0,0-5.1-5.1Z" transform="translate(-0.002 -184.811)" fill="url(#linear-gradient)"/>
    </clipPath>
    <clipPath id="clip-path-2">
      <rect id="Rectangle_32249" data-name="Rectangle 32249" width="76.03" height="103.677" fill="url(#linear-gradient)"/>
    </clipPath>
    <clipPath id="clip-path-3">
      <path id="Path_9501" data-name="Path 9501" d="M75.773,22.463a19.008,19.008,0,0,1,38.015,0v17.28h-3.456V22.463a15.552,15.552,0,0,0-31.1,0v17.28H75.773ZM94.78,0A22.489,22.489,0,0,0,72.317,22.463V41.471A1.729,1.729,0,0,0,74.045,43.2h6.912a1.729,1.729,0,0,0,1.728-1.728V22.463a12.1,12.1,0,1,1,24.191,0V41.471A1.729,1.729,0,0,0,108.6,43.2h6.912a1.729,1.729,0,0,0,1.728-1.728V22.463A22.489,22.489,0,0,0,94.78,0Z" transform="translate(-72.317)" fill="url(#linear-gradient)"/>
    </clipPath>
    <clipPath id="clip-path-4">
      <path id="Path_9502" data-name="Path 9502" d="M143.244,255.945a1.732,1.732,0,0,0-.757-1.875,5.184,5.184,0,1,1,5.5,0,1.732,1.732,0,0,0-.757,1.875l2.713,11.031h-9.414ZM136.6,249.7a8.571,8.571,0,0,0,3.015,6.539l-2.965,12.056a1.728,1.728,0,0,0,1.678,2.141H152.15a1.728,1.728,0,0,0,1.678-2.141l-2.965-12.056A8.634,8.634,0,1,0,136.6,249.7" transform="translate(-136.598 -241.057)" fill="url(#linear-gradient)"/>
    </clipPath>
  </defs>
  <g id="Group_11710" data-name="Group 11710" transform="translate(0 39.743)">
    <g id="Group_11709" data-name="Group 11709" clip-path="url(#clip-path)">
      <rect id="Rectangle_32248" data-name="Rectangle 32248" width="76.03" height="63.934" transform="translate(0 0)" fill="url(#linear-gradient)"/>
    </g>
  </g>
  <g id="Group_11712" data-name="Group 11712">
    <g id="Group_11711" data-name="Group 11711" clip-path="url(#clip-path-2)">
      <path id="Path_9500" data-name="Path 9500" d="M74.3,421.289H1.728a1.728,1.728,0,0,1,0-3.456H74.3a1.728,1.728,0,0,1,0,3.456" transform="translate(0 -327.979)" fill-rule="evenodd" fill="url(#linear-gradient)"/>
    </g>
  </g>
  <g id="Group_11714" data-name="Group 11714" transform="translate(15.552)">
    <g id="Group_11713" data-name="Group 11713" clip-path="url(#clip-path-3)">
      <rect id="Rectangle_32250" data-name="Rectangle 32250" width="44.927" height="43.199" transform="translate(0)" fill="url(#linear-gradient)"/>
    </g>
  </g>
  <g id="Group_11716" data-name="Group 11716" transform="translate(29.375 51.839)">
    <g id="Group_11715" data-name="Group 11715" clip-path="url(#clip-path-4)">
      <rect id="Rectangle_32251" data-name="Rectangle 32251" width="17.433" height="29.375" transform="translate(-0.076)" fill="url(#linear-gradient)"/>
    </g>
  </g>
</svg>
