<svg id="Group_12077" data-name="Group 12077" xmlns="http://www.w3.org/2000/svg" xmlns:xlink="http://www.w3.org/1999/xlink" width="110.748" height="92.019" viewBox="0 0 110.748 92.019">
  <defs>
    <linearGradient id="linear-gradient" x1="0.345" y1="1.257" x2="0.5" y2="-0.075" gradientUnits="objectBoundingBox">
      <stop offset="0" stop-color="#184c74"/>
      <stop offset="0.448" stop-color="#338da6"/>
      <stop offset="1" stop-color="#eb404d"/>
    </linearGradient>
    <clipPath id="clip-path">
      <path id="Path_9698" data-name="Path 9698" d="M41.948,84.719l-.639-1.684H71.756l-.639,1.684a2.718,2.718,0,0,1-.315.638H42.262a2.727,2.727,0,0,1-.314-.638m28.906,3.218c1.785,0,2.424-1.668,2.667-2.3l1-2.606h34.461v4.287a2.938,2.938,0,0,1-2.931,2.934H7.008a2.938,2.938,0,0,1-2.93-2.934V83.035H38.541l1,2.606c.244.628.872,2.3,2.667,2.3ZM57.12,68.354c27-13.913,26.847-23.091,26.472-45.262q-.015-.947-.031-1.915h18.156a3.315,3.315,0,0,1,3.316,3.315V77.14a3.316,3.316,0,0,1-3.316,3.316H11.34a3.314,3.314,0,0,1-3.306-3.318V24.492a3.313,3.313,0,0,1,3.3-3.315H29.5q-.015.967-.031,1.915c-.375,22.171-.537,31.349,26.471,45.262a1.274,1.274,0,0,0,1.176,0M32.15,14.984c5.588-.958,10.538-4.7,14.412-10.9H66.5c3.864,6.2,8.813,9.944,14.412,10.9.01,2.907.051,5.568.1,8.154.183,11.056.315,18.362-2.759,24.654-3.083,6.323-9.392,11.551-21.725,17.964C44.2,59.343,37.892,54.114,34.809,47.792c-3.073-6.292-2.941-13.6-2.759-24.654h0c.051-2.587.091-5.248.1-8.154M45.832,1.5a1.3,1.3,0,0,0-1.105.63c-2.607,4.383-7.16,9.751-14,10.445a1.286,1.286,0,0,0-1.156,1.281c0,1.652-.01,3.223-.031,4.74h-18.2a5.9,5.9,0,0,0-5.893,5.895V77.139a5.918,5.918,0,0,0,1.024,3.318H2.788A1.29,1.29,0,0,0,1.5,81.746v5.577a5.519,5.519,0,0,0,5.508,5.512h99.049a5.52,5.52,0,0,0,5.507-5.513V81.745a1.29,1.29,0,0,0-1.287-1.289h-3.682a5.919,5.919,0,0,0,1.024-3.318V24.492a5.9,5.9,0,0,0-5.9-5.895h-18.2c-.02-1.517-.03-3.088-.03-4.74a1.286,1.286,0,0,0-1.156-1.281c-6.836-.694-11.39-6.062-14-10.445a1.3,1.3,0,0,0-1.115-.63Z" transform="translate(-1.5 -1.501)" fill="url(#linear-gradient)"/>
    </clipPath>
    <clipPath id="clip-path-2">
      <rect id="Rectangle_32459" data-name="Rectangle 32459" width="110.748" height="92.019" fill="url(#linear-gradient)"/>
    </clipPath>
    <clipPath id="clip-path-3">
      <path id="Path_9700" data-name="Path 9700" d="M218.87,97.55,203.6,112.823l-7.153-7.153a1.368,1.368,0,0,0-1.935,1.935l9.088,9.088L220.8,99.484a1.368,1.368,0,1,0-1.934-1.935" transform="translate(-194.108 -97.149)" fill="url(#linear-gradient)"/>
    </clipPath>
  </defs>
  <g id="Group_12072" data-name="Group 12072" transform="translate(0.342 0.342)">
    <g id="Group_12071" data-name="Group 12071" clip-path="url(#clip-path)">
      <rect id="Rectangle_32458" data-name="Rectangle 32458" width="110.064" height="91.335" transform="translate(0 0)" fill="url(#linear-gradient)"/>
    </g>
  </g>
  <g id="Group_12074" data-name="Group 12074">
    <g id="Group_12073" data-name="Group 12073" clip-path="url(#clip-path-2)">
      <path id="Path_9699" data-name="Path 9699" d="M109.5,79.683v.228h-4.113l.242-.356a5.688,5.688,0,0,0,.985-3.19h0V23.719h0a5.676,5.676,0,0,0-5.675-5.667H82.524l0-.225c-.02-1.518-.03-3.09-.03-4.743v0a1.058,1.058,0,0,0-.951-1.052C74.587,11.319,69.992,5.881,67.37,1.474h0a1.075,1.075,0,0,0-.92-.52H45.062a1.071,1.071,0,0,0-.912.519h0c-2.622,4.407-7.217,9.844-14.169,10.556a1.058,1.058,0,0,0-.951,1.053h0c0,1.653-.01,3.225-.03,4.744l0,.225H10.567A5.675,5.675,0,0,0,4.9,23.72h0V76.366h0a5.69,5.69,0,0,0,.985,3.19l.242.356H2.016a1.062,1.062,0,0,0-1.06,1.062V86.55h0a5.291,5.291,0,0,0,5.28,5.285h99.048a5.291,5.291,0,0,0,5.28-5.286h0V80.972h0a1.062,1.062,0,0,0-1.06-1.061h0v-.456a1.518,1.518,0,0,1,1.515,1.517h0v5.577h0a5.748,5.748,0,0,1-5.735,5.741H6.235A5.748,5.748,0,0,1,.5,86.551h0V80.973a1.518,1.518,0,0,1,1.516-1.518H5.7v.228l-.189.128a6.146,6.146,0,0,1-1.064-3.445h0V23.719h0a6.131,6.131,0,0,1,6.12-6.122H28.772v.228l-.228,0c.02-1.516.03-3.086.03-4.738H28.8l-.228,0v0a1.514,1.514,0,0,1,1.361-1.507C36.655,10.9,41.167,5.6,43.759,1.241h0A1.526,1.526,0,0,1,45.059.5H66.45a1.531,1.531,0,0,1,1.311.74h0c2.591,4.359,7.1,9.657,13.823,10.335a1.514,1.514,0,0,1,1.361,1.506v0c0,1.651.01,3.221.03,4.738l-.228,0V17.6h18.2a6.132,6.132,0,0,1,6.131,6.122h0V76.366h0a6.145,6.145,0,0,1-1.064,3.445l-.189-.128v-.228h3.683ZM31.277,22.365l-.228,0c.051-2.586.091-5.245.1-8.151v-.192l.189-.032c5.51-.945,10.405-4.636,14.257-10.8l.067-.107H65.858l.067.107c3.842,6.163,8.737,9.853,14.257,10.8l.189.032v.192c.01,2.905.051,5.565.1,8.151h0c.041,2.49.08,4.791.08,6.934,0,7.372-.454,12.894-2.862,17.823-3.12,6.394-9.479,11.646-21.824,18.066l-.105.055-.105-.055c-12.345-6.42-18.7-11.672-21.824-18.066-2.406-4.929-2.861-10.453-2.861-17.825,0-2.143.039-4.443.08-6.932l.228,0v.228h-.234l0-.232.228,0v-.228h.233l0,.232c-.041,2.489-.08,4.787-.08,6.924,0,7.359.459,12.8,2.815,17.625,3.047,6.252,9.3,11.456,21.625,17.862l-.105.2-.105-.2c12.32-6.406,18.578-11.61,21.625-17.862C79.637,42.1,80.1,36.654,80.1,29.3c0-2.138-.039-4.437-.08-6.927h0c-.051-2.587-.091-5.25-.1-8.158h.228l-.039.225c-5.677-.971-10.681-4.768-14.567-11.007l.194-.121v.228H45.791V3.308l.193.121c-3.9,6.239-8.9,10.035-14.567,11.007l-.039-.225h.228c-.01,2.909-.051,5.571-.1,8.158l-.228,0v0ZM7.261,23.719H7.033v0a3.541,3.541,0,0,1,3.532-3.541h18.4l0,.232q-.015.967-.031,1.915c-.041,2.446-.08,4.733-.08,6.884.03,17.346,2.434,25.775,26.428,38.172h0a1.044,1.044,0,0,0,.966,0h0c23.992-12.4,26.4-20.831,26.427-38.187,0-2.146-.039-4.428-.08-6.868q-.015-.948-.03-1.915l0-.232h18.388a3.543,3.543,0,0,1,3.543,3.543V76.368a3.544,3.544,0,0,1-3.544,3.544h0l0-.228v.228H10.567A3.542,3.542,0,0,1,7.033,76.37v0h0V23.719h.456V76.366h0v0a3.086,3.086,0,0,0,3.079,3.086h90.379l0,.2v-.2h0l0,.2v-.2a3.088,3.088,0,0,0,3.088-3.088V23.719a3.087,3.087,0,0,0-3.087-3.087H82.79V20.4l.228,0q.015.967.03,1.914c.041,2.44.08,4.724.08,6.875.03,17.4-2.612,26.229-26.674,38.593h0a1.5,1.5,0,0,1-1.387,0h0C31,55.424,28.363,46.594,28.393,29.207c0-2.156.039-4.445.08-6.891q.015-.947.031-1.914l.228,0v.228H10.566a3.085,3.085,0,0,0-3.077,3.085H7.261ZM70.984,82.262l.213.081-.639,1.684-.213-.081.216.073a2.942,2.942,0,0,1-.341.691l-.068.1H41.369l-.068-.1a2.935,2.935,0,0,1-.341-.691l.216-.073-.213.081-.756-1.992H71.314l-.117.309-.213-.081v.228H40.867l.523,1.378v0a2.484,2.484,0,0,0,.288.584l-.189.127v-.228H70.03v.228l-.19-.127a2.491,2.491,0,0,0,.288-.585v0l.641-1.688.213.081v0Zm37.231,4.287h.228a3.166,3.166,0,0,1-3.159,3.162H6.235A3.165,3.165,0,0,1,3.078,86.55h0V82.034H37.925l1.06,2.752h0c.249.638.833,2.159,2.455,2.15H70.082c1.61.01,2.207-1.514,2.455-2.15h0l1.06-2.751h34.846v4.515h-.456V82.49H73.91l-.948,2.46h0c-.239.619-.922,2.432-2.88,2.442H41.441c-1.969-.009-2.642-1.824-2.88-2.442h0l-.948-2.46H3.534v4.059h0a2.71,2.71,0,0,0,2.7,2.707h99.047a2.71,2.71,0,0,0,2.7-2.707h.228Z" transform="translate(-0.386 -0.386)" fill="url(#linear-gradient)"/>
    </g>
  </g>
  <g id="Group_12076" data-name="Group 12076" transform="translate(44.256 22.149)">
    <g id="Group_12075" data-name="Group 12075" clip-path="url(#clip-path-3)">
      <rect id="Rectangle_32460" data-name="Rectangle 32460" width="27.364" height="19.543" transform="translate(-0.134 0)" fill="url(#linear-gradient)"/>
    </g>
  </g>
</svg>
