<svg xmlns="http://www.w3.org/2000/svg" xmlns:xlink="http://www.w3.org/1999/xlink" width="496" height="239.054" viewBox="0 0 496 239.054">
  <defs>
    <linearGradient id="linear-gradient" x1="-0.005" y1="1.005" x2="0.381" gradientUnits="objectBoundingBox">
      <stop offset="0" stop-color="#184c74"/>
      <stop offset="0.448" stop-color="#338da6"/>
      <stop offset="1" stop-color="#eb404d"/>
    </linearGradient>
    <clipPath id="clip-path">
      <path id="Path_9531" data-name="Path 9531" d="M165.2,40.178a3.258,3.258,0,0,0,3.327,3.327h23.751l-66.752,66.737a3.26,3.26,0,0,0,0,4.7,3.294,3.294,0,0,0,2.324.974h.031a3.239,3.239,0,0,0,2.339-.974h.015l66.407-66.407V71.566a3.327,3.327,0,0,0,6.655,0V40.18a3.285,3.285,0,0,0-3.327-3.342H168.524a3.28,3.28,0,0,0-3.327,3.341M8.657,138.46H45.908v52.988a3.3,3.3,0,0,0,3.342,3.343h52.989v37.25H8.657Zm43.9,0h49.679V188.13H52.555ZM52.568,8.647H232.055V188.133H108.884V135.146a3.262,3.262,0,0,0-3.327-3.327H52.568Zm-6.662-3.32v126.5H5.327A3.28,3.28,0,0,0,2,135.167V235.4a3.262,3.262,0,0,0,3.327,3.327H105.56a3.262,3.262,0,0,0,3.327-3.327V194.807h126.5a3.263,3.263,0,0,0,3.327-3.327V5.332A3.263,3.263,0,0,0,235.385,2L49.249,2a3.285,3.285,0,0,0-3.343,3.327" transform="translate(-2 -2)" fill="url(#linear-gradient)"/>
    </clipPath>
    <clipPath id="clip-path-2">
      <rect id="Rectangle_32288" data-name="Rectangle 32288" width="239.039" height="239.054" fill="url(#linear-gradient)"/>
    </clipPath>
  </defs>
  <g id="Group_15122" data-name="Group 15122" transform="translate(-731 -668.998)">
    <rect id="Rectangle_32321" data-name="Rectangle 32321" width="496" height="224" rx="105" transform="translate(731 678)" fill="#f7f7f7"/>
    <g id="Group_12069" data-name="Group 12069" transform="translate(845 668.998)">
      <g id="Group_11780" data-name="Group 11780" transform="translate(1.163 1.163)">
        <g id="Group_11779" data-name="Group 11779" clip-path="url(#clip-path)">
          <rect id="Rectangle_32287" data-name="Rectangle 32287" width="236.713" height="236.727" transform="translate(0)" fill="url(#linear-gradient)"/>
        </g>
      </g>
      <g id="Group_11782" data-name="Group 11782">
        <g id="Group_11781" data-name="Group 11781" clip-path="url(#clip-path-2)">
          <path id="Path_9532" data-name="Path 9532" d="M48.62,1.372v.872A2.407,2.407,0,0,0,46.151,4.7V132.07H4.7a2.4,2.4,0,0,0-2.455,2.47V234.772A2.384,2.384,0,0,0,4.7,237.227H104.932a2.384,2.384,0,0,0,2.454-2.455V193.306H234.758a2.385,2.385,0,0,0,2.455-2.454V4.7a2.385,2.385,0,0,0-2.455-2.455l-186.137,0V.5L234.758.5a4.169,4.169,0,0,1,4.2,4.2V190.852a4.168,4.168,0,0,1-4.2,4.2H109.132v39.721a4.169,4.169,0,0,1-4.2,4.2H4.7a4.168,4.168,0,0,1-4.2-4.2V134.54a4.182,4.182,0,0,1,4.2-4.214H44.406V4.7A4.184,4.184,0,0,1,48.62.5ZM51.94,8.02V7.147H232.3V188.379H107.384V134.518a2.385,2.385,0,0,0-2.455-2.454H51.069V7.147h.872V8.02h.872v122.3h52.116a4.169,4.169,0,0,1,4.2,4.2v52.116H230.554V8.892H51.94V8.02h0ZM167.9,36.209v.872a2.462,2.462,0,0,0,0,4.925h25.858l-68.242,68.227a2.45,2.45,0,0,0,1.714,4.184h.024a2.362,2.362,0,0,0,1.722-.718l.255-.255h.014L196.883,45.8V70.938a2.455,2.455,0,1,0,4.91,0V39.552a2.408,2.408,0,0,0-2.455-2.47l-31.441,0V35.336l31.441,0a4.185,4.185,0,0,1,4.2,4.214V70.938a4.2,4.2,0,1,1-8.4,0V50.015l-65.174,65.174h-.376v-.872l.616.618a4.123,4.123,0,0,1-2.954,1.227h-.039A4.177,4.177,0,0,1,124.278,109L189.541,43.75H167.9a4.207,4.207,0,0,1,0-8.414ZM8.029,137.833v-.872H46.153v53.86a2.425,2.425,0,0,0,2.47,2.47h53.86v39H7.157V136.96h.872v.872H8.9v92.709h91.836V195.035H48.622a4.2,4.2,0,0,1-4.214-4.214V138.705H8.029v-.872h0Zm43.9,0v-.872h50.551v51.414H51.055V136.96h.872v.872H52.8v48.8h47.934V138.705H51.927v-.872h0Z" transform="translate(-0.209 -0.209)" fill="url(#linear-gradient)"/>
        </g>
      </g>
    </g>
  </g>
</svg>
