<svg id="Group_12025" data-name="Group 12025" xmlns="http://www.w3.org/2000/svg" xmlns:xlink="http://www.w3.org/1999/xlink" width="119.121" height="115.903" viewBox="0 0 119.121 115.903">
  <defs>
    <linearGradient id="linear-gradient" x1="0.758" y1="1" x2="0.798" gradientUnits="objectBoundingBox">
      <stop offset="0" stop-color="#184c74"/>
      <stop offset="0.448" stop-color="#338da6"/>
      <stop offset="1" stop-color="#eb404d"/>
    </linearGradient>
    <clipPath id="clip-path">
      <path id="Path_9681" data-name="Path 9681" d="M97.083,67.622a1.862,1.862,0,1,0,0,3.724h13.611a1.862,1.862,0,1,0,0-3.724Zm0-7.154a1.862,1.862,0,1,0,0,3.724h13.611a1.862,1.862,0,1,0,0-3.724Zm-4.7,13.064V58.281a1.667,1.667,0,0,1,1.666-1.666h19.688a1.666,1.666,0,0,1,1.665,1.666V73.533a1.667,1.667,0,0,1-1.665,1.665H94.045a1.668,1.668,0,0,1-1.666-1.666m1.666-20.638a5.4,5.4,0,0,0-5.388,5.388V73.534a5.4,5.4,0,0,0,5.388,5.389h19.688a5.4,5.4,0,0,0,5.388-5.389V58.281a5.394,5.394,0,0,0-5.389-5.387ZM64.761,26.029h0Zm22.325,85.817L68.627,93.936a1.2,1.2,0,0,1-.024-1.688l6.664-6.869a1.184,1.184,0,0,1,.839-.361h.018a1.18,1.18,0,0,1,.831.335l18.458,17.911a1.212,1.212,0,0,1,.027,1.689l-6.665,6.868a1.208,1.208,0,0,1-1.688.025M60.026,80.574a35.958,35.958,0,0,0,3.2-3.523l7.688,7.463-3.312,3.414ZM23.943,63.158a4.909,4.909,0,1,1,4.909,4.907,4.914,4.914,0,0,1-4.909-4.907m43.506-3.221a4.909,4.909,0,1,1,4.909,4.909,4.914,4.914,0,0,1-4.909-4.909M48.2,42.029a4.909,4.909,0,1,1,4.909,4.909A4.915,4.915,0,0,1,48.2,42.029m-35,12.95A22.3,22.3,0,0,1,35.474,32.7a22.029,22.029,0,0,1,11.54,3.221,8.614,8.614,0,0,0-1.482,10.236L33.982,56.223a8.627,8.627,0,1,0,2.447,2.805L47.981,48.967a8.61,8.61,0,0,0,9.127.708,22.307,22.307,0,0,1,.64,5.3h0a22.274,22.274,0,1,1-44.549,0m83.515-26.3a4.909,4.909,0,1,1,4.909,4.909,4.916,4.916,0,0,1-4.909-4.909m-61.24-5.453A31.567,31.567,0,0,1,67.13,52.533L60.544,46.4A8.629,8.629,0,0,0,50.538,33.788a25.726,25.726,0,0,0-15.064-4.81,26,26,0,1,0,26,26,26.352,26.352,0,0,0-.152-2.766l3.6,3.352a8.6,8.6,0,0,0,.613,9.654A31.755,31.755,0,0,1,3.722,54.977h0a31.787,31.787,0,0,1,31.75-31.75M0,54.976A35.474,35.474,0,0,0,56.778,83.34c.141-.108.281-.217.422-.323l7.943,7.708a4.927,4.927,0,0,0,.891,5.882l18.459,17.911a4.921,4.921,0,0,0,6.952-.105l6.664-6.869a4.922,4.922,0,0,0-.1-6.952L79.547,82.682h0a4.922,4.922,0,0,0-5.906-.714l-8.229-7.984A35.5,35.5,0,0,0,68.59,67.7a8.555,8.555,0,0,0,3.767.868,8.625,8.625,0,0,0,7.116-13.509L97.225,36.1a8.639,8.639,0,1,0-2.717-2.544L76.756,52.517a8.589,8.589,0,0,0-5.983-1.061A35.474,35.474,0,0,0,0,54.976M67.8,14.732a1.861,1.861,0,1,0,0,3.722H81.41a1.861,1.861,0,1,0,0-3.722Zm0-7.156a1.862,1.862,0,0,0,0,3.725H81.41a1.862,1.862,0,0,0,0-3.725ZM63.1,20.641V5.389A1.669,1.669,0,0,1,64.76,3.723H84.447a1.668,1.668,0,0,1,1.666,1.666V20.641a1.668,1.668,0,0,1-1.665,1.666H64.761A1.667,1.667,0,0,1,63.1,20.641M64.76,0a5.394,5.394,0,0,0-5.388,5.388V20.641a5.4,5.4,0,0,0,5.389,5.388H84.448a5.394,5.394,0,0,0,5.388-5.388V5.388A5.394,5.394,0,0,0,84.447,0Z" fill="url(#linear-gradient)"/>
    </clipPath>
  </defs>
  <g id="Group_12024" data-name="Group 12024" clip-path="url(#clip-path)">
    <rect id="Rectangle_32433" data-name="Rectangle 32433" width="119.121" height="115.903" fill="url(#linear-gradient)"/>
  </g>
</svg>
