<svg id="Group_11883" data-name="Group 11883" xmlns="http://www.w3.org/2000/svg" xmlns:xlink="http://www.w3.org/1999/xlink" width="131.573" height="115.267" viewBox="0 0 131.573 115.267">
  <defs>
    <linearGradient id="linear-gradient" y1="1" x2="0.8" y2="0.093" gradientUnits="objectBoundingBox">
      <stop offset="0" stop-color="#348fa7"/>
      <stop offset="0.37" stop-color="#587fab"/>
      <stop offset="0.689" stop-color="#8c698a"/>
      <stop offset="1" stop-color="#ec404c"/>
    </linearGradient>
    <clipPath id="clip-path">
      <path id="Path_9599" data-name="Path 9599" d="M43.727,102.438A3.936,3.936,0,1,0,47.663,98.5a3.935,3.935,0,0,0-3.936,3.934M80.974,76.41v24.863l-4.181-6a3.373,3.373,0,0,0-5.538,3.853L81.5,113.839a3.27,3.27,0,0,0,2.767,1.428h0a3.276,3.276,0,0,0,2.793-1.461l9.993-14.717A3.373,3.373,0,0,0,91.475,95.3l-3.753,5.527V76.41a3.374,3.374,0,0,0-6.747,0m-.7-13.311a3.936,3.936,0,1,0,3.936-3.934A3.935,3.935,0,0,0,80.274,63.1M44.789,48.63,34.541,63.242a3.373,3.373,0,0,0,5.525,3.871l4.187-5.97V88.826a3.374,3.374,0,0,0,6.747,0V61.583l3.76,5.5a3.373,3.373,0,0,0,5.571-3.806L50.337,48.663a3.274,3.274,0,0,0-2.765-1.452H47.55a3.271,3.271,0,0,0-2.761,1.419M79.439,0a30.149,30.149,0,0,0-24.5,12.595c-14.719-9.045-35.461,2.177-36.145,19.4a26.078,26.078,0,0,0,7.242,51.118h7.4a3.372,3.372,0,1,0,0-6.743h-7.4A19.33,19.33,0,0,1,22.707,38a3.372,3.372,0,0,0,2.79-3.487C24.288,20.042,42.764,10.49,53.832,19.975a3.4,3.4,0,0,0,5.061-1.023A23.418,23.418,0,0,1,79.439,6.744c14.21-.127,25.433,13.061,23.131,27.088a3.393,3.393,0,0,0,3.279,3.886,19.326,19.326,0,0,1-.313,38.648H98.958a3.372,3.372,0,1,0,0,6.744h6.579a26.082,26.082,0,0,0,26.032-26.072c0-.138,0-.275,0-.413v-.048c-.014-12.325-9.81-23.6-22-25.294A30.236,30.236,0,0,0,79.565,0Z" fill="url(#linear-gradient)"/>
    </clipPath>
  </defs>
  <g id="Group_11882" data-name="Group 11882" clip-path="url(#clip-path)">
    <rect id="Rectangle_32353" data-name="Rectangle 32353" width="131.094" height="114.519" transform="translate(0.24 0.374)" fill="url(#linear-gradient)"/>
  </g>
</svg>
