<svg id="Group_11857" data-name="Group 11857" xmlns="http://www.w3.org/2000/svg" xmlns:xlink="http://www.w3.org/1999/xlink" width="224.866" height="223.354" viewBox="0 0 224.866 223.354">
  <defs>
    <linearGradient id="linear-gradient" x1="1.539" y1="1.222" x2="1" y2="-0.487" gradientUnits="objectBoundingBox">
      <stop offset="0" stop-color="#184c74"/>
      <stop offset="0.448" stop-color="#338da6"/>
      <stop offset="1" stop-color="#eb404d"/>
    </linearGradient>
    <clipPath id="clip-path">
      <rect id="Rectangle_32335" data-name="Rectangle 32335" width="224.866" height="223.354" fill="url(#linear-gradient)"/>
    </clipPath>
  </defs>
  <g id="Group_11856" data-name="Group 11856" clip-path="url(#clip-path)">
    <path id="Path_9547" data-name="Path 9547" d="M74.068,271.963a30.761,30.761,0,1,1-30.762,30.762,30.762,30.762,0,0,1,30.762-30.762" transform="translate(-21.015 -131.977)" fill="url(#linear-gradient)"/>
    <path id="Path_9548" data-name="Path 9548" d="M223.8,159.6h0c-.446-2.675-1.337-4.458-1.783-6.687-5.8-20.062-23.628-80.692-29.87-105.658C186.351,24.966,180.11,0,153.361,0,138.2,0,119.924,7.134,119.924,40.57V86.489H105.659V40.57C105.659,7.134,87.38,0,72.222,0,45.028,0,38.786,24.966,33.437,47.257c-6.242,24.966-24.074,85.6-30.316,105.658a32.843,32.843,0,0,0-1.783,6.242v.446A44.9,44.9,0,0,0,0,170.748a52.7,52.7,0,0,0,52.606,52.606c28.978,0,53.052-23.628,53.052-52.606V144h13.82v26.749a52.606,52.606,0,0,0,105.213,0A30.679,30.679,0,0,0,223.8,159.6M152.915,9.363c14.712,0,21.4,9.808,26.3,26.3a50.4,50.4,0,0,0-24.52-6.687,44.027,44.027,0,0,0-26.3,9.362c.892-25.857,14.266-28.978,24.52-28.978m-80.693,0c10.254,0,23.628,3.121,24.52,28.978a41.319,41.319,0,0,0-26.3-9.362,46.02,46.02,0,0,0-24.52,6.687c4.9-16.495,11.591-26.3,26.3-26.3M53.052,214.438a43.761,43.761,0,0,1-43.69-43.69,54.893,54.893,0,0,1,.892-8.917c0-.446.892-2.675,1.784-6.241a43.706,43.706,0,1,1,41.015,58.848m0-96.3a51.144,51.144,0,0,0-33.436,12.037C27.195,104.321,37.449,69.1,41.907,50.824,48.148,42.8,58.848,37.9,70.885,37.9c9.808,0,19.616,4.9,26.3,13.375v90.5a53.5,53.5,0,0,0-44.136-23.628m52.606-22.291h13.82v39.232h-13.82ZM128.4,50.824c7.133-8.471,16.495-13.375,26.3-13.375,11.591,0,22.291,4.9,28.532,12.928,4.458,17.833,14.712,53.5,22.291,79.356A52.306,52.306,0,0,0,128.4,141.325v-90.5m43.69,163.614A43.69,43.69,0,1,1,213.1,155.591c.892,3.121,1.784,5.35,1.784,6.241a54.891,54.891,0,0,1,.892,8.917c.446,24.074-19.17,43.69-43.69,43.69" transform="translate(0 0)" fill="url(#linear-gradient)"/>
    <path id="Path_9549" data-name="Path 9549" d="M304.482,270.231a31.653,31.653,0,1,1-31.653,31.653,31.653,31.653,0,0,1,31.653-31.653" transform="translate(-132.397 -131.136)" fill="url(#linear-gradient)"/>
  </g>
</svg>
