<svg xmlns="http://www.w3.org/2000/svg" xmlns:xlink="http://www.w3.org/1999/xlink" width="290" height="41.536" viewBox="0 0 290 41.536">
  <defs>
    <clipPath id="clip-path">
      <rect id="Rectangle_2727" data-name="Rectangle 2727" width="290" height="41.536" fill="none"/>
    </clipPath>
  </defs>
  <g id="Logo" transform="translate(0 0)">
    <path id="Path_2330" data-name="Path 2330" d="M53.614,32.062,44.739,8.825h5.17l6.377,18.3,6.291-18.3h4.955L58.741,32.062Z" transform="translate(4.189 0.826)" fill="#fff"/>
    <g id="Group_5321" data-name="Group 5321" transform="translate(0 0)">
      <g id="Group_5320" data-name="Group 5320" clip-path="url(#clip-path)">
        <path id="Path_2331" data-name="Path 2331" d="M23.31,5.061,21.2,9.6a17.855,17.855,0,0,0-8.832-2.839c-2.974,0-4.912,1.136-4.912,3.189,0,6.682,16.286,3.1,16.244,14.108,0,5.458-4.74,8.822-11.375,8.822A18.414,18.414,0,0,1,0,28.035L2.2,23.58a15.8,15.8,0,0,0,10.212,4.455c3.532,0,5.643-1.355,5.643-3.713,0-6.813-16.286-3.013-16.286-13.889,0-5.242,4.438-8.516,10.988-8.516A19.453,19.453,0,0,1,23.31,5.061" transform="translate(0 0.179)" fill="#fff"/>
        <path id="Path_2332" data-name="Path 2332" d="M42.265,18.712c-.172-3.758-2.628-6.028-6.377-6.028-3.618,0-6.16,2.315-6.72,6.028Zm4.309,3.668H29.253a7,7,0,0,0,7.11,5.808,8.846,8.846,0,0,0,6.462-2.707l2.629,2.839a12.393,12.393,0,0,1-9.48,3.931c-7.066,0-11.718-4.761-11.718-11.749,0-7.032,4.782-11.793,11.589-11.836C43.9,8.666,47.176,14,46.574,22.38" transform="translate(2.271 0.811)" fill="#fff"/>
        <path id="Path_2333" data-name="Path 2333" d="M84.381,18.712c-.172-3.758-2.628-6.028-6.377-6.028-3.618,0-6.16,2.315-6.72,6.028ZM88.69,22.38H71.369a7,7,0,0,0,7.11,5.808,8.846,8.846,0,0,0,6.462-2.707l2.629,2.839a12.393,12.393,0,0,1-9.48,3.931c-7.066,0-11.718-4.761-11.718-11.749,0-7.032,4.782-11.793,11.589-11.836C86.018,8.666,89.292,14,88.69,22.38" transform="translate(6.215 0.811)" fill="#fff"/>
        <path id="Path_2334" data-name="Path 2334" d="M112.746,17.62V32.076h-4.954V19.017c0-3.494-2.069-5.634-5.515-5.634-3.792.044-6.163,2.708-6.506,6.332V32.076H90.814V8.84H95.77V13.3c1.637-3.232,4.567-4.629,8.444-4.629,5.342,0,8.531,3.408,8.531,8.954" transform="translate(8.503 0.811)" fill="#fff"/>
        <path id="Path_2335" data-name="Path 2335" d="M122.136,28.145h7.756c3.963,0,6.333-1.572,6.333-4.455,0-2.707-2.37-4.322-6.333-4.322h-7.756Zm0-13.32h7.756c3.231,0,5.17-1.53,5.17-4.107s-1.939-3.973-5.17-3.973h-7.756ZM130.15,2.158c6.248,0,10.126,2.882,10.126,7.643a6.676,6.676,0,0,1-5.3,6.813,7.388,7.388,0,0,1,6.462,7.731c0,5.242-4.18,8.386-10.987,8.386h-13.4V2.158Z" transform="translate(10.96 0.202)" fill="#fff"/>
        <path id="Path_2336" data-name="Path 2336" d="M148.866,13.511a8.32,8.32,0,0,1,7.929-4.8v4.8c-4.612-.262-7.541,2.489-7.929,6.464V32.117h-4.954V8.882h4.954Z" transform="translate(13.475 0.815)" fill="#fff"/>
        <path id="Path_2337" data-name="Path 2337" d="M159.847,9.7h4.911V32.934h-4.911Zm5.342-6.639a2.89,2.89,0,1,1-5.774,0,2.892,2.892,0,1,1,5.774,0" transform="translate(14.927 0)" fill="#fff"/>
        <path id="Path_2338" data-name="Path 2338" d="M187.229,21.356c0-4.5-2.887-7.643-7.023-7.643s-7.023,3.189-7.066,7.643c.043,4.412,2.886,7.556,7.066,7.556,4.136,0,7.023-3.144,7.023-7.556m4.954,11.531h-4.954V28.912c-1.638,2.709-4.4,4.193-8.058,4.193-6.591,0-10.987-4.847-10.987-11.923,0-6.987,4.438-11.749,10.9-11.749a9.028,9.028,0,0,1,8.144,4.237V.48h4.954Z" transform="translate(15.748 0.045)" fill="#fff"/>
        <path id="Path_2339" data-name="Path 2339" d="M211.567,19.889c0-4.193-2.714-7.12-6.592-7.12-3.921,0-6.635,2.969-6.679,7.12.044,4.192,2.714,7.163,6.679,7.163,3.878,0,6.592-2.971,6.592-7.163m4.912,9.958c0,6.682-4.7,10.875-11.892,10.875a16.515,16.515,0,0,1-9.521-3.057l2.111-3.625a11.485,11.485,0,0,0,7.2,2.534c4.352,0,7.2-2.578,7.2-6.6V27.053a8.367,8.367,0,0,1-7.583,3.931c-6.205,0-10.34-4.543-10.34-11.226,0-6.551,4.092-11.006,10.169-11.05a8.519,8.519,0,0,1,7.755,3.931V8.882h4.912Z" transform="translate(18.132 0.815)" fill="#fff"/>
        <path id="Path_2340" data-name="Path 2340" d="M236.42,18.753c-.172-3.758-2.628-6.028-6.377-6.028-3.618,0-6.16,2.315-6.72,6.028Zm4.309,3.668H223.408a7,7,0,0,0,7.11,5.808,8.846,8.846,0,0,0,6.462-2.707l2.629,2.839a12.393,12.393,0,0,1-9.48,3.931c-7.066,0-11.718-4.761-11.718-11.749,0-7.032,4.782-11.793,11.589-11.836,8.057,0,11.331,5.329,10.729,13.714" transform="translate(20.451 0.815)" fill="#fff"/>
        <path id="Path_2341" data-name="Path 2341" d="M259.487,11.026l-1.809,3.713a13.352,13.352,0,0,0-6.594-2.053c-1.938,0-3.361.655-3.361,2.315,0,4.279,12.194,1.965,12.151,10.395,0,4.759-4.18,6.9-8.791,6.9a14.061,14.061,0,0,1-9.22-3.233l1.767-3.582a12.383,12.383,0,0,0,7.67,2.883c2.111,0,3.748-.743,3.748-2.49,0-4.759-12.063-2.1-12.02-10.482,0-4.717,4.05-6.726,8.444-6.726a14.344,14.344,0,0,1,8.014,2.359" transform="translate(22.647 0.811)" fill="#fff"/>
        <path id="Path_2342" data-name="Path 2342" d="M264.766,9.411a3.142,3.142,0,0,1-5.353-2.259,3,3,0,0,1,.983-2.294A3.081,3.081,0,0,1,262.562,4a3.031,3.031,0,0,1,2.226.923,3.03,3.03,0,0,1,.923,2.226,3.03,3.03,0,0,1-.944,2.259m-4.054-4.084a2.613,2.613,0,0,0,.013,3.682,2.578,2.578,0,0,0,3.669,0,2.546,2.546,0,0,0,.76-1.854,2.521,2.521,0,0,0-.756-1.824,2.554,2.554,0,0,0-3.687,0m.47,3.576V5.413l.971,0c.432,0,.671,0,.72.007a1.678,1.678,0,0,1,.688.179.877.877,0,0,1,.466.833.766.766,0,0,1-.245.635,1.151,1.151,0,0,1-.6.234,1.193,1.193,0,0,1,.5.2.95.95,0,0,1,.307.783V8.6a.813.813,0,0,0,.007.1.736.736,0,0,0,.025.1l.033.1h-.872a2.553,2.553,0,0,1-.058-.483,1.559,1.559,0,0,0-.058-.428.429.429,0,0,0-.256-.256,1.021,1.021,0,0,0-.312-.056l-.2-.012H262.1V8.9Zm1.666-2.8a1.529,1.529,0,0,0-.529-.072H262.1V7.04h.354a.851.851,0,0,0,.5-.128.474.474,0,0,0,.179-.414.4.4,0,0,0-.282-.4" transform="translate(24.29 0.374)" fill="#fff"/>
      </g>
    </g>
  </g>
</svg>
