<svg xmlns="http://www.w3.org/2000/svg" xmlns:xlink="http://www.w3.org/1999/xlink" width="135.444" height="90.183" viewBox="0 0 135.444 90.183">
  <defs>
    <linearGradient id="linear-gradient" x1="-0.006" y1="1.009" x2="0.635" y2="0.034" gradientUnits="objectBoundingBox">
      <stop offset="0" stop-color="#184c74"/>
      <stop offset="0.448" stop-color="#338da6"/>
      <stop offset="1" stop-color="#eb404d"/>
    </linearGradient>
  </defs>
  <path id="Union_8" data-name="Union 8" d="M9402.205-3641.64a20.028,20.028,0,0,1-20.016-20,19.35,19.35,0,0,1,.174-2.46h-2.172a20.029,20.029,0,0,1-20.017-20c0-11.125,9.444-20.253,20.07-20.032a19.9,19.9,0,0,1,15.257-8.622,29.543,29.543,0,0,1,27.136-18.077,29.268,29.268,0,0,1,28.678,23.212,29.324,29.324,0,0,1,22.577,25.972,20.034,20.034,0,0,1,20.727,20,20.027,20.027,0,0,1-20.015,20Zm-16.84-20a16.848,16.848,0,0,0,16.84,16.82h72.4a16.848,16.848,0,0,0,16.839-16.82,16.854,16.854,0,0,0-18.83-16.718c-3.356.478.058-7.84-7.753-17.294a26.246,26.246,0,0,0-44.766,7.468,1.588,1.588,0,0,1-1.479,1.03,16.771,16.771,0,0,0-14.18,7.948,1.577,1.577,0,0,1-1.336.747c-.038,0-.077,0-.116,0-.351-.024-.7-.036-1.048-.036A16.961,16.961,0,0,0,9385.365-3661.636Zm-22.014-22.456a16.85,16.85,0,0,0,16.84,16.82h2.8a20.091,20.091,0,0,1,19.267-14.4,19.912,19.912,0,0,1,15.257-8.623,29.306,29.306,0,0,1,30.431-17.9,26.119,26.119,0,0,0-25.307-19.46,26.344,26.344,0,0,0-24.558,17.011,1.586,1.586,0,0,1-1.479,1.031,16.768,16.768,0,0,0-14.178,7.947,1.52,1.52,0,0,1-1.479.741c-.311,0-.646-.031-1-.031A16.952,16.952,0,0,0,9363.352-3684.092Zm27.307,22.456a11.559,11.559,0,0,1,11.547-11.546l.36,0-.021,3.176-.35,0a8.378,8.378,0,0,0-8.361,8.37Zm-21.921-23.478a11.209,11.209,0,0,1,11.454-10.524c6.27.4,7.135.141,7.018,2.034a1.618,1.618,0,0,1-1.7,1.485l-5.424-.347a8,8,0,0,0-8.187,7.631,8.024,8.024,0,0,0,6.823,8.966l-.555,3.127C9371.055-3674,9368.292-3680.038,9368.737-3685.114Zm40.189,8.717a11.5,11.5,0,0,1,9.723-5.46l.021,3.176a8.347,8.347,0,0,0-7.051,3.966Zm16.125-9.927a21.018,21.018,0,0,1,19.6-13.575v3.176a17.828,17.828,0,0,0-16.623,11.514Zm-22.016-22.454a20.794,20.794,0,0,1,15.725-13.195,21.3,21.3,0,0,1,3.986-.379,20.674,20.674,0,0,1,15.4,6.868l-2.357,2.13a17.56,17.56,0,0,0-16.436-5.5,17.642,17.642,0,0,0-13.344,11.189Z" transform="translate(-9359.675 3731.324)" stroke="rgba(0,0,0,0)" stroke-width="1" fill="url(#linear-gradient)"/>
</svg>
