<svg xmlns="http://www.w3.org/2000/svg" xmlns:xlink="http://www.w3.org/1999/xlink" width="127.815" height="127.547" viewBox="0 0 127.815 127.547">
  <defs>
    <linearGradient id="linear-gradient" x1="0.163" y1="1.096" x2="0.928" y2="-0.055" gradientUnits="objectBoundingBox">
      <stop offset="0" stop-color="#348fa7"/>
      <stop offset="0.496" stop-color="#587fab"/>
      <stop offset="0.985" stop-color="#ec404c"/>
      <stop offset="1" stop-color="#ec404c"/>
    </linearGradient>
    <clipPath id="clip-path">
      <path id="Path_9544" data-name="Path 9544" d="M17.146,100.529a9.884,9.884,0,0,1,9.871-9.873H36.89v9.873a9.872,9.872,0,0,1-19.744,0m73.78,0V90.656h9.87a9.872,9.872,0,1,1-9.87,9.873M54.036,78.186H100.8a22.342,22.342,0,1,1-22.339,22.343V90.656H86.25v9.873A14.547,14.547,0,1,0,100.8,85.979H54.036ZM41.566,100.529V54.035H49.36v46.493A22.342,22.342,0,1,1,27.017,78.186H36.89v7.793H27.017a14.548,14.548,0,1,0,14.549,14.549M54.036,69.6V54.035H73.78V73.51H54.036ZM17.146,27.018a9.872,9.872,0,1,1,19.744,0v9.871H27.017a9.882,9.882,0,0,1-9.871-9.871m73.78,5.365V27.018a9.871,9.871,0,1,1,9.87,9.871h-9.87ZM4.676,27.018a22.342,22.342,0,1,1,44.684,0v9.871H41.566V27.018A14.548,14.548,0,1,0,27.017,41.565H73.78v7.793H27.017A22.367,22.367,0,0,1,4.676,27.018m73.78,32.837V27.018A22.341,22.341,0,1,1,100.8,49.359h-9.87V41.565h9.87A14.548,14.548,0,1,0,86.25,27.018V73.51H78.457ZM100.8,0A27.048,27.048,0,0,0,73.78,27.018v9.871H54.036V27.018A27.018,27.018,0,1,0,27.017,54.035H36.89V73.51H27.017a27.018,27.018,0,1,0,27.019,27.019V90.656H73.78v9.873A27.017,27.017,0,1,0,100.8,73.51h-9.87V54.035h9.87A27.018,27.018,0,1,0,100.8,0Z" transform="translate(0 0.001)" fill="url(#linear-gradient)"/>
    </clipPath>
  </defs>
  <g id="Group_15111" data-name="Group 15111" transform="translate(0 -0.001)">
    <g id="Group_11849" data-name="Group 11849" transform="translate(0 0.001)" clip-path="url(#clip-path)">
      <rect id="Rectangle_32330" data-name="Rectangle 32330" width="127.815" height="127.547" transform="translate(0 0)" fill="url(#linear-gradient)"/>
    </g>
  </g>
</svg>
