<svg xmlns="http://www.w3.org/2000/svg" xmlns:xlink="http://www.w3.org/1999/xlink" width="728" height="241" viewBox="0 0 728 241">
  <defs>
    <clipPath id="clip-path">
      <rect id="Rectangle_2408" data-name="Rectangle 2408" width="246" height="84.173" fill="none"/>
    </clipPath>
  </defs>
  <g id="image-infographic" transform="translate(-577 -1030)">
    <text id="Disagree_or_Strongly_Disagree" data-name="Disagree or Strongly Disagree" transform="translate(1116 1050)" fill="#4d4d4d" font-size="12" font-family="ProximaNova-Regular, Proxima Nova"><tspan x="0" y="9">Disagree or Strongly Disagree</tspan></text>
    <text id="Neutral" transform="translate(1116 1070)" fill="#4d4d4d" font-size="12" font-family="ProximaNova-Regular, Proxima Nova"><tspan x="0" y="9">Neutral</tspan></text>
    <text id="Agree_or_Strongly_Agree" data-name="Agree or Strongly Agree" transform="translate(1116 1090)" fill="#4d4d4d" font-size="12" font-family="ProximaNova-Regular, Proxima Nova"><tspan x="0" y="9">Agree or Strongly Agree</tspan></text>
    <g id="Group_4922" data-name="Group 4922" transform="translate(603 1146.775)">
      <path id="Path_2259" data-name="Path 2259" d="M46.036,0,0,75.224H54.038L100.072,0Z" fill="#338fa7"/>
      <path id="Path_2260" data-name="Path 2260" d="M85.445,0,39.408,75.224h127L212.441,0Z" transform="translate(21.065)" fill="#896c8b"/>
      <path id="Path_2261" data-name="Path 2261" d="M172.4,0,126.362,75.224H568.418L614.455,0Z" transform="translate(67.544)" fill="#eb404d"/>
      <text id="_7_" data-name="7%" transform="translate(38.679 43.052)" fill="#fff" font-size="18" font-family="ProximaNova-Bold, Proxima Nova" font-weight="700"><tspan x="0" y="0" letter-spacing="0.079em">7</tspan><tspan y="0">%</tspan></text>
      <text id="_21_" data-name="21%" transform="translate(128.891 43.052)" fill="#fff" font-size="18" font-family="ProximaNova-Bold, Proxima Nova" font-weight="700"><tspan x="0" y="0" letter-spacing="0.08em">2</tspan><tspan y="0" letter-spacing="0.079em">1</tspan><tspan y="0">%</tspan></text>
      <text id="_72_" data-name="72%" transform="translate(392 54.858)" fill="#fff" font-size="43" font-family="ProximaNova-Bold, Proxima Nova" font-weight="700"><tspan x="0" y="0" letter-spacing="0.079em">7</tspan><tspan y="0" letter-spacing="0.08em">2</tspan><tspan y="0">%</tspan></text>
    </g>
    <g id="Group_4928" data-name="Group 4928" transform="translate(953 1143.461)" opacity="0.1">
      <path id="Path_2264" data-name="Path 2264" d="M0,.12V15.389H41.058l-29.2,66.206H30.913L61.2,12.211V.12Z" transform="translate(0 1.11)" fill="#fff"/>
      <g id="Group_4927" data-name="Group 4927" transform="translate(0 0)">
        <g id="Group_4926" data-name="Group 4926" clip-path="url(#clip-path)">
          <path id="Path_2265" data-name="Path 2265" d="M9.429,69.017c33.347-24.557,43.125-32.981,43.125-43,0-7.079-6.468-10.623-13.312-10.623a29.076,29.076,0,0,0-21.746,9.4L7.6,13.312C15.551,4.145,27.631,0,39,0,56.334,0,70.145,9.768,70.145,26.014c0,13.934-11.479,26.024-33.347,41.414H70.756V82.7H9.429Z" transform="translate(69.773 0.003)" fill="#fff"/>
          <path id="Path_2266" data-name="Path 2266" d="M36.34,0C48.919,0,57.1,9.035,57.1,20.524c0,11.357-8.179,20.035-20.758,20.035-12.467,0-20.656-8.678-20.656-20.035C15.684,9.035,23.873,0,36.34,0m0,9.646c-5.5,0-9.666,4.033-9.666,10.878,0,6.346,4.166,10.5,9.666,10.5,5.612,0,9.646-4.156,9.646-10.5,0-6.845-4.033-10.878-9.646-10.878M80.433,1.222h9.289L37.552,82.7H28.385Zm.733,42.26c12.467,0,20.768,9.045,20.768,20.524,0,11.367-8.3,20.157-20.768,20.157s-20.646-8.79-20.646-20.157c0-11.479,8.179-20.524,20.646-20.524m0,9.656c-5.622,0-9.646,4.156-9.646,10.868,0,6.6,4.023,10.634,9.646,10.634s9.768-4.033,9.768-10.634c0-6.712-4.145-10.868-9.768-10.868" transform="translate(144.065 0.003)" fill="#fff"/>
        </g>
      </g>
    </g>
    <path id="Path_2267" data-name="Path 2267" d="M6.955,0H20.169L13.214,13.214H0Z" transform="translate(1086.83 1049)" fill="#338fa7"/>
    <path id="Path_2268" data-name="Path 2268" d="M6.955,0H20.169L13.214,13.214H0Z" transform="translate(1086.83 1069)" fill="#896c8b"/>
    <path id="Path_2269" data-name="Path 2269" d="M6.955,0H20.169L13.214,13.214H0Z" transform="translate(1086.83 1089)" fill="#eb404d"/>
    <text id="Source:_Linus_Group_Inc_Seven_Bridges_Quantitative_Study_2021." data-name="Source: Linus Group Inc, Seven Bridges, Quantitative Study 2021." transform="translate(857 1245)" fill="#4d4d4d" font-size="12" font-family="HelveticaNeue, Helvetica Neue"><tspan x="24" y="11">Source: Linus Group Inc, Seven Bridges, Quantitative Study 2021.</tspan></text>
    <rect id="Rectangle_32794" data-name="Rectangle 32794" width="728" height="241" transform="translate(577 1030)" fill="none"/>
  </g>
</svg>
