<svg xmlns="http://www.w3.org/2000/svg" xmlns:xlink="http://www.w3.org/1999/xlink" width="117.365" height="99.26" viewBox="0 0 117.365 99.26">
  <defs>
    <linearGradient id="linear-gradient" x1="0.678" y1="1" x2="0.682" gradientUnits="objectBoundingBox">
      <stop offset="0" stop-color="#6087a5"/>
      <stop offset="0.448" stop-color="#338da6"/>
      <stop offset="1" stop-color="#eb404d"/>
    </linearGradient>
  </defs>
  <g id="Group_15046" data-name="Group 15046" transform="translate(-2051.972 31.767)">
    <g id="Group_15045" data-name="Group 15045" transform="translate(2051.972 -31.767)">
      <path id="Path_11127" data-name="Path 11127" d="M3162.391,227.908a2.408,2.408,0,0,0-1.734-.674h0a2.412,2.412,0,0,0-1.737.675l-8.071,8.061a2.4,2.4,0,0,0-.576.9l-2.645,7.453-22.816,22.825-4.229-4.195a2.443,2.443,0,0,0-.931-.576l-3.052-3.052,3.65-3.659a2.454,2.454,0,0,0,0-3.468l-.125-.125c7.993-7.605,15.178-10.985,23.077-10.926a2.454,2.454,0,0,0,1.131-4.643,41.461,41.461,0,0,0-5.975-2.552c-11.908-3.929-24.579-3.132-34.287,2.079l-1.129-1.129a2.454,2.454,0,0,0-3.471,0l-24.834,24.834a2.453,2.453,0,0,0,0,3.47l0,0,2.751,2.745-4.893,4.891-2.758-2.748a2.454,2.454,0,0,0-3.468,0l-9.58,9.58a2.454,2.454,0,0,0,0,3.47h0l17.31,17.3a2.454,2.454,0,0,0,3.47,0l9.581-9.581a2.454,2.454,0,0,0,0-3.471l0,0-2.752-2.744,4.893-4.893,2.757,2.749a2.454,2.454,0,0,0,3.468,0l3.645-3.645,3.089,3.089-.1.069a2.394,2.394,0,0,0-.368.3l-26.751,26.738a2.454,2.454,0,0,0-.008,3.464l15.088,15.17a2.406,2.406,0,0,0,1.738.681h0a2.409,2.409,0,0,0,1.735-.674l26.8-26.792a2.324,2.324,0,0,0,.3-.35l.073-.1,24.368,24.37a12.4,12.4,0,0,0,17.613-17.471l-.07-.071-17.614-17.6-6.724-6.724a2.453,2.453,0,0,0-.645-1.127l-3.9-3.861,22.843-22.843,7.208-2.948a2.454,2.454,0,0,0,.808-.538l8.07-8.084a2.427,2.427,0,0,0,.013-3.431l-.014-.014Zm-39.3,44.443,5.393,5.367,0,0,3.9,3.861-2.884,2.884-12.4-12.486-1.021-1.031,2.788-2.788Zm16.66,17.066-10.6,10.592-5.7-5.7,3.593-5.35.7.658a2.4,2.4,0,0,0,1.738.678h.006a2.4,2.4,0,0,0,1.735-.669l4.395-4.369Zm-28.873-20.211a2.453,2.453,0,0,0-.007,3.462l.846.856-5.413,3.64-3.773-3.773,10.6-10.592,2.076,2.076Zm22.759-31.512c-6.961,2.214-12.534,6.629-16.988,10.909l-8.926-8.92C3115.2,236.129,3124.513,235.41,3133.635,237.694Zm-57.666,36.624,4.892-4.893,4.857,4.865-4.893,4.892Zm-.234,18.927L3061.9,279.418l6.112-6.113,2.753,2.746,8.325,8.336,0,0,2.752,2.745Zm17.943-17.942-2.755-2.745-8.324-8.337,0,0-2.751-2.744,21.361-21.361,13.841,13.828Zm22.972,20.326-24.893,24.9L3080.125,308.8l24.852-24.841,10.257-6.891,8.285,8.339-5.264,7.837Zm42.447,13.122a7.5,7.5,0,1,1-10.585,10.621l-.016-.016-15.877-15.878,10.6-10.592Zm2.331-62.926-7.207,2.947a2.454,2.454,0,0,0-.806.536l-23.2,23.205-1.915-1.906,23.2-23.21a2.45,2.45,0,0,0,.577-.915l2.646-7.46,5.944-5.953,6.755,6.758Z" transform="translate(-3055.972 -227.233)" fill="url(#linear-gradient)"/>
    </g>
  </g>
</svg>
