<svg xmlns="http://www.w3.org/2000/svg" xmlns:xlink="http://www.w3.org/1999/xlink" width="121.58" height="123.624" viewBox="0 0 121.58 123.624">
  <defs>
    <linearGradient id="linear-gradient" x1="0.504" y1="0.064" x2="0.492" y2="1.048" gradientUnits="objectBoundingBox">
      <stop offset="0.008" stop-color="#e54351"/>
      <stop offset="0.496" stop-color="#587fab"/>
      <stop offset="1" stop-color="#348fa7"/>
    </linearGradient>
  </defs>
  <path id="Path_11128" data-name="Path 11128" d="M-905.008,852.343h-40.407l-25.06-13.56V828.9h8.08a5.738,5.738,0,0,0,5.731-5.731,5.738,5.738,0,0,0-5.731-5.732h-21.19a5.738,5.738,0,0,0-5.731,5.732,5.738,5.738,0,0,0,5.731,5.731h8.711v9.617l-30.052,16.26,30.052,16.26v8.5H-997.5v15.23h22.384v8.767a8.951,8.951,0,0,0-7.22,8.77,8.951,8.951,0,0,0,7.22,8.77V929.6h-8.47a5.738,5.738,0,0,0-5.731,5.732,5.738,5.738,0,0,0,5.731,5.731h21.19a5.738,5.738,0,0,0,5.731-5.731,5.738,5.738,0,0,0-5.731-5.732h-8.321v-8.769a8.967,8.967,0,0,0,6.088-6.809h60.1V878.644h21.181v-15.23h-21.662Zm-79.909-29.169a1.334,1.334,0,0,1,1.332-1.332h21.19a1.334,1.334,0,0,1,1.332,1.332,1.334,1.334,0,0,1-1.332,1.332h-21.19A1.334,1.334,0,0,1-984.916,823.174Zm23.853,112.161a1.334,1.334,0,0,1-1.332,1.332h-21.19a1.334,1.334,0,0,1-1.332-1.332A1.334,1.334,0,0,1-983.585,934h21.19A1.334,1.334,0,0,1-961.063,935.334Zm-11.852-92.87,22.766,12.318L-972.915,867.1l-22.766-12.319ZM-993.1,883.939h38.925v6.432H-993.1Zm19.7,32.907a4.544,4.544,0,0,1-4.539-4.539,4.544,4.544,0,0,1,4.539-4.539,4.544,4.544,0,0,1,4.539,4.539A4.544,4.544,0,0,1-973.4,916.846Zm64.471-7.22H-964.87a8.977,8.977,0,0,0-5.845-5.846v-9.01h20.94V879.54h-20.7v-8.758l25.949-14.041h35.119v6.672h-21.662v15.23h22.143Zm21.181-35.381H-926.67v-6.432h38.925Z" transform="translate(1004.926 -817.442)" fill="url(#linear-gradient)"/>
</svg>
